<svg width="1349" height="294" viewBox="0 0 1349 294" fill="none" xmlns="http://www.w3.org/2000/svg">
<g clip-path="url(#clip0_445_39)">
<path d="M374.615 254.413C370.791 252.501 365.054 250.589 357.407 248.677C344.023 244.853 335.18 238.161 330.877 228.601C327.053 218.563 327.531 202.071 332.311 179.127L367.401 3H316.293L308.649 37.874C306.737 45.522 304.347 50.78 301.479 53.648C298.611 56.516 294.548 57.95 289.29 57.95L212.569 58.667C199.663 58.667 193.449 57.233 193.927 54.365C194.405 51.497 196.317 47.673 199.663 42.893L229.625 3H203.257C184.43 27.185 165.076 51.475 145.17 75.876C116.011 112.204 83.7462 149.968 48.3732 189.164C40.7252 197.768 32.1212 205.895 22.5602 213.543C13.0002 220.713 2.48418 226.927 -8.98882 232.185C-19.9838 237.443 -32.1728 241.984 -45.5568 245.808C-53.2048 247.72 -59.1798 249.871 -63.4818 252.261C-68.2618 254.173 -70.4128 257.041 -69.9348 260.865C-68.9788 264.211 -67.3058 266.601 -64.9158 268.035C-62.5258 269.469 -58.4628 270.186 -52.7268 270.186C-41.7318 270.186 -27.8708 269.469 -11.1398 268.035C6.06818 266.601 22.0822 265.884 36.9002 265.884C49.3282 265.884 60.0832 266.123 69.1662 266.601C78.7262 267.079 86.6132 267.318 92.8272 267.318C98.5632 267.318 103.343 266.601 107.167 265.167C110.991 263.733 112.903 261.343 112.903 257.997C112.903 254.173 111.23 251.066 107.884 248.676C104.538 246.286 100.236 244.135 94.9782 242.223C89.7202 240.311 84.9402 237.921 80.6382 235.053C76.8142 231.707 75.1412 226.927 75.6192 220.713C76.5752 214.021 81.3552 204.939 89.9592 193.466L163.812 95.952C167.636 90.694 171.699 87.348 176.001 85.914C180.781 84.002 186.996 83.046 194.643 83.046L274.949 81.612C281.641 81.612 287.138 83.046 291.44 85.914C296.22 88.782 297.654 93.801 295.742 100.971L273.515 186.296C270.169 199.68 265.867 210.197 260.609 217.845C255.829 225.015 248.897 230.512 239.816 234.336C231.212 237.682 219.023 240.789 203.248 243.657C197.034 244.613 192.015 246.525 188.191 249.393C184.367 251.783 182.694 254.651 183.172 257.997C184.606 263.733 190.342 266.601 200.38 266.601H219.739C227.865 266.123 236.23 265.884 244.835 265.884H271.365C281.403 265.884 291.919 266.123 302.914 266.601C313.909 267.557 324.185 268.274 333.746 268.752C343.784 269.708 351.911 270.186 358.125 270.186C366.251 270.186 371.988 269.469 375.333 268.035C378.679 266.601 380.352 264.45 380.352 261.582C380.352 258.236 378.44 255.846 374.616 254.412L374.615 254.413Z" stroke="black" stroke-width="6"/>
<path d="M693.115 69.423C686.901 55.56 677.819 43.371 665.868 32.855C654.396 22.339 639.817 15.407 622.13 12.062C620.218 11.584 619.024 10.389 618.545 8.47698C618.545 6.56498 620.458 5.36998 624.281 4.89198C627.225 4.37298 630.2 3.73998 633.207 3.00098H499.442C498.546 4.84298 498.087 6.90398 498.087 9.19398C498.087 14.452 500.476 18.515 505.256 21.383C510.514 24.251 515.534 25.685 520.313 25.685C524.616 25.685 528.679 25.446 532.502 24.968C536.804 24.012 540.628 23.295 543.974 22.817C547.798 22.339 551.383 21.861 554.729 21.383C558.553 20.905 562.617 20.666 566.918 20.666C587.951 20.666 604.92 28.792 617.826 45.045C631.211 60.819 637.903 84.959 637.903 117.464C637.903 144.233 632.166 168.133 620.694 189.166C609.223 210.199 593.687 226.929 574.088 239.357C554.968 251.307 533.697 257.282 510.274 257.282C492.588 257.282 476.574 252.263 462.234 242.225C447.894 231.709 436.421 218.324 427.817 202.072C419.691 185.341 415.628 168.133 415.628 150.447C415.628 142.321 414.911 136.346 413.477 132.522C412.522 128.22 410.131 126.069 406.307 126.069C402.961 126.069 400.093 127.503 397.703 130.371C395.314 133.239 393.64 137.063 392.684 141.843C387.904 162.397 385.753 179.606 386.231 193.468C387.187 207.331 387.665 217.607 387.665 224.3C387.665 229.558 389.338 234.338 392.684 238.64C396.031 242.942 399.616 246.288 403.439 248.678C413.956 255.37 426.862 261.584 442.158 267.32C457.932 273.534 475.858 276.641 495.934 276.641C521.747 276.641 546.842 273.295 571.221 266.603C595.6 259.433 617.589 249.155 637.186 235.771C657.262 221.908 673.038 204.7 684.51 184.146C696.46 163.592 702.435 139.691 702.435 112.444C702.435 97.626 699.328 83.286 693.113 69.423H693.115Z" stroke="black" stroke-width="6"/>
<path d="M1005.14 3L953.107 83.046C951.194 85.914 949.522 88.782 948.088 91.65C946.654 94.04 944.741 95.235 942.352 95.235C939.963 95.235 938.288 93.801 937.333 90.933C936.854 88.065 936.137 84.719 935.182 80.895L918.101 3H862.091L894.311 149.011C895.266 153.791 895.745 158.093 895.745 161.917C896.223 165.741 895.266 169.326 892.877 172.672C881.405 189.88 866.108 204.221 846.988 215.693C827.867 227.165 805.639 232.901 780.306 232.901C767.4 232.901 755.449 231.467 744.455 228.599C733.46 225.253 724.139 222.146 716.491 219.278C709.321 216.41 704.062 214.976 700.717 214.976C698.804 214.976 696.176 216.888 692.83 220.712C689.483 224.058 687.811 227.643 687.811 231.467C687.811 245.807 692.352 259.191 701.434 271.62C710.994 284.049 723.183 290.262 738.002 290.262C759.99 290.262 781.74 285.482 803.25 275.922C825.238 266.84 846.749 252.5 867.781 232.901C888.813 213.302 909.129 188.685 928.727 159.048L1032.1 3H1005.14Z" stroke="black" stroke-width="6"/>
<path d="M1340.09 170.522C1337.23 170.522 1334.83 171.956 1332.92 174.824C1331.01 177.692 1329.1 180.56 1327.19 183.428C1320.98 193.466 1314.76 202.31 1308.55 209.958C1302.33 217.128 1295.64 223.342 1288.47 228.6C1280.82 233.858 1272.22 238.399 1262.66 242.223C1253.58 246.047 1243.06 247.959 1231.11 247.959H1119.97C1105.16 247.959 1095.59 244.135 1091.29 236.487C1087.46 228.839 1088.9 212.826 1095.59 188.447L1132.16 57.95C1135.03 47.434 1139.33 41.219 1145.07 39.308C1151.28 36.918 1158.45 35.723 1166.58 35.723L1249.03 37.157C1257.16 37.157 1263.61 40.264 1268.39 46.478C1273.65 52.214 1276.28 62.492 1276.28 77.31C1276.28 79.7 1276.75 83.524 1277.71 88.782C1279.15 94.04 1281.77 96.669 1285.6 96.669C1287.99 96.669 1289.9 94.996 1291.34 91.65C1293.24 88.304 1294.45 84.958 1294.92 81.612C1297.31 71.096 1299.46 61.775 1301.37 53.648C1303.77 45.044 1306.39 36.917 1309.26 29.27C1311.65 22.578 1314.28 15.647 1317.15 8.47698C1317.98 6.68198 1318.85 4.85598 1319.75 3.00098H1286.53C1285.06 4.14498 1283.56 5.25998 1282.01 6.32598C1274.84 11.106 1265.05 13.735 1252.62 14.213L1163.71 16.364C1156.06 16.842 1151.52 15.408 1150.08 12.062C1149.21 10.021 1149.14 6.99698 1149.86 3.00098H1095.44L1036.79 195.618C1032.02 211.87 1024.36 224.059 1013.85 232.186C1003.81 239.834 986.846 245.57 962.942 249.394C945.734 252.262 937.129 256.564 937.129 262.3C937.129 265.168 938.563 267.08 941.431 268.036C944.299 269.47 948.601 270.187 954.337 270.187C966.287 270.187 976.325 269.709 984.453 268.753C993.057 268.275 1001.66 267.558 1010.27 266.602C1018.87 266.124 1028.91 265.885 1040.38 265.885C1053.76 265.885 1067.87 266.124 1082.68 266.602C1097.98 266.602 1113.76 266.841 1130.01 267.319C1146.26 267.797 1163.23 268.275 1180.92 268.753C1198.6 269.231 1216.77 269.47 1235.41 269.47C1254.53 269.948 1273.89 270.187 1293.49 270.187C1299.22 270.187 1303.77 268.992 1307.11 266.602C1310.94 263.734 1314.28 259.91 1317.15 255.13C1320.49 249.394 1324.32 241.984 1328.62 232.902C1332.92 223.341 1336.75 214.02 1340.09 204.938C1343.43 195.856 1345.11 189.164 1345.11 184.862C1345.11 181.994 1344.87 178.887 1344.39 175.541C1343.92 172.195 1342.48 170.522 1340.09 170.522H1340.09Z" stroke="black" stroke-width="6"/>
</g>
<defs>
<clipPath id="clip0_445_39">
<rect width="1421.11" height="293.263" fill="white" transform="translate(-73)"/>
</clipPath>
</defs>
</svg>
