<svg width="533" height="218" viewBox="0 0 533 218" fill="none" xmlns="http://www.w3.org/2000/svg">
<path d="M56.6118 84.871L4.2998 133.808V209.183L416.05 213.121V144.496L4.2998 133.808" stroke="#231F20" stroke-width="2" stroke-miterlimit="10"/>
<path d="M416.05 213.121L477.925 138.128H471.175" stroke="#231F20" stroke-width="2" stroke-miterlimit="10"/>
<path d="M56.6118 132.683V62.558L116.8 2.74597L527.988 9.49597L470.05 67.715C470.087 70.052 470.125 72.39 470.162 74.727C470.5 95.861 470.838 116.995 471.175 138.129L56.6128 132.684L56.6118 132.683Z" stroke="#231F20" stroke-width="2" stroke-miterlimit="10"/>
<path d="M416.05 144.496L428.05 137.478" stroke="#231F20" stroke-width="2" stroke-miterlimit="10"/>
<path d="M56.6118 62.558L470.05 67.714" stroke="#231F20" stroke-width="2" stroke-miterlimit="10"/>
<path d="M416.203 201.182L471.175 138.128L527.987 62.558H522.362L520.691 16.827" stroke="#231F20" stroke-width="2" stroke-miterlimit="10"/>
<path d="M522.362 62.558L471.015 128.17" stroke="#231F20" stroke-width="2" stroke-miterlimit="10"/>
<path d="M138.242 112.51C137.402 112.505 136.743 112.286 136.266 111.851C135.764 111.417 135.514 110.936 135.517 110.408C135.52 109.736 135.716 109.089 136.103 108.467C136.466 107.82 136.984 107.499 137.656 107.503C138.064 107.505 138.399 107.602 138.662 107.796C138.95 107.965 139.201 108.111 139.416 108.232C139.608 108.353 139.823 108.474 140.062 108.595C140.302 108.692 140.518 108.741 140.71 108.742C141.118 108.72 141.551 108.567 142.008 108.281C142.49 107.971 142.984 107.518 143.491 106.921C144.022 106.299 144.566 105.534 145.123 104.625C145.68 103.692 146.237 102.627 146.795 101.43C147.378 100.209 147.961 98.8315 148.545 97.2985C149.129 95.7655 149.689 94.0763 150.227 92.2311C150.471 91.4883 150.365 90.9598 149.911 90.6454C149.457 90.3311 148.666 90.039 147.539 89.7692C147.324 89.7201 147.18 89.6353 147.109 89.515C147.037 89.3706 147.014 89.2025 147.039 89.0106C147.088 88.8429 147.197 88.7114 147.365 88.6163C147.558 88.5213 147.738 88.4742 147.906 88.4751C148.434 88.4778 148.998 88.4927 149.598 88.5198C150.222 88.547 150.834 88.5861 151.433 88.6372C152.033 88.6643 152.573 88.6791 153.053 88.6816L161.693 88.7261C162.173 88.7285 162.713 88.7193 163.313 88.6984C163.937 88.6776 164.561 88.6568 165.186 88.636C165.834 88.6154 166.422 88.6064 166.95 88.6091C167.382 88.6113 167.537 88.7801 167.415 89.1155C167.366 89.3553 167.257 89.5227 167.088 89.6178C166.944 89.7131 166.728 89.796 166.439 89.8665C165.742 90.0549 165.189 90.2441 164.78 90.434C164.395 90.624 164.094 90.8624 163.877 91.1493C163.659 91.4362 163.477 91.8313 163.33 92.3345L158.207 108.58C157.987 109.275 157.996 109.791 158.235 110.129C158.497 110.442 159.036 110.721 159.85 110.965C160.09 111.038 160.246 111.123 160.317 111.219C160.413 111.316 160.436 111.472 160.387 111.688C160.338 111.855 160.241 111.987 160.097 112.082C159.976 112.178 159.808 112.225 159.592 112.224C159.064 112.221 158.488 112.194 157.864 112.143C157.241 112.115 156.617 112.088 155.993 112.061C155.369 112.034 154.817 112.019 154.337 112.016C153.593 112.013 152.729 112.032 151.745 112.075C150.784 112.142 149.896 112.174 149.08 112.169C148.912 112.169 148.768 112.132 148.649 112.059C148.529 111.963 148.494 111.83 148.543 111.663C148.665 111.279 149.002 111.029 149.555 110.912C150.516 110.725 151.213 110.488 151.646 110.203C152.104 109.893 152.455 109.355 152.699 108.588L157.749 92.5218C157.993 91.755 158.032 91.1672 157.866 90.7584C157.725 90.3496 157.174 90.1428 156.214 90.1379L154.738 90.1303C153.946 90.1262 153.369 90.3032 153.007 90.6614C152.645 90.9955 152.367 91.4621 152.172 92.0611C151.244 95.1283 150.282 97.7994 149.286 100.074C148.291 102.349 147.285 104.288 146.268 105.891C145.252 107.494 144.261 108.785 143.296 109.764C142.331 110.719 141.416 111.422 140.55 111.874C139.707 112.301 138.938 112.513 138.242 112.51ZM165.653 113.227C165.029 113.224 164.491 112.981 164.037 112.498C163.584 112.016 163.358 111.475 163.362 110.875C163.365 110.251 163.524 109.676 163.838 109.149C164.177 108.599 164.612 108.157 165.141 107.824C165.671 107.491 166.248 107.326 166.872 107.329C167.664 107.333 168.262 107.612 168.668 108.166C169.073 108.72 169.274 109.297 169.271 109.897C169.268 110.473 169.109 111.025 168.794 111.551C168.48 112.053 168.045 112.459 167.492 112.768C166.938 113.077 166.325 113.23 165.653 113.227ZM174.299 112.299C174.131 112.298 173.999 112.262 173.903 112.189C173.784 112.093 173.748 111.96 173.797 111.793C173.846 111.577 173.955 111.409 174.124 111.29C174.292 111.171 174.509 111.088 174.773 111.042C175.614 110.83 176.227 110.593 176.613 110.331C177.022 110.069 177.337 109.579 177.556 108.86L182.789 92.3987C183.033 91.608 183.06 91.0561 182.87 90.7431C182.703 90.4303 182.225 90.1638 181.434 89.9437C181.218 89.8946 181.063 89.8098 180.967 89.6893C180.872 89.5448 180.861 89.3768 180.934 89.1851C180.983 89.0174 181.091 88.8859 181.26 88.7908C181.452 88.6958 181.632 88.6487 181.8 88.6496C182.352 88.6524 182.904 88.6673 183.456 88.6941C184.032 88.7211 184.584 88.7599 185.112 88.8106C185.64 88.8374 186.144 88.8519 186.624 88.8544C187.103 88.8569 187.644 88.8477 188.244 88.8268C188.868 88.806 189.504 88.7852 190.152 88.7646C190.8 88.7439 191.376 88.7349 191.88 88.7375C192.312 88.7397 192.479 88.9086 192.382 89.2441C192.308 89.4837 192.187 89.6511 192.019 89.7462C191.874 89.8415 191.658 89.9244 191.37 89.9949C190.673 90.1833 190.12 90.3724 189.711 90.5623C189.326 90.7524 189.024 91.0028 188.807 91.3137C188.589 91.6006 188.407 91.9836 188.261 92.4629L186.211 99.0764C186.113 99.4119 186.244 99.5806 186.604 99.5825L195.46 99.6281C195.772 99.6297 195.977 99.4507 196.075 99.0912L198.125 92.5137C198.345 91.7948 198.359 91.2909 198.169 91.0019C197.978 90.6889 197.452 90.3622 196.59 90.0217C196.398 89.9488 196.254 89.864 196.159 89.7675C196.063 89.671 196.04 89.5029 196.09 89.2632C196.138 89.0954 196.235 88.9759 196.379 88.9046C196.548 88.8095 196.728 88.7624 196.92 88.7634C197.424 88.766 197.988 88.7809 198.612 88.8081C199.26 88.8355 199.884 88.8627 200.484 88.8898C201.107 88.917 201.647 88.9318 202.103 88.9341C202.583 88.9366 203.087 88.9272 203.615 88.9059C204.168 88.8607 204.732 88.8277 205.308 88.8066C205.884 88.7856 206.436 88.7764 206.964 88.7791C207.132 88.78 207.276 88.8288 207.395 88.9254C207.515 89.022 207.55 89.1542 207.501 89.3219C207.379 89.7053 207.042 89.9556 206.489 90.0727C205.6 90.2841 204.963 90.5569 204.577 90.8909C204.216 91.201 203.913 91.7395 203.669 92.5062L198.472 108.932C198.253 109.651 198.25 110.155 198.465 110.444C198.703 110.733 199.182 110.975 199.901 111.171C200.117 111.22 200.272 111.305 200.367 111.425C200.463 111.546 200.486 111.714 200.437 111.93C200.388 112.098 200.267 112.229 200.075 112.324C199.882 112.395 199.702 112.43 199.534 112.429C199.054 112.427 198.538 112.4 197.987 112.349C197.435 112.322 196.871 112.295 196.295 112.269C195.743 112.242 195.227 112.227 194.747 112.225C194.291 112.222 193.739 112.231 193.091 112.252C192.467 112.273 191.831 112.294 191.183 112.314C190.559 112.359 189.982 112.38 189.454 112.377C189.046 112.375 188.879 112.194 188.953 111.835C189.026 111.619 189.147 111.464 189.316 111.369C189.484 111.273 189.701 111.191 189.965 111.12C190.926 110.861 191.624 110.576 192.057 110.267C192.491 109.957 192.818 109.455 193.037 108.76L195.161 101.859C195.234 101.691 195.258 101.559 195.235 101.463C195.211 101.343 195.116 101.282 194.948 101.281L186.02 101.235C185.66 101.234 185.419 101.424 185.297 101.808L183.173 108.673C182.954 109.416 182.963 109.932 183.201 110.221C183.464 110.486 184.003 110.777 184.817 111.093C185.033 111.167 185.188 111.251 185.284 111.348C185.379 111.444 185.39 111.6 185.317 111.816C185.292 111.984 185.208 112.115 185.063 112.211C184.919 112.306 184.738 112.353 184.522 112.352C183.995 112.349 183.419 112.322 182.795 112.271C182.171 112.244 181.547 112.217 180.923 112.189C180.323 112.162 179.783 112.148 179.303 112.145C178.823 112.143 178.283 112.152 177.683 112.173C177.107 112.194 176.519 112.215 175.919 112.236C175.343 112.281 174.803 112.302 174.299 112.299ZM216.619 112.517C216.451 112.516 216.295 112.48 216.151 112.407C216.008 112.31 215.949 112.178 215.973 112.01C216.047 111.794 216.179 111.627 216.372 111.508C216.565 111.389 216.805 111.306 217.093 111.26C218.054 111.073 218.776 110.824 219.257 110.515C219.763 110.205 220.138 109.667 220.382 108.9L225.176 93.625C225.591 92.2351 225.788 91.3481 225.766 90.964C225.744 90.5799 225.529 90.3868 225.121 90.3847L223.429 90.3759C222.589 90.3716 221.76 90.5953 220.941 91.0471C220.147 91.4991 219.46 92.0235 218.881 92.6206C218.712 92.8117 218.471 93.0624 218.157 93.3728C217.868 93.6594 217.567 93.9218 217.253 94.1602C216.94 94.3986 216.652 94.5171 216.388 94.5157C216.196 94.5148 216.076 94.4541 216.028 94.3339C216.005 94.2138 216.006 94.0578 216.031 93.8659C216.08 93.7461 216.14 93.6025 216.213 93.4348C216.31 93.2433 216.419 93.0639 216.54 92.8965C217.24 92.0601 217.772 91.3068 218.136 90.6367C218.523 89.9427 218.875 89.1765 219.191 88.3381C219.289 88.0266 219.422 87.7993 219.591 87.6561C219.76 87.513 219.952 87.442 220.168 87.4431C220.408 87.4443 220.659 87.5536 220.922 87.771C221.185 87.9644 221.424 88.1456 221.64 88.3147C221.855 88.4358 222.07 88.5569 222.286 88.678C222.501 88.7991 222.813 88.8967 223.22 88.9708C223.652 89.0451 224.264 89.0842 225.056 89.0883L235.027 89.1396C236.011 89.1447 236.78 89.1127 237.332 89.0435C237.884 88.9743 238.293 88.8924 238.557 88.7978C238.822 88.7032 239.002 88.6321 239.098 88.5846C239.555 88.4189 239.928 88.2169 240.218 87.9783C240.531 87.716 240.832 87.5855 241.12 87.587C241.432 87.5886 241.527 87.7691 241.405 88.1285C241.38 88.2483 241.343 88.3801 241.295 88.5239C241.246 88.6437 241.186 88.7633 241.113 88.883C240.677 89.6007 240.277 90.3427 239.913 91.1088C239.573 91.8751 239.269 92.7015 239.001 93.5882C238.879 93.9715 238.745 94.2708 238.6 94.4861C238.479 94.6775 238.311 94.7726 238.095 94.7715C237.855 94.7703 237.687 94.6734 237.592 94.4809C237.521 94.2645 237.487 93.9284 237.489 93.4724C237.47 92.4883 237.27 91.7432 236.889 91.2373C236.507 90.7073 235.813 90.4397 234.805 90.4345L233.005 90.4252C232.645 90.4234 232.332 90.5058 232.068 90.6724C231.827 90.8152 231.597 91.126 231.379 91.6049C231.184 92.0599 230.941 92.7186 230.649 93.5812L225.854 108.893C225.634 109.612 225.667 110.14 225.954 110.477C226.264 110.791 226.838 111.07 227.677 111.314C227.893 111.387 228.06 111.472 228.18 111.569C228.299 111.665 228.335 111.821 228.286 112.037C228.237 112.205 228.128 112.336 227.959 112.432C227.791 112.527 227.611 112.574 227.419 112.573C226.891 112.57 226.291 112.543 225.619 112.492C224.971 112.464 224.323 112.437 223.676 112.41C223.052 112.382 222.5 112.367 222.02 112.365C221.54 112.363 220.976 112.372 220.328 112.392C219.679 112.413 219.031 112.434 218.383 112.454C217.735 112.499 217.147 112.52 216.619 112.517ZM246.813 113.069C245.157 113.06 243.695 112.669 242.427 111.894C241.159 111.096 240.156 109.998 239.419 108.603C238.683 107.207 238.319 105.609 238.328 103.809C238.338 101.865 238.72 99.9948 239.473 98.1986C240.25 96.3786 241.315 94.7521 242.666 93.319C244.018 91.886 245.595 90.7541 247.4 89.9234C249.204 89.0926 251.162 88.6827 253.274 88.6936C254.93 88.7021 256.392 89.1056 257.66 89.9042C258.952 90.6788 259.954 91.764 260.667 93.1597C261.404 94.5555 261.768 96.1534 261.759 97.9534C261.749 99.8734 261.355 101.743 260.578 103.563C259.824 105.384 258.76 107.01 257.385 108.443C256.033 109.876 254.455 111.008 252.651 111.839C250.847 112.669 248.901 113.079 246.813 113.069ZM246.82 111.701C247.852 111.706 248.849 111.363 249.813 110.672C250.801 109.957 251.706 109.014 252.528 107.842C253.374 106.67 254.112 105.378 254.744 103.965C255.375 102.529 255.862 101.103 256.206 99.6888C256.573 98.2747 256.76 96.9676 256.766 95.7677C256.771 94.7357 256.644 93.775 256.385 92.8857C256.149 91.9964 255.769 91.2865 255.244 90.7557C254.718 90.201 254.036 89.9215 253.196 89.9172C252.164 89.9119 251.166 90.2667 250.202 90.9818C249.239 91.6968 248.346 92.6523 247.524 93.848C246.701 95.0198 245.975 96.3241 245.343 97.7609C244.712 99.1976 244.213 100.635 243.845 102.073C243.502 103.511 243.327 104.831 243.321 106.031C243.316 107.039 243.431 107.975 243.666 108.84C243.902 109.706 244.27 110.404 244.772 110.934C245.297 111.441 245.98 111.696 246.82 111.701ZM261.217 113.143C260.377 113.138 259.718 112.919 259.241 112.485C258.739 112.05 258.489 111.569 258.492 111.041C258.495 110.369 258.691 109.722 259.078 109.1C259.441 108.454 259.959 108.132 260.631 108.136C261.039 108.138 261.374 108.236 261.637 108.429C261.925 108.598 262.176 108.744 262.391 108.865C262.583 108.986 262.798 109.107 263.037 109.228C263.277 109.325 263.493 109.374 263.685 109.375C264.093 109.354 264.526 109.2 264.983 108.914C265.465 108.605 265.959 108.151 266.466 107.554C266.997 106.932 267.541 106.167 268.098 105.258C268.655 104.325 269.212 103.26 269.77 102.063C270.353 100.842 270.936 99.4647 271.52 97.9316C272.104 96.3986 272.664 94.7095 273.202 92.8642C273.446 92.1215 273.34 91.5929 272.886 91.2786C272.431 90.9642 271.641 90.6722 270.514 90.4024C270.299 90.3533 270.155 90.2685 270.084 90.1481C270.012 90.0038 269.989 89.8357 270.014 89.6438C270.063 89.476 270.172 89.3446 270.34 89.2495C270.533 89.1544 270.713 89.1074 270.881 89.1082C271.409 89.111 271.973 89.1259 272.573 89.1529C273.197 89.1802 273.809 89.2193 274.408 89.2704C275.008 89.2975 275.548 89.3123 276.028 89.3147L284.668 89.3592C285.148 89.3617 285.688 89.3525 286.288 89.3316C286.912 89.3108 287.536 89.29 288.16 89.2692C288.809 89.2485 289.397 89.2396 289.925 89.2423C290.357 89.2445 290.512 89.4133 290.39 89.7487C290.341 89.9884 290.232 90.1559 290.063 90.251C289.919 90.3463 289.702 90.4292 289.414 90.4997C288.717 90.6881 288.164 90.8772 287.755 91.0671C287.37 91.2572 287.069 91.4956 286.851 91.7825C286.634 92.0694 286.452 92.4645 286.305 92.9677L281.182 109.214C280.962 109.908 280.971 110.424 281.21 110.762C281.472 111.075 282.011 111.354 282.825 111.598C283.065 111.671 283.221 111.756 283.292 111.852C283.388 111.949 283.411 112.105 283.362 112.321C283.313 112.489 283.216 112.62 283.072 112.715C282.951 112.811 282.783 112.858 282.567 112.857C282.039 112.854 281.463 112.827 280.839 112.776C280.215 112.749 279.592 112.721 278.968 112.694C278.344 112.667 277.792 112.652 277.312 112.65C276.568 112.646 275.704 112.665 274.72 112.708C273.759 112.775 272.871 112.807 272.055 112.803C271.887 112.802 271.743 112.765 271.624 112.692C271.504 112.596 271.469 112.464 271.518 112.296C271.64 111.912 271.977 111.662 272.53 111.545C273.491 111.358 274.188 111.122 274.621 110.836C275.079 110.526 275.43 109.988 275.674 109.221L280.724 93.155C280.968 92.3882 281.007 91.8004 280.841 91.3916C280.7 90.9828 280.149 90.776 279.189 90.771L277.713 90.7634C276.921 90.7594 276.344 90.9364 275.982 91.2945C275.62 91.6287 275.342 92.0952 275.147 92.6942C274.219 95.7615 273.257 98.4326 272.261 100.708C271.266 102.982 270.26 104.921 269.243 106.524C268.227 108.127 267.236 109.418 266.271 110.397C265.306 111.352 264.391 112.055 263.524 112.507C262.682 112.934 261.913 113.146 261.217 113.143ZM297.667 113.33C296.395 113.324 295.197 113.078 294.071 112.592C292.969 112.106 291.989 111.441 291.129 110.597C290.294 109.728 289.639 108.717 289.165 107.563C288.715 106.408 288.493 105.135 288.5 103.743C288.512 101.583 288.942 99.6054 289.791 97.8097C290.64 96.0141 291.8 94.46 293.271 93.1476C294.766 91.8113 296.475 90.776 298.399 90.0419C300.347 89.308 302.437 88.9467 304.669 88.9582C305.485 88.9624 306.216 89.0382 306.864 89.1855C307.511 89.3328 308.086 89.5038 308.589 89.6984C309.044 89.8447 309.404 89.9666 309.667 90.064C309.955 90.1374 310.243 90.1749 310.531 90.1764C310.699 90.1773 310.843 90.166 310.963 90.1426C311.107 90.1194 311.263 90.0602 311.432 89.965C311.624 89.846 311.805 89.763 311.973 89.7158C312.141 89.6447 312.31 89.6095 312.478 89.6104C312.718 89.6116 312.861 89.6844 312.908 89.8286C312.956 89.9729 312.907 90.1646 312.761 90.4039C312.447 90.8103 312.108 91.3725 311.745 92.0907C311.381 92.8088 311.053 93.5511 310.761 94.3176C310.469 95.0841 310.226 95.7789 310.031 96.4019C309.981 96.6177 309.884 96.8092 309.74 96.9764C309.619 97.1198 309.438 97.1909 309.198 97.1896C308.983 97.1885 308.827 97.0317 308.733 96.7192C308.639 96.3827 308.605 95.9746 308.631 95.4947C308.682 94.9669 308.637 94.4267 308.496 93.874C308.378 93.3214 308.165 92.8163 307.855 92.3587C307.475 91.7327 306.997 91.2262 306.423 90.8393C305.849 90.4523 305.238 90.2571 304.59 90.2538C303.366 90.2475 302.213 90.5656 301.129 91.208C300.046 91.8504 299.069 92.7214 298.2 93.821C297.33 94.8965 296.58 96.1166 295.949 97.4814C295.342 98.8463 294.866 100.284 294.523 101.794C294.179 103.28 294.004 104.719 293.996 106.111C293.991 107.095 294.107 107.96 294.343 108.705C294.579 109.427 294.912 110.028 295.342 110.51C295.771 110.993 296.297 111.355 296.92 111.599C297.543 111.818 298.238 111.929 299.006 111.933C299.99 111.938 300.915 111.739 301.782 111.336C302.672 110.908 303.515 110.313 304.311 109.549C305.131 108.785 305.915 107.901 306.664 106.897C306.858 106.634 307.015 106.419 307.136 106.251C307.281 106.06 307.437 105.965 307.605 105.966C307.773 105.966 307.917 106.063 308.036 106.256C308.155 106.424 308.178 106.641 308.104 106.904C307.958 107.431 307.751 108.054 307.483 108.773C307.239 109.492 306.96 110.186 306.644 110.857C306.329 111.527 306.026 112.089 305.735 112.544C305.469 112.975 305.264 113.19 305.12 113.189C304.904 113.188 304.736 113.139 304.617 113.042C304.497 112.97 304.366 112.885 304.222 112.788C304.079 112.691 303.911 112.619 303.719 112.57C303.528 112.497 303.264 112.459 302.928 112.458C302.664 112.456 302.364 112.503 302.027 112.597C301.715 112.667 301.366 112.762 300.982 112.88C300.549 112.973 300.057 113.067 299.504 113.16C298.952 113.277 298.339 113.334 297.667 113.33ZM314.914 113.023C314.746 113.022 314.591 112.986 314.447 112.913C314.304 112.816 314.244 112.684 314.269 112.516C314.342 112.3 314.475 112.133 314.668 112.014C314.86 111.895 315.101 111.812 315.389 111.766C316.35 111.579 317.071 111.33 317.553 111.021C318.058 110.711 318.433 110.173 318.677 109.407L323.472 94.1311C323.887 92.7412 324.084 91.8542 324.062 91.4701C324.04 91.086 323.825 90.8929 323.417 90.8908L321.725 90.882C320.885 90.8777 320.055 91.1014 319.237 91.5532C318.443 92.0052 317.756 92.5296 317.177 93.1267C317.008 93.3178 316.767 93.5685 316.453 93.8789C316.164 94.1655 315.862 94.4279 315.549 94.6663C315.236 94.9047 314.947 95.0232 314.683 95.0218C314.491 95.0209 314.371 94.9602 314.324 94.84C314.301 94.7199 314.301 94.5639 314.326 94.372C314.375 94.2522 314.436 94.1086 314.509 93.9409C314.606 93.7494 314.715 93.57 314.835 93.4026C315.536 92.5662 316.068 91.8129 316.431 91.1428C316.819 90.4488 317.171 89.6826 317.487 88.8442C317.585 88.5327 317.718 88.3054 317.886 88.1622C318.055 88.0191 318.248 87.9481 318.464 87.9492C318.704 87.9504 318.955 88.0597 319.218 88.2771C319.481 88.4705 319.72 88.6517 319.935 88.8208C320.151 88.9419 320.366 89.063 320.581 89.1841C320.797 89.3052 321.108 89.4028 321.516 89.4769C321.947 89.5512 322.559 89.5903 323.351 89.5944L333.323 89.6457C334.307 89.6508 335.075 89.6188 335.628 89.5496C336.18 89.4804 336.588 89.3986 336.853 89.3039C337.117 89.2093 337.298 89.1382 337.394 89.0907C337.851 88.925 338.224 88.723 338.513 88.4844C338.826 88.2221 339.127 88.0916 339.415 88.0931C339.727 88.0947 339.822 88.2752 339.7 88.6346C339.676 88.7544 339.639 88.8862 339.59 89.03C339.542 89.1498 339.481 89.2694 339.408 89.3891C338.973 90.1068 338.573 90.8488 338.209 91.6149C337.869 92.3812 337.565 93.2076 337.296 94.0943C337.174 94.4776 337.041 94.7769 336.896 94.9922C336.775 95.1836 336.606 95.2787 336.39 95.2776C336.15 95.2764 335.983 95.1795 335.888 94.987C335.817 94.7706 335.782 94.4345 335.785 93.9785C335.766 92.9944 335.566 92.2493 335.184 91.7434C334.803 91.2134 334.108 90.9458 333.1 90.9406L331.3 90.9313C330.94 90.9295 330.628 91.0119 330.363 91.1785C330.122 91.3213 329.893 91.6321 329.674 92.111C329.48 92.566 329.237 93.2247 328.944 94.0873L324.149 109.399C323.93 110.118 323.963 110.646 324.249 110.983C324.559 111.297 325.134 111.576 325.973 111.82C326.188 111.893 326.356 111.978 326.475 112.075C326.595 112.171 326.63 112.328 326.581 112.543C326.532 112.711 326.424 112.843 326.255 112.938C326.087 113.033 325.906 113.08 325.714 113.079C325.186 113.076 324.586 113.049 323.915 112.998C323.267 112.97 322.619 112.943 321.971 112.916C321.347 112.888 320.795 112.874 320.315 112.871C319.835 112.869 319.271 112.878 318.623 112.898C317.975 112.919 317.327 112.94 316.679 112.96C316.031 113.005 315.442 113.026 314.914 113.023ZM345.108 113.575C343.452 113.566 341.99 113.175 340.722 112.4C339.454 111.602 338.452 110.504 337.715 109.109C336.978 107.713 336.614 106.115 336.624 104.315C336.634 102.371 337.015 100.501 337.769 98.7048C338.546 96.8847 339.61 95.2582 340.962 93.8251C342.313 92.3921 343.891 91.2602 345.695 90.4295C347.5 89.5987 349.458 89.1888 351.57 89.1997C353.226 89.2082 354.688 89.6117 355.956 90.4103C357.248 91.1849 358.25 92.2701 358.963 93.6658C359.7 95.0616 360.063 96.6595 360.054 98.4595C360.044 100.379 359.651 102.249 358.873 104.069C358.12 105.89 357.055 107.516 355.68 108.949C354.329 110.382 352.751 111.514 350.947 112.345C349.142 113.176 347.196 113.585 345.108 113.575ZM345.115 112.207C346.147 112.212 347.145 111.869 348.109 111.178C349.096 110.463 350.001 109.52 350.823 108.348C351.669 107.176 352.408 105.884 353.039 104.471C353.671 103.035 354.158 101.609 354.501 100.195C354.868 98.7808 355.055 97.4737 355.061 96.2738C355.067 95.2418 354.94 94.2811 354.68 93.3918C354.445 92.5025 354.064 91.7926 353.539 91.2618C353.014 90.7071 352.331 90.4276 351.491 90.4233C350.459 90.418 349.462 90.7728 348.498 91.4879C347.534 92.2029 346.641 93.1584 345.819 94.3541C344.997 95.5259 344.27 96.8302 343.639 98.267C343.008 99.7037 342.508 101.141 342.141 102.579C341.797 104.018 341.623 105.337 341.616 106.537C341.611 107.545 341.726 108.481 341.962 109.346C342.197 110.212 342.566 110.91 343.067 111.44C343.593 111.947 344.275 112.202 345.115 112.207ZM357.742 113.244C357.574 113.243 357.442 113.206 357.346 113.134C357.227 113.037 357.191 112.905 357.24 112.737C357.362 112.354 357.687 112.103 358.216 111.986C359.201 111.799 359.886 111.563 360.272 111.277C360.681 110.967 361.008 110.429 361.252 109.662L366.412 93.3442C366.656 92.5534 366.683 92.0015 366.493 91.6885C366.302 91.3756 365.764 91.1088 364.877 90.8882C364.661 90.8391 364.505 90.7543 364.41 90.6338C364.315 90.4893 364.304 90.3213 364.377 90.1296C364.425 89.9619 364.534 89.8304 364.703 89.7353C364.895 89.6403 365.075 89.5932 365.243 89.5941C365.795 89.5969 366.359 89.6118 366.935 89.6388C367.535 89.6659 368.111 89.7049 368.663 89.7557C369.238 89.7827 369.766 89.7974 370.246 89.7999C370.726 89.8023 371.266 89.7931 371.867 89.7722C372.491 89.7514 373.127 89.7307 373.775 89.71C374.423 89.6894 374.999 89.6803 375.503 89.6829C375.935 89.6851 376.102 89.854 376.004 90.1895C375.931 90.4291 375.81 90.5965 375.642 90.6916C375.497 90.7869 375.281 90.8698 374.993 90.9403C374.296 91.1287 373.743 91.3179 373.334 91.5078C372.925 91.6977 372.611 91.9481 372.394 92.2589C372.2 92.5459 372.03 92.9291 371.884 93.4083L368.479 104.515C368.405 104.851 368.392 105.031 368.44 105.055C368.512 105.079 368.692 104.984 368.981 104.77L381.202 94.6443C381.322 94.5249 381.431 94.4055 381.527 94.286C381.624 94.1665 381.709 94.0229 381.782 93.8553L381.928 93.46C382.171 92.7653 382.198 92.2374 382.008 91.8764C381.842 91.5156 381.303 91.2128 380.393 90.9681C380.177 90.919 380.021 90.8342 379.926 90.7137C379.855 90.5693 379.843 90.4013 379.892 90.2095C379.941 90.0418 380.05 89.9103 380.218 89.8152C380.411 89.7202 380.603 89.6732 380.795 89.6742C381.323 89.6769 381.887 89.6918 382.487 89.7189C383.087 89.746 383.675 89.785 384.25 89.836C384.826 89.8629 385.354 89.8776 385.834 89.8801C386.314 89.8826 386.854 89.8734 387.454 89.8525C388.054 89.8315 388.667 89.8107 389.291 89.7899C389.939 89.7692 390.515 89.7602 391.019 89.7628C391.451 89.765 391.618 89.9339 391.52 90.2694C391.447 90.509 391.326 90.6764 391.158 90.7715C391.013 90.8668 390.797 90.9497 390.508 91.0202C389.811 91.2086 389.27 91.3978 388.885 91.5878C388.5 91.7779 388.199 92.0283 387.982 92.3392C387.788 92.6262 387.618 93.0093 387.472 93.4886L382.384 109.735C382.164 110.429 382.15 110.945 382.34 111.282C382.53 111.595 383.045 111.874 383.884 112.118C384.123 112.192 384.279 112.276 384.35 112.373C384.446 112.469 384.469 112.625 384.42 112.841C384.371 113.009 384.274 113.14 384.13 113.236C383.985 113.331 383.805 113.378 383.589 113.377C383.061 113.374 382.485 113.347 381.862 113.296C381.262 113.269 380.662 113.242 380.062 113.215C379.462 113.188 378.934 113.173 378.478 113.171C377.998 113.168 377.458 113.177 376.858 113.198C376.282 113.219 375.682 113.24 375.058 113.261C374.433 113.306 373.857 113.327 373.329 113.324C373.161 113.323 373.017 113.286 372.898 113.214C372.778 113.117 372.743 112.985 372.792 112.817C372.914 112.434 373.251 112.184 373.804 112.066C374.741 111.879 375.426 111.631 375.86 111.321C376.317 111.011 376.656 110.485 376.876 109.742L380.464 98.1326C380.512 98.0128 380.513 97.9288 380.465 97.8806C380.417 97.8323 380.345 97.844 380.249 97.9155L367.415 108.254C367.271 108.373 367.162 108.48 367.09 108.576C367.041 108.672 366.992 108.803 366.944 108.971L366.76 109.654C366.564 110.373 366.586 110.889 366.824 111.203C367.063 111.516 367.601 111.795 368.44 112.039C368.655 112.112 368.811 112.197 368.907 112.293C369.002 112.39 369.013 112.546 368.94 112.761C368.915 112.929 368.819 113.061 368.65 113.156C368.506 113.251 368.337 113.298 368.145 113.297C367.617 113.295 367.042 113.268 366.418 113.216C365.794 113.189 365.17 113.162 364.546 113.135C363.946 113.108 363.406 113.093 362.926 113.09C362.446 113.088 361.906 113.097 361.306 113.118C360.73 113.139 360.13 113.16 359.506 113.181C358.882 113.226 358.294 113.247 357.742 113.244ZM378.678 88.2952C377.166 88.2875 375.968 87.9093 375.084 87.1607C374.224 86.4123 373.796 85.5221 373.802 84.4901C373.806 83.7461 374.061 83.0994 374.568 82.55C375.099 81.9767 375.736 81.692 376.48 81.6958C376.984 81.6984 377.38 81.8325 377.666 82.0979C377.953 82.3394 378.095 82.6642 378.093 83.0722C378.092 83.3602 378.042 83.6359 377.945 83.8994C377.872 84.139 377.786 84.3666 377.689 84.5821C377.592 84.7976 377.543 85.0134 377.542 85.2294C377.54 85.5413 377.683 85.8181 377.97 86.0596C378.257 86.301 378.736 86.4235 379.408 86.427C380.512 86.4327 381.473 86.1616 382.292 85.6138C383.135 85.0661 383.811 84.2296 384.321 83.1042C384.515 82.7452 384.66 82.518 384.757 82.4225C384.853 82.303 384.997 82.2437 385.189 82.2447C385.453 82.246 385.585 82.4267 385.583 82.7867C385.58 83.2907 385.421 83.8659 385.106 84.5123C384.791 85.1347 384.332 85.7323 383.729 86.3052C383.126 86.8781 382.403 87.3544 381.561 87.7341C380.719 88.1137 379.758 88.3008 378.678 88.2952Z" fill="#231F20"/>
<path d="M33.068 188.174C32.9 188.174 32.7563 188.125 32.6368 188.028C32.5413 187.932 32.5059 187.8 32.5308 187.632C32.6528 187.248 32.9901 186.998 33.5427 186.881C34.5038 186.67 35.2131 186.421 35.6705 186.136C36.1521 185.826 36.4909 185.3 36.6867 184.557L36.8697 183.982L37.8756 184.383C35.7875 184.396 34.097 184.1 32.8041 183.493C31.5112 182.886 30.5553 182.089 29.9364 181.102C29.3415 180.115 29.047 179.046 29.0529 177.894C29.0594 176.622 29.3658 175.387 29.972 174.19C30.6023 172.97 31.4959 171.87 32.653 170.892C33.8102 169.89 35.1702 169.105 36.7332 168.537C38.3202 167.945 40.0738 167.642 41.9939 167.628C42.0668 167.461 42.1278 167.269 42.1769 167.053C42.226 166.837 42.2509 166.669 42.2515 166.549C42.2536 166.141 42.1111 165.841 41.8241 165.647C41.5612 165.43 41.0942 165.235 40.4231 165.064C40.2074 165.015 40.0518 164.93 39.9564 164.81C39.8851 164.665 39.8741 164.485 39.9232 164.269C39.9719 164.126 40.0805 164.006 40.249 163.911C40.4415 163.816 40.6218 163.769 40.7898 163.77C41.3418 163.773 41.9177 163.788 42.5176 163.815C43.1174 163.842 43.7052 163.881 44.281 163.932C44.8568 163.959 45.3848 163.974 45.8648 163.976C46.3448 163.979 46.8968 163.969 47.5209 163.949C48.1451 163.928 48.7812 163.907 49.4293 163.886C50.0774 163.866 50.6535 163.857 51.1574 163.859C51.5894 163.862 51.7566 164.03 51.6588 164.366C51.5856 164.606 51.4647 164.773 51.2963 164.868C51.1518 164.963 50.9353 165.046 50.647 165.117C49.5895 165.399 48.8559 165.707 48.4462 166.041C48.0366 166.351 47.674 166.853 47.3584 167.548C50.0936 167.706 52.0702 168.376 53.2881 169.558C54.5302 170.717 55.1469 172.124 55.1384 173.78C55.1306 175.292 54.7634 176.706 54.0366 178.022C53.3338 179.339 52.3199 180.485 50.9948 181.463C49.6939 182.416 48.142 183.164 46.3392 183.707C44.5364 184.249 42.543 184.503 40.3592 184.468L42.3416 184.01C42.2925 184.226 42.2312 184.466 42.1579 184.729C42.0846 184.969 42.0476 185.173 42.0467 185.341C42.0446 185.749 42.175 186.061 42.4379 186.279C42.7249 186.472 43.2038 186.691 43.8745 186.934C44.0902 187.007 44.2457 187.092 44.3412 187.189C44.4367 187.285 44.4479 187.441 44.3748 187.657C44.326 187.824 44.2293 187.956 44.0848 188.051C43.9403 188.146 43.7601 188.194 43.5441 188.192C43.0401 188.19 42.4641 188.175 41.8163 188.148C41.1924 188.12 40.5805 188.093 39.9807 188.066C39.3808 188.039 38.8409 188.024 38.3609 188.022C37.6169 188.018 36.7528 188.037 35.7685 188.08C34.7842 188.147 33.884 188.179 33.068 188.174ZM37.4167 182.617L41.6993 168.923C40.6185 169.061 39.6086 169.428 38.6695 170.023C37.7545 170.618 36.9466 171.358 36.2461 172.243C35.5695 173.127 35.0366 174.072 34.6475 175.078C34.2583 176.084 34.0612 177.079 34.0561 178.063C34.0503 179.191 34.3692 180.177 35.0129 181.02C35.6807 181.84 36.4819 182.372 37.4167 182.617ZM42.4559 182.787C43.6084 182.697 44.6421 182.366 45.557 181.795C46.472 181.223 47.2438 180.483 47.8725 179.575C48.5252 178.666 49.0222 177.684 49.3637 176.63C49.7051 175.576 49.8784 174.557 49.8834 173.573C49.8891 172.469 49.6542 171.484 49.1786 170.617C48.7271 169.751 47.9499 169.207 46.847 168.985L42.4559 182.787ZM56.4972 189.231C55.8732 189.228 55.3344 188.985 54.8809 188.503C54.4274 188.02 54.2022 187.479 54.2053 186.879C54.2085 186.255 54.3675 185.68 54.6822 185.154C55.021 184.603 55.4553 184.162 55.985 183.828C56.5147 183.495 57.0916 183.33 57.7156 183.333C58.5076 183.337 59.1061 183.616 59.5113 184.171C59.9164 184.725 60.1175 185.302 60.1144 185.902C60.1114 186.478 59.9526 187.029 59.6379 187.555C59.3233 188.058 58.8892 188.463 58.3356 188.773C57.782 189.082 57.1692 189.235 56.4972 189.231ZM76.6447 188.759C76.5247 188.758 76.4051 188.686 76.2858 188.541C76.1906 188.397 76.1436 188.192 76.145 187.928C76.1593 185.144 76.1013 182.42 75.9711 179.755C75.8648 177.091 75.7346 174.402 75.5806 171.689C75.5581 171.401 75.4506 171.292 75.2583 171.363C75.0899 171.435 74.9329 171.626 74.7873 171.937C73.9144 173.661 73.0775 175.384 72.2766 177.108C71.4997 178.832 70.7828 180.569 70.1258 182.317C69.7606 183.323 69.5403 184.162 69.4648 184.834C69.3895 185.481 69.4589 185.986 69.673 186.347C69.8873 186.684 70.2341 186.914 70.7135 187.036C70.9292 187.085 71.1328 187.17 71.3242 187.291C71.5157 187.388 71.5748 187.557 71.5016 187.796C71.4527 187.964 71.3081 188.095 71.0676 188.19C70.8512 188.261 70.635 188.296 70.419 188.295C69.795 188.292 69.2911 188.277 68.9072 188.251C68.5473 188.225 68.2234 188.211 67.9354 188.21C67.6475 188.185 67.2396 188.17 66.7116 188.168C66.1836 188.165 65.6316 188.174 65.0555 188.195C64.5033 188.216 64.0112 188.238 63.5791 188.26C63.1469 188.305 62.8707 188.328 62.7507 188.327C62.1748 188.324 61.9357 188.143 62.0335 187.784C62.1065 187.592 62.2632 187.461 62.5036 187.39C62.7439 187.319 62.9964 187.237 63.2609 187.142C63.8618 186.953 64.391 186.728 64.8484 186.466C65.3297 186.205 65.8119 185.775 66.295 185.178C66.7781 184.58 67.3107 183.695 67.8927 182.522L74.0402 170.205C74.5009 169.296 74.7447 168.565 74.7715 168.013C74.8223 167.461 74.6086 167.016 74.1304 166.678C73.6522 166.315 72.8498 166.011 71.723 165.765C71.4114 165.692 71.1718 165.618 71.0042 165.545C70.8365 165.473 70.7533 165.316 70.7546 165.076C70.7558 164.836 70.9005 164.693 71.1888 164.646C71.4772 164.576 71.7653 164.541 72.0533 164.543C72.5333 164.545 73.2053 164.561 74.0691 164.589C74.933 164.618 75.8088 164.658 76.6965 164.711C77.6084 164.739 78.3643 164.755 78.9643 164.758C79.5643 164.762 79.9474 164.944 80.1135 165.304C80.3038 165.641 80.3856 166.074 80.3588 166.602C80.3321 167.13 80.3172 167.693 80.3141 168.293L80.7555 180.464C80.7781 180.728 80.8493 180.884 80.9691 180.933C81.1128 180.982 81.2933 180.887 81.5105 180.648C82.8374 179.311 84.1288 177.877 85.3847 176.348C86.6647 174.794 87.8606 173.264 88.9724 171.758C90.1082 170.252 91.1111 168.901 91.9813 167.706C92.2959 167.203 92.5741 166.773 92.816 166.414C93.0579 166.031 93.2757 165.696 93.4692 165.409C93.6628 165.098 93.9156 164.943 94.2276 164.945L95.9195 164.954C96.5435 164.957 97.1556 164.936 97.7559 164.891C98.3801 164.846 98.9564 164.801 99.4846 164.756C100.037 164.711 100.505 164.689 100.889 164.691C101.153 164.693 101.369 164.73 101.536 164.803C101.704 164.876 101.787 165.008 101.786 165.2C101.785 165.416 101.628 165.607 101.315 165.774C101.003 165.94 100.534 166.106 99.9088 166.27C99.3082 166.387 98.8152 166.577 98.4299 166.839C98.0445 167.101 97.7307 167.447 97.4885 167.878C97.2463 168.309 97.0276 168.836 96.8324 169.459C96.1718 171.903 95.547 174.384 94.958 176.901C94.369 179.418 93.8161 181.935 93.2991 184.453C93.1272 185.22 93.2081 185.82 93.5418 186.254C93.8996 186.688 94.4141 186.99 95.0852 187.162C95.3008 187.235 95.4684 187.32 95.5879 187.416C95.7314 187.513 95.7665 187.681 95.6933 187.921C95.6685 188.065 95.5599 188.184 95.3674 188.279C95.1989 188.374 95.0067 188.421 94.7907 188.42C94.2867 188.418 93.6868 188.403 92.9909 188.375C92.319 188.348 91.6472 188.32 90.9753 188.293C90.3276 188.241 89.7637 188.214 89.2837 188.212C88.7797 188.209 88.2276 188.23 87.6273 188.275C87.0512 188.296 86.4511 188.317 85.827 188.338C85.2268 188.383 84.6506 188.404 84.0986 188.401C83.9067 188.4 83.7389 188.351 83.5954 188.255C83.4759 188.158 83.4285 188.038 83.4533 187.894C83.5264 187.678 83.6592 187.511 83.8518 187.392C84.0446 187.249 84.2731 187.154 84.5373 187.107C85.4985 186.872 86.1839 186.612 86.5934 186.326C87.027 186.016 87.3536 185.502 87.5733 184.783C88.0367 183.345 88.4519 181.956 88.8188 180.613C89.1857 179.271 89.5406 177.929 89.8836 176.587C90.2265 175.245 90.5695 173.878 90.9127 172.488C90.9613 172.368 90.9376 172.308 90.8416 172.308C90.7696 172.307 90.6612 172.391 90.5163 172.558L81.2094 183.202L77.5844 188.044C77.4635 188.211 77.3067 188.366 77.114 188.509C76.9451 188.676 76.7887 188.76 76.6447 188.759ZM101.708 189.464C101.084 189.461 100.545 189.218 100.091 188.736C99.6377 188.253 99.4125 187.712 99.4156 187.112C99.4188 186.488 99.5778 185.913 99.8925 185.386C100.231 184.836 100.666 184.394 101.195 184.061C101.725 183.728 102.302 183.563 102.926 183.566C103.718 183.57 104.316 183.849 104.722 184.403C105.127 184.957 105.328 185.534 105.325 186.134C105.322 186.71 105.163 187.262 104.848 187.788C104.534 188.29 104.1 188.696 103.546 189.005C102.992 189.315 102.38 189.467 101.708 189.464ZM117.703 196.494C117.391 196.493 117.163 196.36 117.021 196.095C116.854 195.83 116.844 195.434 116.991 194.907C117.187 194.068 117.372 193.157 117.545 192.173C117.694 191.19 117.831 190.279 117.955 189.44C118.055 188.6 118.155 187.989 118.253 187.605C118.277 187.437 118.362 187.306 118.507 187.21C118.651 187.115 118.831 187.056 119.048 187.033C120.056 186.966 120.969 186.695 121.788 186.219C122.63 185.72 123.462 185.004 124.283 184.072C124.718 183.546 125.177 182.913 125.661 182.171C126.145 181.406 126.629 180.544 127.114 179.587C127.623 178.629 128.132 177.576 128.642 176.426C129.152 175.277 129.638 174.056 130.101 172.762C130.564 171.468 131.027 170.115 131.49 168.701C131.71 167.958 131.593 167.429 131.138 167.115C130.684 166.777 129.905 166.485 128.803 166.239C128.563 166.19 128.395 166.105 128.3 165.985C128.229 165.84 128.23 165.672 128.303 165.481C128.327 165.313 128.424 165.181 128.593 165.086C128.785 164.991 128.965 164.944 129.133 164.945C129.685 164.948 130.273 164.963 130.897 164.99C131.545 165.017 132.181 165.056 132.805 165.108C133.428 165.135 133.98 165.15 134.46 165.152L143.064 165.197C143.544 165.199 144.084 165.19 144.684 165.169C145.309 165.148 145.933 165.127 146.557 165.106C147.205 165.086 147.793 165.077 148.321 165.08C148.729 165.082 148.884 165.25 148.786 165.586C148.737 165.826 148.628 165.993 148.46 166.088C148.291 166.183 148.075 166.266 147.81 166.337C147.113 166.525 146.561 166.715 146.152 166.904C145.767 167.094 145.465 167.333 145.248 167.62C145.03 167.907 144.848 168.302 144.702 168.805L139.578 185.123C139.407 185.722 139.392 186.19 139.534 186.527C139.701 186.863 139.963 187.105 140.323 187.251C140.706 187.373 141.102 187.459 141.509 187.509C141.725 187.51 141.857 187.571 141.904 187.691C141.976 187.787 141.999 187.907 141.975 188.051C141.901 188.315 141.683 188.806 141.319 189.524C140.955 190.266 140.555 191.116 140.118 192.074C139.681 193.055 139.304 194.026 138.987 194.984C138.792 195.535 138.55 195.942 138.261 196.204C137.995 196.467 137.707 196.597 137.395 196.596C137.107 196.594 136.915 196.449 136.821 196.161C136.726 195.872 136.728 195.536 136.826 195.153C136.997 194.506 137.145 193.882 137.268 193.283C137.415 192.708 137.501 192.168 137.528 191.664C137.579 191.161 137.545 190.728 137.427 190.368C137.332 190.007 137.142 189.718 136.855 189.501C136.568 189.307 136.161 189.209 135.633 189.207L123.825 189.146C122.961 189.141 122.24 189.378 121.661 189.855C121.106 190.356 120.623 191.037 120.21 191.899C119.822 192.785 119.445 193.827 119.078 195.025C118.98 195.433 118.798 195.78 118.533 196.067C118.268 196.353 117.991 196.496 117.703 196.494ZM124.841 187.603L131.392 187.781C132.112 187.784 132.653 187.643 133.014 187.357C133.4 187.047 133.678 186.592 133.849 185.993L139.268 168.345C139.463 167.746 139.501 167.302 139.383 167.014C139.288 166.725 138.881 166.579 138.161 166.575L135.461 166.561C134.885 166.558 134.452 166.688 134.163 166.951C133.898 167.189 133.692 167.548 133.546 168.028C133.008 169.873 132.423 171.622 131.791 173.275C131.182 174.927 130.55 176.46 129.895 177.873C129.264 179.286 128.633 180.566 128.003 181.715C127.373 182.864 126.768 183.881 126.187 184.766C125.607 185.627 125.075 186.332 124.592 186.882C124.423 187.073 124.375 187.241 124.446 187.385C124.541 187.529 124.673 187.602 124.841 187.603ZM155.445 189.165C153.789 189.156 152.327 188.765 151.059 187.99C149.791 187.191 148.789 186.094 148.052 184.698C147.315 183.303 146.951 181.705 146.961 179.905C146.971 177.961 147.352 176.091 148.106 174.295C148.883 172.475 149.947 170.848 151.299 169.415C152.65 167.982 154.228 166.85 156.032 166.019C157.837 165.189 159.795 164.779 161.907 164.79C163.563 164.798 165.025 165.202 166.293 166C167.585 166.775 168.587 167.86 169.3 169.256C170.037 170.651 170.4 172.249 170.391 174.049C170.381 175.969 169.988 177.839 169.21 179.659C168.457 181.479 167.392 183.106 166.017 184.539C164.666 185.972 163.088 187.104 161.284 187.935C159.479 188.765 157.533 189.175 155.445 189.165ZM155.452 187.797C156.484 187.802 157.482 187.459 158.446 186.768C159.433 186.053 160.338 185.11 161.16 183.938C162.006 182.766 162.745 181.474 163.376 180.061C164.008 178.625 164.495 177.199 164.838 175.785C165.205 174.371 165.392 173.064 165.398 171.864C165.404 170.832 165.277 169.871 165.017 168.982C164.782 168.092 164.401 167.382 163.876 166.852C163.351 166.297 162.668 166.017 161.828 166.013C160.796 166.008 159.799 166.363 158.835 167.078C157.871 167.793 156.978 168.748 156.156 169.944C155.334 171.116 154.607 172.42 153.976 173.857C153.345 175.294 152.845 176.731 152.478 178.169C152.134 179.607 151.96 180.927 151.953 182.126C151.948 183.134 152.063 184.071 152.299 184.936C152.534 185.802 152.903 186.499 153.404 187.03C153.929 187.537 154.612 187.792 155.452 187.797ZM181.796 189.3C180.524 189.294 179.325 189.048 178.2 188.562C177.098 188.076 176.118 187.411 175.258 186.567C174.423 185.698 173.768 184.687 173.294 183.532C172.844 182.378 172.622 181.105 172.629 179.713C172.641 177.553 173.071 175.575 173.92 173.779C174.769 171.984 175.929 170.43 177.4 169.117C178.895 167.781 180.604 166.746 182.528 166.012C184.476 165.278 186.566 164.916 188.798 164.928C189.614 164.932 190.345 165.008 190.993 165.155C191.64 165.303 192.215 165.474 192.718 165.668C193.173 165.815 193.533 165.936 193.796 166.034C194.084 166.107 194.372 166.145 194.66 166.146C194.828 166.147 194.972 166.136 195.092 166.112C195.236 166.089 195.392 166.03 195.561 165.935C195.753 165.816 195.934 165.733 196.102 165.686C196.27 165.614 196.439 165.579 196.607 165.58C196.847 165.581 196.99 165.654 197.037 165.798C197.085 165.943 197.036 166.134 196.89 166.374C196.576 166.78 196.237 167.342 195.874 168.06C195.51 168.779 195.182 169.521 194.89 170.287C194.598 171.054 194.355 171.749 194.16 172.372C194.11 172.587 194.013 172.779 193.869 172.946C193.748 173.09 193.567 173.161 193.327 173.159C193.111 173.158 192.956 173.001 192.862 172.689C192.768 172.353 192.734 171.944 192.76 171.464C192.811 170.937 192.766 170.396 192.625 169.844C192.507 169.291 192.294 168.786 191.984 168.328C191.604 167.702 191.126 167.196 190.552 166.809C189.978 166.422 189.367 166.227 188.719 166.224C187.495 166.217 186.341 166.535 185.258 167.178C184.175 167.82 183.198 168.691 182.329 169.791C181.459 170.866 180.709 172.086 180.078 173.451C179.471 174.816 178.995 176.254 178.652 177.764C178.308 179.25 178.133 180.689 178.125 182.081C178.12 183.065 178.236 183.93 178.472 184.675C178.708 185.396 179.041 185.998 179.471 186.48C179.9 186.962 180.426 187.325 181.049 187.568C181.672 187.788 182.367 187.899 183.135 187.903C184.119 187.908 185.044 187.709 185.911 187.305C186.801 186.878 187.644 186.282 188.44 185.518C189.26 184.755 190.044 183.871 190.793 182.866C190.987 182.603 191.144 182.388 191.265 182.221C191.41 182.03 191.566 181.934 191.734 181.935C191.902 181.936 192.046 182.033 192.165 182.226C192.284 182.394 192.307 182.61 192.233 182.874C192.087 183.401 191.88 184.024 191.612 184.743C191.368 185.461 191.089 186.156 190.773 186.826C190.458 187.497 190.155 188.059 189.864 188.514C189.598 188.944 189.393 189.159 189.249 189.159C189.033 189.158 188.865 189.109 188.746 189.012C188.626 188.939 188.495 188.855 188.351 188.758C188.208 188.661 188.04 188.588 187.848 188.539C187.657 188.466 187.393 188.429 187.057 188.427C186.793 188.426 186.493 188.472 186.156 188.567C185.844 188.637 185.495 188.731 185.111 188.849C184.678 188.943 184.186 189.037 183.633 189.13C183.081 189.247 182.468 189.304 181.796 189.3ZM199.043 188.993C198.875 188.992 198.72 188.955 198.576 188.883C198.432 188.786 198.373 188.654 198.398 188.486C198.471 188.27 198.604 188.103 198.797 187.984C198.989 187.865 199.23 187.782 199.518 187.735C200.479 187.548 201.2 187.3 201.682 186.991C202.187 186.681 202.562 186.143 202.806 185.376L207.601 170.101C208.016 168.711 208.213 167.824 208.191 167.44C208.169 167.056 207.954 166.863 207.546 166.861L205.854 166.852C205.014 166.847 204.184 167.071 203.366 167.523C202.572 167.975 201.885 168.499 201.306 169.096C201.137 169.288 200.896 169.538 200.582 169.849C200.293 170.135 199.991 170.398 199.678 170.636C199.365 170.874 199.076 170.993 198.812 170.992C198.62 170.991 198.5 170.93 198.453 170.81C198.43 170.69 198.43 170.534 198.455 170.342C198.504 170.222 198.565 170.078 198.638 169.911C198.735 169.719 198.844 169.54 198.964 169.372C199.665 168.536 200.197 167.783 200.56 167.113C200.948 166.419 201.3 165.652 201.616 164.814C201.714 164.502 201.847 164.275 202.015 164.132C202.184 163.989 202.377 163.918 202.593 163.919C202.833 163.92 203.084 164.03 203.347 164.247C203.61 164.44 203.849 164.621 204.064 164.791C204.279 164.912 204.495 165.033 204.71 165.154C204.926 165.275 205.237 165.373 205.645 165.447C206.076 165.521 206.688 165.56 207.48 165.564L217.452 165.616C218.436 165.621 219.204 165.589 219.757 165.519C220.309 165.45 220.717 165.368 220.982 165.274C221.246 165.179 221.427 165.108 221.523 165.06C221.98 164.895 222.353 164.693 222.642 164.454C222.955 164.192 223.256 164.061 223.544 164.063C223.856 164.064 223.951 164.245 223.829 164.604C223.805 164.724 223.768 164.856 223.719 165C223.671 165.12 223.61 165.239 223.537 165.359C223.102 166.077 222.702 166.819 222.338 167.585C221.998 168.351 221.694 169.177 221.425 170.064C221.303 170.447 221.17 170.747 221.025 170.962C220.904 171.153 220.735 171.248 220.519 171.247C220.279 171.246 220.112 171.149 220.017 170.957C219.946 170.74 219.911 170.404 219.914 169.948C219.895 168.964 219.695 168.219 219.313 167.713C218.932 167.183 218.237 166.916 217.229 166.91L215.429 166.901C215.069 166.899 214.757 166.982 214.492 167.148C214.251 167.291 214.022 167.602 213.803 168.081C213.609 168.536 213.366 169.195 213.073 170.057L208.278 185.369C208.059 186.087 208.092 186.616 208.378 186.953C208.688 187.267 209.263 187.546 210.102 187.79C210.317 187.863 210.485 187.948 210.604 188.045C210.724 188.141 210.759 188.297 210.71 188.513C210.661 188.681 210.553 188.812 210.384 188.907C210.216 189.003 210.035 189.05 209.843 189.049C209.315 189.046 208.715 189.019 208.044 188.967C207.396 188.94 206.748 188.913 206.1 188.885C205.476 188.858 204.924 188.843 204.444 188.841C203.964 188.838 203.4 188.847 202.752 188.868C202.104 188.889 201.456 188.909 200.808 188.93C200.16 188.975 199.571 188.996 199.043 188.993ZM213.907 189.142C213.619 189.14 213.403 189.091 213.26 188.994C213.116 188.921 213.057 188.777 213.082 188.561C213.131 188.322 213.252 188.142 213.445 188.023C213.613 187.904 213.842 187.821 214.13 187.775C214.587 187.657 215.115 187.504 215.716 187.315C216.317 187.102 216.895 186.841 217.448 186.532C218.026 186.199 218.508 185.817 218.894 185.387C220.487 183.619 222.045 181.863 223.566 180.119C225.087 178.375 226.608 176.631 228.129 174.887C229.65 173.142 231.171 171.398 232.692 169.654C233.126 169.176 233.476 168.71 233.743 168.255C234.033 167.777 234.275 167.382 234.469 167.071C234.686 166.76 234.855 166.605 234.975 166.606C235.575 166.609 236.152 166.552 236.704 166.435C237.257 166.317 237.738 166.128 238.147 165.866C238.556 165.628 238.917 165.402 239.231 165.188C239.544 164.973 239.82 164.867 240.06 164.868C240.276 164.869 240.407 165.086 240.453 165.518C240.499 165.95 240.46 166.454 240.337 167.029L236.681 184.975C236.508 185.79 236.589 186.426 236.923 186.884C237.281 187.318 237.891 187.669 238.753 187.937C239.041 188.011 239.269 188.096 239.436 188.193C239.628 188.266 239.723 188.422 239.722 188.662C239.721 188.83 239.588 188.962 239.324 189.056C239.059 189.151 238.819 189.198 238.603 189.197C238.123 189.194 237.559 189.167 236.911 189.116C236.264 189.089 235.604 189.061 234.932 189.034C234.26 189.006 233.66 188.991 233.132 188.989C232.652 188.986 232.088 188.995 231.44 189.016C230.792 189.037 230.132 189.057 229.459 189.078C228.811 189.098 228.247 189.107 227.767 189.105C227.263 189.102 227.036 188.933 227.086 188.597C227.087 188.381 227.184 188.214 227.377 188.095C227.569 187.952 227.798 187.857 228.062 187.81C228.663 187.694 229.155 187.552 229.54 187.386C229.925 187.196 230.238 186.958 230.48 186.671C230.745 186.36 230.94 185.953 231.062 185.45L232.165 181.099C232.214 180.884 232.179 180.716 232.059 180.595C231.964 180.474 231.808 180.414 231.592 180.413L226.12 180.384C225.904 180.383 225.712 180.454 225.543 180.597C225.374 180.717 225.218 180.86 225.073 181.027L222.572 184.218C221.993 184.935 221.642 185.533 221.519 186.013C221.397 186.492 221.479 186.877 221.765 187.166C222.076 187.432 222.531 187.638 223.13 187.785C223.346 187.834 223.549 187.931 223.741 188.076C223.932 188.197 224.027 188.366 224.026 188.582C224.001 188.75 223.868 188.881 223.628 188.976C223.412 189.047 223.159 189.081 222.871 189.08C222.175 189.076 221.48 189.049 220.784 188.997C220.112 188.97 219.428 188.954 218.732 188.95C218.012 188.947 217.208 188.979 216.319 189.046C215.431 189.113 214.627 189.145 213.907 189.142ZM227.785 178.773L232.104 178.795C232.296 178.796 232.441 178.761 232.537 178.689C232.657 178.618 232.73 178.486 232.755 178.294L234.524 170.419C234.572 170.252 234.597 170.108 234.598 169.988C234.599 169.844 234.551 169.772 234.455 169.771C234.431 169.771 234.359 169.795 234.239 169.842C234.142 169.89 234.058 169.961 233.985 170.057L227.356 178.087C227.139 178.326 227.042 178.505 227.065 178.625C227.113 178.721 227.353 178.771 227.785 178.773ZM240.56 189.279C240.32 189.278 240.164 189.217 240.093 189.096C239.998 189 239.962 188.88 239.987 188.736C240.061 188.376 240.398 188.126 240.999 187.985C241.912 187.75 242.585 187.501 243.019 187.239C243.452 186.954 243.791 186.427 244.035 185.661L249.159 169.307C249.427 168.492 249.442 167.928 249.204 167.615C248.989 167.278 248.475 167.023 247.66 166.851C247.372 166.778 247.181 166.681 247.085 166.56C246.99 166.416 246.955 166.259 246.98 166.092C247.028 165.948 247.173 165.829 247.413 165.734C247.654 165.615 248.014 165.557 248.494 165.559C248.806 165.561 249.214 165.587 249.718 165.638C250.246 165.664 250.798 165.703 251.373 165.754C251.973 165.781 252.513 165.796 252.993 165.799L258.933 165.793C260.013 165.799 260.877 165.767 261.526 165.698C262.198 165.606 262.715 165.537 263.075 165.49C263.435 165.42 263.675 165.385 263.795 165.386C263.963 165.387 264.107 165.448 264.226 165.568C264.37 165.689 264.441 165.869 264.44 166.109C264.438 166.397 264.352 166.805 264.181 167.332C264.035 167.859 263.876 168.423 263.705 169.022C263.558 169.621 263.471 170.185 263.444 170.712C263.443 170.952 263.37 171.132 263.225 171.251C263.105 171.371 262.984 171.43 262.864 171.429C262.768 171.429 262.661 171.38 262.541 171.284C262.446 171.163 262.375 170.995 262.328 170.779C262.215 169.434 261.991 168.485 261.658 167.931C261.349 167.354 260.739 167.062 259.827 167.058L257.019 167.043C256.419 167.04 255.926 167.218 255.54 167.576C255.178 167.91 254.839 168.592 254.521 169.622L252.763 175.517C252.665 175.853 252.664 176.093 252.759 176.237C252.879 176.358 253.094 176.419 253.406 176.421L256.682 176.438C257.307 176.417 257.836 176.228 258.269 175.87C258.727 175.488 259.138 174.986 259.501 174.364C259.622 174.149 259.779 173.982 259.972 173.863C260.188 173.72 260.369 173.649 260.513 173.649C260.657 173.65 260.752 173.735 260.8 173.903C260.847 174.047 260.81 174.251 260.688 174.514C260.47 175.017 260.263 175.508 260.069 175.987C259.874 176.442 259.716 176.897 259.594 177.353C259.447 177.808 259.313 178.275 259.191 178.755C259.068 179.21 258.946 179.713 258.823 180.265C258.725 180.576 258.616 180.816 258.495 180.983C258.398 181.151 258.29 181.234 258.17 181.233C258.002 181.232 257.858 181.136 257.739 180.943C257.62 180.751 257.573 180.546 257.598 180.33C257.626 179.563 257.557 178.974 257.391 178.565C257.226 178.132 256.915 177.915 256.459 177.913L252.859 177.894C252.571 177.892 252.318 177.963 252.102 178.106C251.909 178.225 251.776 178.44 251.702 178.752L249.834 185.042C249.565 186.001 249.561 186.709 249.823 187.166C250.109 187.624 250.72 187.855 251.656 187.86L254.787 187.876C255.291 187.879 255.784 187.797 256.265 187.632C256.77 187.466 257.239 187.241 257.672 186.955C258.154 186.645 258.612 186.18 259.047 185.558C259.483 184.912 259.918 184.266 260.353 183.621C260.474 183.453 260.571 183.334 260.643 183.262C260.74 183.191 260.86 183.155 261.004 183.156C261.148 183.157 261.244 183.229 261.291 183.373C261.338 183.494 261.361 183.698 261.36 183.986C261.358 184.226 261.26 184.657 261.065 185.28C260.87 185.879 260.615 186.514 260.299 187.184C260.008 187.855 259.705 188.417 259.39 188.872C259.27 189.039 259.113 189.158 258.921 189.229C258.752 189.3 258.56 189.335 258.344 189.334C258.08 189.333 257.6 189.319 256.904 189.291C256.232 189.287 255.428 189.271 254.492 189.243C253.556 189.238 252.561 189.221 251.505 189.191C250.473 189.186 249.441 189.169 248.409 189.139C247.377 189.134 246.441 189.129 245.601 189.125C245.097 189.122 244.545 189.131 243.945 189.152C243.345 189.173 242.757 189.194 242.18 189.215C241.604 189.26 241.064 189.281 240.56 189.279ZM261.629 189.387C261.221 189.385 261.017 189.24 261.019 188.952C261.02 188.784 261.128 188.629 261.345 188.486C261.538 188.319 261.779 188.188 262.067 188.094C262.956 187.858 263.606 187.609 264.015 187.348C264.449 187.062 264.799 186.536 265.067 185.769L270.227 169.415C270.496 168.625 270.498 168.073 270.236 167.759C269.998 167.422 269.519 167.156 268.8 166.96C268.56 166.911 268.393 166.838 268.297 166.741C268.202 166.645 268.154 166.537 268.155 166.417C268.156 166.201 268.253 166.033 268.445 165.914C268.662 165.771 268.903 165.7 269.167 165.702C269.887 165.705 270.474 165.733 270.93 165.783C271.386 165.833 271.83 165.883 272.261 165.934C272.693 165.96 273.197 165.975 273.773 165.977C274.301 165.98 274.805 165.959 275.286 165.913C275.766 165.868 276.282 165.834 276.834 165.813C277.386 165.768 278.046 165.747 278.814 165.751C280.302 165.759 281.549 165.946 282.556 166.311C283.562 166.676 284.327 167.208 284.851 167.907C285.376 168.581 285.636 169.411 285.631 170.395C285.627 171.115 285.431 171.798 285.044 172.444C284.681 173.09 284.186 173.663 283.559 174.164C282.933 174.665 282.222 175.093 281.429 175.449C280.659 175.781 279.854 176.029 279.013 176.193C278.893 176.216 278.82 176.276 278.796 176.371C278.771 176.443 278.807 176.504 278.903 176.552C280.292 177.039 281.417 177.729 282.276 178.621C283.136 179.514 283.561 180.716 283.554 182.228C283.547 183.548 283.241 184.674 282.636 185.607C282.032 186.516 281.176 187.256 280.069 187.826C278.986 188.397 277.748 188.81 276.354 189.067C274.961 189.3 273.461 189.412 271.853 189.404C270.917 189.399 270.041 189.359 269.225 189.282C268.433 189.23 267.594 189.202 266.706 189.197C266.226 189.195 265.686 189.204 265.085 189.225C264.485 189.27 263.885 189.303 263.285 189.324C262.709 189.369 262.157 189.39 261.629 189.387ZM272.218 188.254C272.963 188.162 273.684 187.901 274.383 187.473C275.081 187.021 275.696 186.46 276.227 185.79C276.783 185.097 277.219 184.355 277.535 183.565C277.875 182.775 278.047 181.972 278.051 181.156C278.057 180.076 277.761 179.174 277.165 178.451C276.593 177.728 275.743 177.364 274.615 177.358C274.111 177.355 273.738 177.413 273.498 177.532C273.257 177.651 273.076 177.866 272.954 178.177L270.612 185.617C270.539 185.905 270.501 186.217 270.499 186.553C270.498 186.889 270.556 187.165 270.675 187.382C270.818 187.575 271.021 187.768 271.284 187.961C271.547 188.154 271.859 188.252 272.218 188.254ZM274.873 176.171C275.425 176.174 275.917 176.117 276.35 175.999C276.806 175.857 277.263 175.704 277.72 175.538C278.563 174.942 279.287 174.178 279.892 173.245C280.521 172.312 280.838 171.234 280.845 170.01C280.849 169.17 280.577 168.425 280.028 167.774C279.504 167.099 278.821 166.759 277.981 166.755C277.453 166.752 277.045 166.846 276.756 167.037C276.491 167.204 276.285 167.502 276.139 167.934L273.905 175.266C273.734 175.865 274.057 176.167 274.873 176.171ZM296.545 189.891C295.273 189.885 294.074 189.638 292.948 189.153C291.847 188.667 290.866 188.002 290.007 187.157C289.171 186.289 288.516 185.278 288.042 184.123C287.592 182.969 287.371 181.696 287.378 180.304C287.389 178.144 287.819 176.166 288.669 174.37C289.518 172.575 290.678 171.021 292.149 169.708C293.643 168.372 295.353 167.337 297.277 166.603C299.224 165.869 301.314 165.507 303.546 165.519C304.362 165.523 305.094 165.599 305.741 165.746C306.388 165.893 306.964 166.064 307.467 166.259C307.922 166.405 308.281 166.527 308.545 166.625C308.832 166.698 309.12 166.735 309.408 166.737C309.576 166.738 309.72 166.727 309.84 166.703C309.984 166.68 310.141 166.621 310.309 166.526C310.502 166.407 310.682 166.324 310.85 166.276C311.019 166.205 311.187 166.17 311.355 166.171C311.595 166.172 311.739 166.245 311.786 166.389C311.833 166.533 311.784 166.725 311.639 166.964C311.325 167.371 310.986 167.933 310.622 168.651C310.259 169.369 309.931 170.112 309.639 170.878C309.347 171.645 309.103 172.339 308.908 172.962C308.859 173.178 308.762 173.37 308.617 173.537C308.496 173.68 308.316 173.751 308.076 173.75C307.86 173.749 307.705 173.592 307.61 173.28C307.516 172.943 307.482 172.535 307.509 172.055C307.559 171.528 307.514 170.987 307.373 170.435C307.256 169.882 307.042 169.377 306.733 168.919C306.352 168.293 305.875 167.787 305.301 167.4C304.727 167.013 304.116 166.818 303.468 166.814C302.244 166.808 301.09 167.126 300.007 167.769C298.923 168.411 297.947 169.282 297.077 170.382C296.208 171.457 295.457 172.677 294.826 174.042C294.219 175.407 293.744 176.844 293.4 178.355C293.056 179.841 292.881 181.28 292.874 182.672C292.869 183.656 292.984 184.521 293.22 185.266C293.457 185.987 293.79 186.589 294.219 187.071C294.649 187.553 295.175 187.916 295.798 188.159C296.42 188.378 297.116 188.49 297.884 188.494C298.868 188.499 299.793 188.3 300.659 187.896C301.549 187.469 302.392 186.873 303.188 186.109C304.008 185.345 304.793 184.461 305.542 183.457C305.735 183.194 305.892 182.979 306.013 182.812C306.158 182.62 306.315 182.525 306.483 182.526C306.651 182.527 306.794 182.624 306.913 182.816C307.032 182.985 307.055 183.201 306.982 183.465C306.835 183.992 306.628 184.615 306.36 185.334C306.117 186.052 305.837 186.747 305.522 187.417C305.206 188.088 304.903 188.65 304.613 189.105C304.347 189.535 304.142 189.75 303.998 189.749C303.782 189.748 303.614 189.699 303.494 189.603C303.375 189.53 303.243 189.446 303.1 189.349C302.956 189.252 302.788 189.179 302.597 189.13C302.405 189.057 302.141 189.02 301.805 189.018C301.541 189.017 301.241 189.063 300.905 189.157C300.592 189.228 300.244 189.322 299.859 189.44C299.427 189.534 298.934 189.627 298.382 189.721C297.829 189.838 297.217 189.895 296.545 189.891ZM329.233 190.095C328.106 190.09 327.147 189.881 326.357 189.469C325.591 189.033 324.97 188.465 324.493 187.767C324.017 187.068 323.637 186.311 323.353 185.493C323.069 184.652 322.822 183.822 322.61 183.005C322.422 182.14 322.234 181.347 322.046 180.626C321.858 179.881 321.633 179.292 321.371 178.859C321.134 178.402 320.775 178.172 320.295 178.169C320.127 178.168 319.958 178.227 319.79 178.347C319.645 178.442 319.549 178.573 319.5 178.741L317.303 185.966C317.107 186.661 317.08 187.177 317.223 187.513C317.389 187.826 317.892 188.105 318.73 188.349C318.946 188.422 319.126 188.507 319.269 188.604C319.437 188.701 319.484 188.857 319.411 189.073C319.386 189.241 319.241 189.384 318.976 189.503C318.736 189.597 318.496 189.644 318.256 189.643C317.512 189.639 316.864 189.612 316.312 189.561C315.76 189.51 315.257 189.471 314.801 189.445C314.345 189.395 313.877 189.368 313.397 189.366C312.653 189.362 311.933 189.406 311.236 189.499C310.54 189.615 309.591 189.67 308.391 189.664C308.151 189.663 307.948 189.602 307.78 189.481C307.613 189.36 307.554 189.216 307.603 189.048C307.677 188.664 308.062 188.414 308.758 188.298C309.743 188.111 310.417 187.874 310.778 187.588C311.164 187.278 311.479 186.74 311.722 185.973L316.883 169.656C317.127 168.889 317.141 168.349 316.927 168.036C316.713 167.699 316.162 167.42 315.275 167.199C315.059 167.15 314.904 167.065 314.808 166.945C314.713 166.8 314.702 166.632 314.775 166.441C314.8 166.273 314.909 166.141 315.101 166.046C315.294 165.951 315.474 165.904 315.642 165.905C316.17 165.908 316.734 165.923 317.334 165.95C317.934 165.977 318.521 166.016 319.097 166.067C319.697 166.094 320.237 166.109 320.717 166.111C321.197 166.114 321.737 166.104 322.337 166.084C322.961 166.063 323.585 166.042 324.209 166.021C324.857 166.001 325.446 165.992 325.974 165.994C326.406 165.996 326.573 166.165 326.475 166.501C326.426 166.741 326.317 166.908 326.148 167.003C325.98 167.098 325.751 167.181 325.463 167.252C324.766 167.44 324.213 167.629 323.804 167.819C323.419 168.009 323.118 168.248 322.9 168.534C322.707 168.821 322.525 169.217 322.354 169.72L320.451 175.794C320.28 176.369 320.507 176.658 321.131 176.661C321.899 176.665 322.583 176.513 323.185 176.204C323.811 175.871 324.462 175.299 325.138 174.486C325.838 173.65 326.672 172.49 327.64 171.007C328.365 169.931 329.018 168.998 329.598 168.209C330.178 167.42 330.805 166.799 331.48 166.347C332.178 165.894 333.031 165.671 334.039 165.676C334.831 165.68 335.43 165.887 335.836 166.297C336.242 166.683 336.443 167.272 336.439 168.064C336.436 168.664 336.277 169.179 335.963 169.61C335.673 170.04 335.312 170.254 334.88 170.252C334.281 170.009 333.646 169.826 332.975 169.702C332.327 169.579 331.799 169.516 331.391 169.514C330.959 169.512 330.55 169.738 330.164 170.192C329.778 170.622 329.379 171.208 328.967 171.95C328.531 172.74 328.143 173.398 327.805 173.924C327.466 174.45 327.116 174.892 326.754 175.25C326.392 175.609 325.958 175.966 325.452 176.324C325.284 176.419 325.211 176.49 325.235 176.539C325.259 176.587 325.319 176.647 325.414 176.72C326.299 177.444 326.954 178.407 327.379 179.61C327.805 180.788 328.195 181.954 328.549 183.108C328.833 183.973 329.129 184.779 329.437 185.524C329.769 186.27 330.186 186.872 330.688 187.331C331.19 187.765 331.86 187.985 332.7 187.989C332.916 187.99 333.06 188.051 333.131 188.171C333.227 188.292 333.25 188.424 333.201 188.568C333.152 188.856 332.923 189.118 332.513 189.356C332.104 189.57 331.599 189.748 330.999 189.888C330.422 190.029 329.833 190.098 329.233 190.095ZM333.029 189.683C332.861 189.682 332.73 189.645 332.634 189.573C332.515 189.476 332.479 189.344 332.528 189.176C332.65 188.793 332.975 188.543 333.504 188.425C334.489 188.238 335.174 188.002 335.56 187.716C335.969 187.406 336.296 186.868 336.54 186.101L341.7 169.783C341.944 168.993 341.971 168.441 341.781 168.128C341.59 167.815 341.052 167.548 340.165 167.327C339.949 167.278 339.793 167.193 339.698 167.073C339.603 166.928 339.592 166.76 339.665 166.569C339.713 166.401 339.822 166.27 339.991 166.174C340.183 166.079 340.363 166.032 340.531 166.033C341.083 166.036 341.647 166.051 342.223 166.078C342.823 166.105 343.399 166.144 343.951 166.195C344.526 166.222 345.054 166.237 345.534 166.239C346.014 166.241 346.554 166.232 347.154 166.211C347.779 166.191 348.415 166.17 349.063 166.149C349.711 166.128 350.287 166.119 350.791 166.122C351.223 166.124 351.39 166.293 351.292 166.629C351.219 166.868 351.098 167.036 350.93 167.131C350.785 167.226 350.569 167.309 350.281 167.379C349.584 167.568 349.031 167.757 348.622 167.947C348.213 168.137 347.899 168.387 347.682 168.698C347.488 168.985 347.318 169.368 347.172 169.847L343.767 180.954C343.693 181.29 343.68 181.47 343.728 181.494C343.8 181.518 343.98 181.423 344.269 181.209L356.49 171.083C356.61 170.964 356.719 170.845 356.815 170.725C356.912 170.606 356.997 170.462 357.07 170.294L357.216 169.899C357.459 169.204 357.486 168.677 357.296 168.316C357.13 167.955 356.591 167.652 355.68 167.407C355.465 167.358 355.309 167.273 355.214 167.153C355.142 167.008 355.131 166.84 355.18 166.649C355.229 166.481 355.338 166.349 355.506 166.254C355.699 166.159 355.891 166.112 356.083 166.113C356.611 166.116 357.175 166.131 357.775 166.158C358.375 166.185 358.963 166.224 359.538 166.275C360.114 166.302 360.642 166.317 361.122 166.319C361.602 166.322 362.142 166.312 362.742 166.292C363.342 166.271 363.955 166.25 364.579 166.229C365.227 166.208 365.803 166.199 366.307 166.202C366.739 166.204 366.906 166.373 366.808 166.709C366.735 166.948 366.614 167.116 366.446 167.211C366.301 167.306 366.085 167.389 365.796 167.459C365.099 167.648 364.558 167.837 364.173 168.027C363.788 168.217 363.487 168.467 363.269 168.778C363.076 169.065 362.906 169.448 362.76 169.928L357.672 186.174C357.452 186.869 357.438 187.385 357.628 187.722C357.818 188.035 358.333 188.313 359.172 188.557C359.411 188.631 359.567 188.716 359.638 188.812C359.734 188.908 359.757 189.065 359.708 189.28C359.659 189.448 359.562 189.58 359.418 189.675C359.273 189.77 359.093 189.817 358.877 189.816C358.349 189.813 357.773 189.786 357.15 189.735C356.55 189.708 355.95 189.681 355.35 189.654C354.75 189.627 354.222 189.612 353.766 189.61C353.286 189.607 352.746 189.616 352.146 189.637C351.57 189.658 350.97 189.679 350.346 189.7C349.721 189.745 349.145 189.766 348.617 189.763C348.449 189.762 348.305 189.726 348.186 189.653C348.066 189.556 348.031 189.424 348.08 189.256C348.202 188.873 348.539 188.623 349.092 188.506C350.029 188.318 350.714 188.07 351.148 187.76C351.605 187.451 351.944 186.924 352.164 186.181L355.752 174.572C355.8 174.452 355.801 174.368 355.753 174.32C355.705 174.271 355.633 174.283 355.537 174.355L342.703 184.693C342.559 184.812 342.45 184.919 342.378 185.015C342.329 185.111 342.28 185.242 342.232 185.41L342.048 186.093C341.852 186.812 341.874 187.328 342.112 187.642C342.35 187.955 342.889 188.234 343.728 188.478C343.943 188.551 344.099 188.636 344.194 188.732C344.29 188.829 344.301 188.985 344.228 189.201C344.203 189.368 344.107 189.5 343.938 189.595C343.794 189.69 343.625 189.737 343.433 189.736C342.905 189.734 342.329 189.707 341.706 189.656C341.082 189.628 340.458 189.601 339.834 189.574C339.234 189.547 338.694 189.532 338.214 189.53C337.734 189.527 337.194 189.536 336.594 189.557C336.018 189.578 335.418 189.599 334.794 189.62C334.17 189.665 333.581 189.686 333.029 189.683ZM361.646 189.83C361.478 189.829 361.346 189.793 361.251 189.72C361.131 189.624 361.096 189.491 361.145 189.324C361.267 188.94 361.592 188.69 362.121 188.573C363.106 188.386 363.791 188.149 364.176 187.863C364.586 187.553 364.913 187.015 365.157 186.248L370.317 169.931C370.561 169.14 370.588 168.588 370.397 168.275C370.207 167.962 369.668 167.695 368.781 167.475C368.566 167.426 368.41 167.341 368.315 167.22C368.22 167.076 368.208 166.908 368.281 166.716C368.33 166.548 368.439 166.417 368.607 166.322C368.8 166.227 368.98 166.18 369.148 166.181C369.7 166.183 370.264 166.198 370.84 166.225C371.44 166.252 372.016 166.291 372.567 166.342C373.143 166.369 373.671 166.384 374.151 166.386C374.631 166.389 375.171 166.38 375.771 166.359C376.395 166.338 377.032 166.317 377.68 166.296C378.328 166.276 378.904 166.267 379.408 166.269C379.84 166.272 380.007 166.44 379.909 166.776C379.836 167.016 379.715 167.183 379.547 167.278C379.402 167.373 379.186 167.456 378.897 167.527C378.2 167.715 377.647 167.904 377.238 168.094C376.829 168.284 376.516 168.535 376.298 168.845C376.105 169.132 375.935 169.516 375.789 169.995L372.383 181.101C372.31 181.437 372.297 181.617 372.345 181.641C372.416 181.666 372.597 181.571 372.886 181.356L385.106 171.231C385.227 171.111 385.336 170.992 385.432 170.872C385.529 170.753 385.614 170.609 385.686 170.442L385.832 170.047C386.076 169.352 386.103 168.824 385.913 168.463C385.746 168.102 385.208 167.799 384.297 167.555C384.081 167.505 383.926 167.421 383.831 167.3C383.759 167.156 383.748 166.988 383.797 166.796C383.846 166.628 383.955 166.497 384.123 166.402C384.316 166.307 384.508 166.26 384.7 166.261C385.228 166.263 385.792 166.278 386.392 166.305C386.992 166.332 387.579 166.371 388.155 166.422C388.731 166.449 389.259 166.464 389.739 166.467C390.219 166.469 390.759 166.46 391.359 166.439C391.959 166.418 392.571 166.397 393.195 166.376C393.844 166.356 394.42 166.347 394.924 166.349C395.356 166.351 395.523 166.52 395.425 166.856C395.352 167.095 395.231 167.263 395.062 167.358C394.918 167.453 394.701 167.536 394.413 167.607C393.716 167.795 393.175 167.984 392.79 168.174C392.405 168.364 392.104 168.615 391.886 168.926C391.693 169.213 391.523 169.596 391.376 170.075L386.289 186.321C386.069 187.016 386.054 187.532 386.245 187.869C386.435 188.182 386.95 188.461 387.788 188.705C388.028 188.778 388.184 188.863 388.255 188.959C388.351 189.056 388.374 189.212 388.325 189.428C388.276 189.595 388.179 189.727 388.035 189.822C387.89 189.917 387.71 189.964 387.494 189.963C386.966 189.961 386.39 189.934 385.766 189.882C385.166 189.855 384.567 189.828 383.967 189.801C383.367 189.774 382.839 189.759 382.383 189.757C381.903 189.755 381.363 189.764 380.763 189.785C380.187 189.806 379.587 189.827 378.962 189.847C378.338 189.892 377.762 189.913 377.234 189.911C377.066 189.91 376.922 189.873 376.803 189.8C376.683 189.704 376.648 189.571 376.697 189.404C376.819 189.02 377.156 188.77 377.709 188.653C378.646 188.466 379.331 188.217 379.764 187.908C380.222 187.598 380.561 187.072 380.781 186.329L384.368 174.719C384.417 174.599 384.417 174.515 384.37 174.467C384.322 174.419 384.25 174.43 384.153 174.502L371.32 184.84C371.175 184.959 371.067 185.067 370.994 185.162C370.946 185.258 370.897 185.39 370.848 185.558L370.665 186.241C370.469 186.96 370.49 187.476 370.729 187.789C370.967 188.102 371.506 188.381 372.345 188.625C372.56 188.698 372.716 188.783 372.811 188.88C372.907 188.976 372.918 189.132 372.845 189.348C372.82 189.516 372.723 189.647 372.555 189.742C372.41 189.838 372.242 189.885 372.05 189.884C371.522 189.881 370.946 189.854 370.323 189.803C369.699 189.776 369.075 189.748 368.451 189.721C367.851 189.694 367.311 189.679 366.831 189.677C366.351 189.674 365.811 189.684 365.211 189.705C364.635 189.726 364.035 189.747 363.411 189.767C362.786 189.812 362.198 189.833 361.646 189.83ZM382.583 164.882C381.071 164.874 379.873 164.496 378.989 163.747C378.129 162.999 377.701 162.109 377.707 161.077C377.71 160.333 377.966 159.686 378.473 159.136C379.003 158.563 379.641 158.278 380.385 158.282C380.889 158.285 381.284 158.419 381.571 158.684C381.858 158.926 382 159.251 381.998 159.659C381.996 159.947 381.947 160.222 381.85 160.486C381.776 160.726 381.691 160.953 381.594 161.169C381.497 161.384 381.448 161.6 381.447 161.816C381.445 162.128 381.588 162.405 381.874 162.646C382.161 162.888 382.641 163.01 383.313 163.013C384.417 163.019 385.378 162.748 386.197 162.2C387.04 161.653 387.716 160.816 388.226 159.691C388.42 159.332 388.565 159.104 388.661 159.009C388.758 158.889 388.902 158.83 389.094 158.831C389.358 158.833 389.489 159.013 389.487 159.373C389.485 159.877 389.326 160.452 389.011 161.099C388.695 161.721 388.236 162.319 387.633 162.892C387.03 163.465 386.308 163.941 385.466 164.321C384.624 164.7 383.663 164.887 382.583 164.882Z" fill="#231F20"/>
</svg>
