<svg width="448" height="477" viewBox="0 0 448 477" fill="none" xmlns="http://www.w3.org/2000/svg">
<path d="M223.408 464.605C340.522 464.605 435.461 393.401 435.461 305.566C435.461 217.731 340.522 146.526 223.408 146.526C106.295 146.526 11.3555 217.731 11.3555 305.566C11.3555 393.401 106.295 464.605 223.408 464.605Z" stroke="black" stroke-width="2" stroke-miterlimit="10"/>
<path d="M377.329 183.197V1H368.011V176.759C329.216 151.433 278.901 136.187 223.928 136.187C168.022 136.187 116.945 151.941 77.8959 178.03V1H68.5783V184.637C27.4963 215.384 2 258.244 2 305.593C2 399.191 101.359 475 223.928 475C346.496 475 445.855 399.191 445.855 305.593C445.771 257.482 419.512 214.029 377.329 183.197Z" stroke="black" stroke-width="2" stroke-miterlimit="10"/>
<path d="M223.928 475C346.495 475 445.855 399.142 445.855 305.566C445.855 211.99 346.495 136.132 223.928 136.132C101.36 136.132 2 211.99 2 305.566C2 399.142 101.36 475 223.928 475Z" stroke="#06060B" stroke-width="3" stroke-miterlimit="10"/>
<path d="M153.077 211.888C152.751 211.888 152.344 211.725 151.855 211.48C151.366 211.154 150.958 210.828 150.632 210.339C150.307 209.932 150.144 209.525 150.144 209.117C150.144 208.71 150.144 208.384 150.144 208.139C150.144 207.976 150.225 207.732 150.307 207.406C150.388 207.161 150.551 206.754 150.714 206.184C151.447 204.228 152.181 202.191 152.996 200.154C153.81 198.116 154.544 195.998 155.277 193.879C156.011 191.76 156.581 189.642 157.07 187.605C157.314 186.708 157.477 186.056 157.477 185.567C157.559 185.079 157.314 184.834 156.825 184.834C156.174 184.834 155.44 184.997 154.544 185.323C153.647 185.649 152.588 186.545 151.447 188.012C151.284 188.175 150.958 188.257 150.714 188.257C150.388 188.257 150.225 188.012 150.225 187.605C150.225 187.279 150.307 186.871 150.47 186.382C150.632 185.893 150.877 185.405 151.203 184.916C151.529 184.427 151.773 184.019 152.018 183.693C152.914 182.634 153.973 181.738 155.114 181.004C156.255 180.271 157.803 179.863 159.678 179.863C160.737 179.863 161.552 180.108 162.204 180.597C162.855 181.086 163.263 181.656 163.426 182.471C163.589 183.286 163.507 184.101 163.181 185.079L159.84 194.531C159.678 195.02 159.678 195.264 159.84 195.264C160.085 195.264 160.248 195.101 160.492 194.775C161.959 192.901 163.507 191.027 165.219 189.234C166.848 187.442 168.56 185.893 170.189 184.427C171.819 183.041 173.367 181.901 174.753 181.086C176.138 180.271 177.279 179.863 178.256 179.863C179.805 179.863 180.946 180.352 181.597 181.33C182.249 182.308 182.575 183.367 182.494 184.59C182.494 185.405 182.168 185.73 181.597 185.73C181.353 185.73 181.027 185.73 180.62 185.649C180.212 185.567 179.723 185.486 179.234 185.486C178.827 185.404 178.338 185.405 177.931 185.323C177.523 185.242 177.116 185.242 176.79 185.242C175.73 185.242 174.671 185.486 173.612 185.975C172.552 186.464 171.412 187.116 170.352 187.931C169.293 188.745 168.315 189.56 167.419 190.375C166.522 191.272 165.789 192.005 165.056 192.657C164.893 192.82 164.73 193.064 164.73 193.146C164.73 193.309 164.811 193.472 164.893 193.553C165.952 194.775 166.848 196.242 167.582 197.953C168.315 199.665 168.967 201.376 169.537 203.087C169.863 203.902 170.189 204.635 170.678 205.287C171.167 205.939 171.656 206.265 172.226 206.265C172.797 206.265 173.449 206.102 174.101 205.695C174.753 205.287 175.404 204.798 176.138 204.146C176.79 203.495 177.442 202.843 178.012 202.109C178.338 201.702 178.582 201.376 178.745 201.131C178.908 200.968 179.071 200.806 179.234 200.806C179.397 200.806 179.479 200.887 179.642 201.05C179.723 201.213 179.805 201.457 179.805 201.783C179.805 202.598 179.397 203.576 178.582 204.717C177.768 205.776 176.708 206.917 175.567 207.976C174.345 209.117 173.204 210.014 171.982 210.665C170.76 211.399 169.782 211.725 169.048 211.725C168.152 211.725 167.419 211.399 166.848 210.828C166.196 210.258 165.626 209.199 165.137 207.813L162.448 200.317C162.122 199.42 161.878 198.768 161.552 198.361C161.226 197.953 160.818 197.79 160.248 197.79C159.922 197.79 159.678 197.953 159.433 198.279C159.189 198.605 158.944 199.013 158.781 199.42C157.966 201.294 157.314 203.087 156.825 204.717C156.255 206.347 155.766 207.895 155.196 209.443C154.87 210.258 154.544 210.91 154.218 211.236C153.973 211.725 153.566 211.888 153.077 211.888Z" fill="black"/>
<path d="M185.753 211.806C185.183 211.806 184.531 211.643 183.96 211.317C183.309 210.991 182.82 210.584 182.412 210.014C182.005 209.525 181.842 208.954 181.842 208.465C181.842 206.836 182.331 204.88 183.39 202.761C184.449 200.643 185.998 198.279 188.116 195.672C190.153 193.146 192.761 190.375 195.695 187.523C198.139 185.242 200.258 183.449 201.969 182.227C203.68 181.004 204.984 180.352 205.799 180.352C206.777 180.352 207.755 180.841 208.651 181.738C209.221 182.39 209.466 182.715 209.384 182.715C209.384 182.634 209.384 182.634 209.384 182.634C209.466 182.634 209.547 182.634 209.629 182.553C209.71 182.471 209.792 182.39 209.792 182.227C210.362 181.249 210.77 180.597 210.933 180.352C211.096 180.108 211.096 179.945 211.096 179.945C211.34 179.456 211.747 179.212 212.236 179.212C212.807 179.212 213.377 179.293 213.948 179.538C214.518 179.782 215.007 180.026 215.414 180.352C215.822 180.678 215.985 181.004 215.985 181.33C215.985 181.575 215.822 182.064 215.577 182.797L207.755 203.902C207.184 205.45 207.429 206.184 208.651 206.184C209.466 206.184 210.444 205.776 211.584 204.88C212.807 204.065 213.866 203.006 214.925 201.783C215.007 201.702 215.088 201.62 215.251 201.539C215.333 201.457 215.414 201.457 215.577 201.457C215.74 201.457 215.903 201.539 215.985 201.702C216.066 201.865 216.148 202.109 216.148 202.354C216.148 202.843 215.74 203.658 215.007 204.717C214.274 205.776 213.377 206.754 212.399 207.65C210.851 209.036 209.384 210.095 207.836 210.828C206.288 211.562 204.984 211.888 203.843 211.888C203.273 211.888 202.702 211.725 202.051 211.399C201.48 211.073 200.991 210.665 200.584 210.177C200.176 209.688 200.013 209.199 200.013 208.628C200.013 208.221 200.176 207.65 200.421 206.917C200.339 207.08 200.339 206.999 200.502 206.51C200.665 206.102 200.91 205.45 201.317 204.635C201.643 203.821 202.051 203.006 202.458 202.109C202.865 201.213 203.191 200.48 203.517 199.746C203.762 199.339 203.843 199.013 203.762 198.768C203.68 198.524 203.517 198.605 203.273 198.85C200.421 201.946 197.976 204.472 195.858 206.428C193.739 208.384 191.865 209.769 190.316 210.584C188.768 211.399 187.22 211.806 185.753 211.806ZM191.131 206.102C192.109 206.102 193.576 205.287 195.613 203.495C197.65 201.783 199.85 199.502 202.295 196.568C204.088 194.531 205.473 192.657 206.451 190.946C207.429 189.234 207.918 188.012 207.918 187.197C207.918 186.79 207.592 186.301 206.858 185.649C206.451 185.323 206.043 185.16 205.717 184.916C205.31 184.753 204.984 184.671 204.74 184.671C203.843 184.671 202.702 185.079 201.236 185.975C199.769 186.871 198.465 187.849 197.243 189.071C195.858 190.457 194.472 192.005 193.168 193.798C191.865 195.59 190.887 197.383 190.072 199.094C189.257 200.806 188.931 202.272 188.931 203.495C188.931 204.309 189.094 204.88 189.502 205.369C189.909 205.858 190.479 206.102 191.131 206.102Z" fill="black"/>
<path d="M224.785 232.096C223.399 232.096 222.096 231.933 220.955 231.607C219.732 231.282 218.755 230.793 218.021 230.222C217.288 229.652 216.962 228.918 216.962 228.185C216.962 227.126 217.288 226.311 217.94 225.577C218.592 224.844 219.244 224.437 219.977 224.437C220.547 224.437 221.036 224.681 221.525 225.089C222.014 225.496 222.503 225.985 222.992 226.555C223.562 227.044 224.214 227.533 224.866 228.104C225.518 228.674 226.251 228.918 226.985 228.918C228.289 228.918 229.429 227.941 230.489 225.985C231.548 224.029 232.526 221.34 233.259 217.918L235.215 209.443C234.563 210.095 233.585 210.665 232.526 211.154C231.385 211.643 230.244 211.888 229.185 211.888C227.963 211.888 226.74 211.562 225.518 210.828C224.296 210.095 223.318 209.036 222.503 207.65C221.688 206.265 221.281 204.635 221.281 202.843C221.281 200.561 221.688 198.116 222.503 195.509C223.318 192.901 224.459 190.375 226.088 188.012C227.637 185.649 229.592 183.775 231.874 182.227C234.156 180.76 236.763 180.026 239.697 180.026C240.349 180.026 241.001 180.189 241.652 180.434C242.223 180.76 242.793 181.167 243.201 181.819L245.727 174.241C246.297 172.448 247.275 170.737 248.66 169.107C250.046 167.396 251.512 165.929 253.224 164.625C254.935 163.322 256.564 162.262 258.194 161.529C259.824 160.795 261.128 160.388 262.187 160.388C263.491 160.388 264.632 160.551 265.528 160.795C266.424 161.04 267.321 161.61 268.054 162.425C268.38 162.833 268.462 163.322 268.38 163.892C268.217 164.462 267.973 165.033 267.565 165.522C267.158 166.092 266.669 166.418 266.261 166.663C265.772 166.826 265.447 166.826 265.202 166.581C264.306 165.685 263.572 164.87 262.92 164.381C262.269 163.811 261.454 163.485 260.557 163.485C258.52 163.403 256.89 164.299 255.505 166.174C254.609 167.396 253.794 168.944 253.061 170.818C252.409 172.693 251.675 174.73 251.023 177.011L249.231 182.471C249.883 181.738 250.86 181.167 252.083 180.76C253.305 180.352 254.446 180.189 255.505 180.189C256.646 180.189 257.787 180.515 258.928 181.249C260.068 181.982 261.046 182.96 261.861 184.345C262.676 185.73 263.002 187.279 263.002 189.153C263.002 191.435 262.595 193.879 261.698 196.487C260.883 199.094 259.661 201.62 258.031 203.983C256.483 206.347 254.609 208.302 252.49 209.851C250.371 211.399 248.008 212.132 245.319 212.132C244.423 212.132 243.608 211.969 242.956 211.562C242.304 211.154 241.815 210.665 241.489 210.014L239.534 217.429C239.126 219.14 238.311 220.851 237.089 222.644C235.867 224.437 234.563 225.985 233.015 227.452C231.467 228.918 230 230.141 228.615 231.037C226.903 231.607 225.762 232.096 224.785 232.096ZM230.326 209.199C230.978 209.199 231.793 208.954 232.689 208.465C233.585 207.976 234.4 207.161 235.296 205.939C236.111 204.798 236.845 203.169 237.497 201.213L241.245 187.768C241.734 186.056 241.652 184.753 241.001 183.775C240.349 182.797 239.615 182.308 238.8 182.308C237.741 182.308 236.682 182.797 235.622 183.775C234.563 184.753 233.504 186.056 232.526 187.605C231.548 189.234 230.652 190.946 229.837 192.82C229.022 194.694 228.452 196.65 227.963 198.524C227.474 200.398 227.229 202.109 227.229 203.658C227.229 205.45 227.474 206.754 227.963 207.65C228.452 208.71 229.185 209.199 230.326 209.199ZM245.808 209.199C246.949 209.199 248.008 208.71 249.149 207.65C250.209 206.591 251.186 205.287 252.164 203.658C253.061 202.028 253.875 200.235 254.609 198.361C255.261 196.487 255.831 194.612 256.239 192.82C256.646 191.027 256.809 189.397 256.809 188.094C256.809 186.056 256.564 184.671 255.994 183.775C255.424 182.96 254.69 182.471 253.631 182.471C252.49 182.471 251.186 183.041 249.801 184.264C248.416 185.486 247.356 187.36 246.705 189.968L242.712 204.717C242.386 205.858 242.63 206.836 243.282 207.813C243.853 208.71 244.749 209.199 245.808 209.199Z" fill="black"/>
<path d="M272.292 211.888C271.151 211.888 270.01 211.48 268.788 210.747C267.565 209.932 266.587 208.954 265.773 207.65C264.958 206.347 264.55 205.124 264.55 203.821C264.55 201.131 265.039 198.361 266.099 195.59C267.158 192.82 268.543 190.212 270.417 187.849C272.21 185.486 274.329 183.53 276.61 182.064C278.892 180.597 281.337 179.863 283.944 179.863C286.063 179.863 287.611 180.271 288.67 181.167C289.73 182.064 290.3 183.123 290.3 184.427C290.3 185.975 289.811 187.36 288.833 188.501C287.856 189.642 286.47 190.62 284.841 191.435C283.211 192.249 281.337 192.983 279.381 193.472C277.425 194.042 275.388 194.45 273.432 194.857C273.188 194.938 273.025 194.938 272.862 195.02C272.699 195.101 272.617 195.264 272.455 195.509C272.21 196.324 271.966 197.22 271.721 198.198C271.477 199.176 271.314 200.072 271.314 200.887C271.314 202.598 271.721 203.983 272.455 205.043C273.188 206.102 274.329 206.591 275.877 206.591C277.507 206.591 278.892 206.184 280.033 205.369C281.174 204.554 282.233 203.658 283.211 202.68C283.7 202.109 284.107 201.865 284.433 201.865C284.922 201.865 285.166 202.109 285.166 202.598C285.166 202.68 285.166 202.843 285.166 203.006C285.166 203.169 285.085 203.25 285.003 203.332C284.026 204.961 282.885 206.428 281.663 207.732C280.359 208.954 278.973 209.932 277.425 210.665C275.877 211.562 274.166 211.888 272.292 211.888ZM273.921 192.901C274.655 192.82 275.633 192.575 276.855 192.249C278.077 191.923 279.299 191.435 280.522 190.701C281.744 190.049 282.803 189.153 283.7 188.175C284.596 187.116 285.003 185.893 285.003 184.427C285.003 183.856 284.841 183.286 284.515 182.797C284.189 182.308 283.7 182.064 283.048 182.064C282.07 182.064 281.011 182.471 279.951 183.204C278.892 184.019 277.833 184.916 276.855 186.056C275.877 187.197 275.062 188.338 274.41 189.479C273.758 190.62 273.432 191.597 273.351 192.412C273.432 192.82 273.595 192.983 273.921 192.901Z" fill="black"/>
<path d="M152.348 338.966V339.898C152.348 383.859 162.428 419.096 223.075 419.096C283.808 419.096 292.193 389.873 293.379 351.672C293.464 347.691 293.549 343.625 293.549 339.475H293.21" stroke="#231F20" stroke-miterlimit="10"/>
<path d="M222.991 362.429C262.039 362.429 293.633 351.926 293.633 338.882C293.633 325.922 262.039 315.334 222.991 315.334C183.942 315.334 152.348 325.837 152.348 338.882C152.348 351.926 184.027 362.429 222.991 362.429Z" stroke="#231F20" stroke-miterlimit="10"/>
<path d="M154.72 344.98C154.72 332.444 185.298 322.28 222.991 322.28C260.684 322.28 291.262 332.444 291.262 344.98" stroke="#231F20" stroke-miterlimit="10"/>
<path d="M293.633 338.374C293.633 351.333 262.039 361.921 222.991 361.921C183.942 361.921 152.348 351.418 152.348 338.374" stroke="#231F20" stroke-miterlimit="10"/>
<path d="M309.473 377.591C304.984 374.626 298.461 373.441 291.77 371.746C291.431 374.711 290.669 378.692 288.975 383.266C287.535 387.247 285.248 392.16 281.436 397.327C281.436 397.327 278.641 401.393 275.168 404.527C263.818 414.776 245.522 418.587 223.16 418.587C178.267 418.587 160.903 398.936 154.974 371.069C131.765 376.913 117.196 386.146 117.196 396.056C117.196 413.759 164.545 428.074 222.991 428.074C281.436 428.074 328.785 413.759 328.785 396.056C328.785 391.821 325.736 388.264 321.331 384.198" stroke="#231F20" stroke-miterlimit="10"/>
<path d="M207.574 268.239C208.167 264.851 207.913 262.903 205.796 258.668C203.339 253.924 199.104 251.214 198.85 251.298C198.596 251.383 201.73 253.755 203.424 257.82C203.763 258.668 206.304 263.241 203.932 268.578C202.407 272.051 202.069 272.474 199.612 276.371C196.309 281.792 194.784 284.587 194.53 285.264C193.344 288.06 191.057 293.65 193.852 299.664C195.97 304.323 200.375 307.372 200.629 307.287C200.798 307.203 198.342 305.17 196.986 301.527C196.309 299.664 195.546 297.292 195.377 295.937C195.123 294.074 195.123 290.008 197.41 286.366C199.358 283.231 200.459 281.283 202.746 278.234C205.457 274.761 206.981 271.542 207.574 268.239Z" stroke="#231F20" stroke-miterlimit="10"/>
<path d="M230.36 267.731C230.953 264.343 230.699 262.395 228.581 258.159C226.125 253.416 221.89 250.705 221.636 250.79C221.381 250.875 224.515 253.247 226.21 257.312C226.548 258.159 229.089 262.733 226.718 268.07C225.193 271.542 224.854 271.966 222.398 275.862C219.094 281.283 217.57 284.079 217.316 284.756C216.13 287.551 213.843 293.142 216.638 299.156C218.756 303.814 223.16 306.864 223.414 306.779C223.584 306.694 221.127 304.661 219.772 301.019C219.094 299.156 218.332 296.784 218.163 295.429C217.909 293.565 217.909 289.5 220.196 285.857C222.144 282.723 223.245 280.775 225.532 277.726C228.242 274.253 229.767 270.95 230.36 267.731Z" stroke="#231F20" stroke-miterlimit="10"/>
<path d="M253.061 268.239C253.654 264.851 253.399 262.903 251.282 258.668C248.826 253.924 244.59 251.214 244.336 251.298C244.082 251.383 247.216 253.755 248.91 257.82C249.249 258.668 251.79 263.241 249.418 268.578C247.894 272.051 247.555 272.474 245.099 276.371C241.795 281.792 240.27 284.587 240.016 285.264C238.831 288.06 236.544 293.65 239.339 299.664C241.456 304.323 245.861 307.372 246.115 307.287C246.284 307.203 243.828 305.17 242.473 301.527C241.795 299.664 241.033 297.292 240.863 295.937C240.609 294.074 240.609 290.008 242.896 286.366C244.844 283.231 245.946 281.283 248.233 278.234C251.028 274.761 252.552 271.542 253.061 268.239Z" stroke="#231F20" stroke-miterlimit="10"/>
<path d="M327.007 401.901C308.372 429.684 270.001 444.592 223.16 443.575C176.404 443.575 140.659 431.124 120.584 404.103" stroke="#231F20" stroke-miterlimit="10"/>
<path d="M324.127 405.458C304.221 432.987 270.171 443.575 222.906 443.575C177.844 444.676 141.845 431.971 122.194 405.713" stroke="#231F20" stroke-miterlimit="10"/>
<path d="M293.633 344.642C296.005 343.541 301.341 340.915 306.17 340.407C309.304 340.068 319.383 338.797 327.854 344.642C335.646 349.978 338.696 358.787 337.171 366.156C336.409 369.714 334.376 373.78 328.277 379.285C314.47 391.567 291.685 397.666 280.504 399.529L284.655 393.431L287.789 386.316C289.991 385.469 318.621 376.49 322.348 366.326C322.941 364.632 324.211 361.244 322.348 358.279C320.908 355.992 318.282 354.891 316.673 354.213C315.233 353.62 312.099 352.35 308.202 353.027C304.475 353.62 302.188 355.738 300.664 357.093C300.071 357.601 298.885 358.787 294.989 365.309C293.888 367.173 292.956 368.782 292.363 369.883L293.295 355.314L293.633 344.642Z" stroke="#231F20" stroke-miterlimit="10"/>
</svg>
