<svg width="140" height="642" viewBox="0 0 140 642" fill="none" xmlns="http://www.w3.org/2000/svg">
<path d="M79.56 43.1995C79.56 44.6395 79.1867 45.8928 78.44 46.9595C77.6933 47.9995 76.7067 48.8795 75.48 49.5995C74.2267 50.2928 72.8533 50.8128 71.36 51.1595C69.8667 51.5061 68.3867 51.6795 66.92 51.6795C65.4 51.6795 63.8667 51.5061 62.32 51.1595C60.7733 50.8128 59.36 50.2795 58.08 49.5595C56.8 48.8395 55.7733 47.9195 55 46.7995C54.2 45.6795 53.8 44.3328 53.8 42.7595C53.8 41.3195 54.1733 40.0661 54.92 38.9995C55.6667 37.9328 56.6667 37.0528 57.92 36.3595C59.1467 35.6661 60.5067 35.1461 62 34.7995C63.4667 34.4528 64.92 34.2795 66.36 34.2795C67.8533 34.2795 69.3733 34.4528 70.92 34.7995C72.4667 35.1195 73.8933 35.6395 75.2 36.3595C76.5067 37.0795 77.56 37.9995 78.36 39.1195C79.16 40.2395 79.56 41.5995 79.56 43.1995ZM78.24 42.5195C78.24 41.5328 77.72 40.7461 76.68 40.1595C75.6133 39.5461 74.24 39.1061 72.56 38.8395C70.8533 38.5461 69.0267 38.3995 67.08 38.3995C65.6133 38.3995 64.1733 38.5061 62.76 38.7195C61.3467 38.9328 60.0667 39.2528 58.92 39.6795C57.7733 40.1061 56.8667 40.6395 56.2 41.2795C55.5067 41.9195 55.16 42.6528 55.16 43.4795C55.16 44.4661 55.68 45.2528 56.72 45.8395C57.7333 46.4261 59.08 46.8528 60.76 47.1195C62.44 47.3861 64.2533 47.5195 66.2 47.5195C67.6667 47.5195 69.12 47.4128 70.56 47.1995C72 46.9861 73.2933 46.6795 74.44 46.2795C75.5867 45.8528 76.5067 45.3328 77.2 44.7195C77.8933 44.1061 78.24 43.3728 78.24 42.5195Z" fill="black"/>
<path d="M79.12 126.344C79.12 126.504 79.0667 126.651 78.96 126.784C78.8533 126.891 78.7333 126.944 78.6 126.944C78.3067 126.944 78.1067 126.731 78 126.304C77.7333 125.398 77.5067 124.638 77.32 124.024C77.1067 123.411 76.8133 122.958 76.44 122.664C76.04 122.344 75.48 122.184 74.76 122.184H59.76C59.2267 122.184 58.8133 122.344 58.52 122.664C58.2267 122.984 58.0267 123.411 57.92 123.944C57.7867 124.451 57.6933 124.998 57.64 125.584C57.6133 125.824 57.5467 126.064 57.44 126.304C57.3067 126.518 57.12 126.624 56.88 126.624C56.64 126.624 56.4533 126.518 56.32 126.304C56.16 126.091 56.0667 125.838 56.04 125.544C55.88 124.211 55.6533 123.024 55.36 121.984C55.04 120.918 54.4533 119.864 53.6 118.824C53.5733 118.798 53.56 118.758 53.56 118.704C53.5333 118.651 53.52 118.598 53.52 118.544C53.52 118.384 53.56 118.251 53.64 118.144C53.72 118.011 53.8133 117.944 53.92 117.944C54.2933 117.998 54.7067 118.051 55.16 118.104C55.6133 118.131 56.1467 118.144 56.76 118.144H75.12C75.7333 118.144 76.2133 118.011 76.56 117.744C76.88 117.451 77.1467 117.011 77.36 116.424C77.5467 115.811 77.76 115.011 78 114.024C78.0533 113.838 78.1333 113.678 78.24 113.544C78.32 113.411 78.4533 113.344 78.64 113.344C78.96 113.344 79.12 113.531 79.12 113.904C79.12 114.598 79.0933 115.304 79.04 116.024C79.0133 116.718 78.9867 117.411 78.96 118.104C78.9333 118.771 78.92 119.438 78.92 120.104C78.92 120.771 78.9333 121.451 78.96 122.144C78.9867 122.838 79.0133 123.544 79.04 124.264C79.0933 124.958 79.12 125.651 79.12 126.344Z" fill="black"/>
<path d="M80.12 196.499C80.12 196.659 80.1067 196.979 80.08 197.459C80.08 197.939 80.0667 198.499 80.04 199.139C80.0133 199.753 79.9867 200.393 79.96 201.059C79.9333 201.726 79.92 202.339 79.92 202.899C79.92 203.433 79.9333 204.139 79.96 205.019C79.9867 205.873 80 206.753 80 207.659C80.0267 208.539 80.04 209.313 80.04 209.979C80.0667 210.619 80.08 211.033 80.08 211.219C80.08 211.299 80 211.459 79.84 211.699C79.68 211.913 79.5333 212.019 79.4 212.019C79.24 212.019 79.12 211.979 79.04 211.899C78.96 211.819 78.8667 211.726 78.76 211.619L71.88 205.139C70.44 203.779 68.8933 202.699 67.24 201.899C65.5867 201.073 63.8533 200.659 62.04 200.659C60.7333 200.659 59.6933 201.033 58.92 201.779C58.12 202.526 57.72 203.459 57.72 204.579C57.72 205.619 58.0133 206.593 58.6 207.499C59.16 208.379 59.8667 209.099 60.72 209.659C60.88 209.766 61.0267 209.899 61.16 210.059C61.2933 210.219 61.36 210.393 61.36 210.579C61.36 210.713 61.2533 210.846 61.04 210.979C60.8267 211.086 60.56 211.139 60.24 211.139C59.8933 211.139 59.4267 210.939 58.84 210.539C58.2267 210.139 57.6133 209.579 57 208.859C56.3867 208.139 55.8667 207.286 55.44 206.299C55.0133 205.313 54.8 204.246 54.8 203.099C54.8 201.766 55.0933 200.619 55.68 199.659C56.24 198.699 57.0267 197.966 58.04 197.459C59.0267 196.953 60.16 196.699 61.44 196.699C62.16 196.699 62.9467 196.846 63.8 197.139C64.6533 197.406 65.48 197.766 66.28 198.219C67.08 198.673 67.8133 199.179 68.48 199.739C68.9067 200.086 69.4533 200.593 70.12 201.259C70.7867 201.899 71.4933 202.593 72.24 203.339C72.96 204.059 73.6533 204.753 74.32 205.419C74.96 206.086 75.4933 206.633 75.92 207.059C76.3467 207.459 76.5867 207.659 76.64 207.659C76.7467 207.659 76.8267 207.473 76.88 207.099C76.9333 206.619 76.9733 206.086 77 205.499C77.0267 204.886 77.04 204.233 77.04 203.539C77.04 202.819 77.0267 202.113 77 201.419C76.9733 200.699 76.9333 200.006 76.88 199.339C76.8267 198.619 76.7467 198.046 76.64 197.619C76.5333 197.193 76.3333 196.833 76.04 196.539C75.7467 196.219 75.3333 195.913 74.8 195.619C74.64 195.513 74.4533 195.366 74.24 195.179C74.0267 194.993 73.92 194.793 73.92 194.579C73.92 194.419 73.9867 194.313 74.12 194.259C74.2533 194.206 74.3867 194.193 74.52 194.219C74.84 194.299 75.2667 194.433 75.8 194.619C76.3333 194.806 76.9067 194.993 77.52 195.179C78.1067 195.366 78.6667 195.513 79.2 195.619C79.5733 195.673 79.8267 195.806 79.96 196.019C80.0667 196.206 80.12 196.366 80.12 196.499Z" fill="black"/>
<path d="M82.52 287.349C82.52 287.936 82.4267 288.563 82.24 289.229C82.0533 289.896 81.8133 290.469 81.52 290.949C81.2533 291.403 80.9867 291.629 80.72 291.629C80.48 291.629 80.2 291.549 79.88 291.389C79.56 291.203 79.28 290.976 79.04 290.709C78.8 290.443 78.68 290.203 78.68 289.989C78.68 289.723 78.7467 289.483 78.88 289.269C79.0133 289.056 79.1867 288.829 79.4 288.589C79.7467 288.243 80.0933 287.843 80.44 287.389C80.76 286.909 80.92 286.309 80.92 285.589C80.92 284.656 80.68 283.789 80.2 282.989C79.6933 282.163 79 281.496 78.12 280.989C77.24 280.456 76.24 280.189 75.12 280.189C74.08 280.189 73.0933 280.363 72.16 280.709C71.2267 281.029 70.48 281.509 69.92 282.149C69.3333 282.789 69.04 283.589 69.04 284.549C69.04 284.976 69.1067 285.429 69.24 285.909C69.3733 286.363 69.5467 286.776 69.76 287.149C69.84 287.309 69.8267 287.496 69.72 287.709C69.6133 287.923 69.48 288.003 69.32 287.949C68.8933 287.843 68.5467 287.669 68.28 287.429C68.0133 287.163 67.8133 286.883 67.68 286.589C67.4667 286.163 67.2 285.669 66.88 285.109C66.5333 284.549 66.1333 284.003 65.68 283.469C65.2 282.936 64.6667 282.496 64.08 282.149C63.4933 281.803 62.8533 281.629 62.16 281.629C61.1467 281.629 60.2667 281.963 59.52 282.629C58.7467 283.296 58.36 284.149 58.36 285.189C58.36 286.149 58.5333 286.923 58.88 287.509C59.2267 288.096 59.6267 288.576 60.08 288.949C60.5333 289.323 60.9333 289.616 61.28 289.829C61.6267 290.043 61.8 290.216 61.8 290.349C61.8 290.483 61.72 290.643 61.56 290.829C61.3733 290.989 61.1733 291.069 60.96 291.069C60.6667 291.069 60.24 290.923 59.68 290.629C59.0933 290.336 58.5067 289.883 57.92 289.269C57.3333 288.629 56.84 287.816 56.44 286.829C56.0133 285.843 55.8 284.643 55.8 283.229C55.8 282.296 56 281.416 56.4 280.589C56.8 279.763 57.3467 279.096 58.04 278.589C58.7333 278.056 59.5467 277.789 60.48 277.789C61.0933 277.789 61.7733 277.949 62.52 278.269C63.24 278.563 63.9467 279.056 64.64 279.749C65.3067 280.416 65.8933 281.309 66.4 282.429C66.4267 282.509 66.48 282.549 66.56 282.549C66.6133 282.549 66.64 282.496 66.64 282.389C66.64 281.163 66.92 280.069 67.48 279.109C68.0133 278.149 68.7467 277.389 69.68 276.829C70.6133 276.243 71.68 275.949 72.88 275.949C74.3733 275.949 75.72 276.269 76.92 276.909C78.0933 277.549 79.1067 278.416 79.96 279.509C80.7867 280.603 81.4133 281.829 81.84 283.189C82.2933 284.523 82.52 285.909 82.52 287.349Z" fill="black"/>
<path d="M79.12 368.465C79.12 368.598 79.08 368.758 79 368.945C78.8933 369.131 78.7467 369.225 78.56 369.225C78.4 369.225 78.28 369.145 78.2 368.985C78.0933 368.798 78.0267 368.611 78 368.425C77.8133 367.251 77.5467 366.465 77.2 366.065C76.8267 365.665 76.2933 365.465 75.6 365.465H72.4C72.2667 365.465 72.1733 365.558 72.12 365.745C72.0667 365.931 72.04 366.051 72.04 366.105C72.04 367.118 72.0667 368.118 72.12 369.105C72.1467 370.091 72.1867 371.118 72.24 372.185C72.2667 373.225 72.2933 374.385 72.32 375.665C72.32 375.771 72.28 375.878 72.2 375.985C72.12 376.091 72.0267 376.145 71.92 376.145C71.8667 376.145 71.8 376.105 71.72 376.025C71.3467 375.731 71.08 375.518 70.92 375.385C70.76 375.225 70.6133 375.091 70.48 374.985C70.3467 374.878 70.16 374.745 69.92 374.585L54.56 364.305C54.2667 364.118 53.9867 363.891 53.72 363.625C53.4533 363.358 53.32 363.105 53.32 362.865V362.225C53.32 362.065 53.4133 362.011 53.6 362.065C53.7867 362.091 53.9067 362.118 53.96 362.145L69.28 372.465C69.3867 372.518 69.4933 372.545 69.6 372.545C69.68 372.545 69.72 372.478 69.72 372.345V365.905C69.72 365.798 69.6933 365.705 69.64 365.625C69.56 365.518 69.48 365.465 69.4 365.465H63.72C63.3467 365.465 63.1067 365.451 63 365.425C62.8667 365.371 62.7467 365.238 62.64 365.025C62.3733 364.518 62.2 363.971 62.12 363.385C62.04 362.798 62 362.385 62 362.145C62 361.771 62.24 361.558 62.72 361.505C63.1733 361.425 63.8533 361.385 64.76 361.385H69.56C69.7467 361.385 69.84 361.318 69.84 361.185C69.8667 360.865 69.88 360.598 69.88 360.385C69.88 360.145 69.88 359.891 69.88 359.625C69.88 359.251 69.88 358.878 69.88 358.505C69.8533 358.131 69.8267 357.731 69.8 357.305C69.8 357.011 69.8933 356.865 70.08 356.865C70.2933 356.865 70.56 356.918 70.88 357.025C71.1733 357.131 71.4267 357.265 71.64 357.425C71.8533 357.558 71.96 357.651 71.96 357.705C71.96 357.998 71.96 358.318 71.96 358.665C71.9333 358.985 71.92 359.318 71.92 359.665C71.92 359.905 71.9333 360.118 71.96 360.305C71.96 360.491 71.9733 360.665 72 360.825C72.0267 360.931 72.0667 361.051 72.12 361.185C72.1733 361.291 72.2133 361.345 72.24 361.345H75.48C76.2533 361.345 76.8 361.171 77.12 360.825C77.4133 360.451 77.7067 359.745 78 358.705C78.0267 358.518 78.0933 358.345 78.2 358.185C78.3067 357.998 78.4533 357.905 78.64 357.905C78.7467 357.905 78.8533 357.971 78.96 358.105C79.0667 358.238 79.12 358.398 79.12 358.585C79.12 359.278 79.0933 359.891 79.04 360.425C79.0133 360.931 78.9867 361.425 78.96 361.905C78.9333 362.358 78.92 362.891 78.92 363.505C78.92 364.145 78.9333 364.705 78.96 365.185C78.9867 365.665 79.0133 366.158 79.04 366.665C79.0933 367.171 79.12 367.771 79.12 368.465Z" fill="black"/>
<path d="M82.52 452.475C82.52 452.795 82.48 453.155 82.4 453.555C82.3467 453.928 82.2133 454.115 82 454.115C81.76 454.115 81.5733 453.941 81.44 453.595C81.3067 453.221 81.2267 452.888 81.2 452.595C81.1467 450.675 80.76 449.048 80.04 447.715C79.32 446.381 78.4267 445.381 77.36 444.715C76.2933 444.021 75.2133 443.675 74.12 443.675C73.1067 443.675 72.2133 443.968 71.44 444.555C70.64 445.141 69.92 446.088 69.28 447.395C68.64 448.675 68.0267 450.408 67.44 452.595C67.1467 453.101 66.8533 453.461 66.56 453.675C66.2667 453.861 65.92 453.955 65.52 453.955C65.1467 453.955 64.6667 453.888 64.08 453.755C63.4933 453.595 62.88 453.408 62.24 453.195C61.5733 452.981 60.9467 452.781 60.36 452.595C59.7467 452.381 59.2667 452.221 58.92 452.115C58.44 451.955 58.08 451.728 57.84 451.435C57.5733 451.141 57.3867 450.781 57.28 450.355C57.1467 449.795 57.0133 449.155 56.88 448.435C56.72 447.688 56.5867 446.928 56.48 446.155C56.3467 445.355 56.2267 444.581 56.12 443.835C56.0133 443.088 55.9333 442.421 55.88 441.835C55.8533 441.621 55.92 441.461 56.08 441.355C56.24 441.248 56.4267 441.235 56.64 441.315C56.9067 441.395 57.2 441.515 57.52 441.675C57.8133 441.835 58.1067 441.981 58.4 442.115C58.8267 442.301 59.1733 442.555 59.44 442.875C59.68 443.168 59.8267 443.528 59.88 443.955C59.9333 444.435 59.9867 445.008 60.04 445.675C60.0933 446.341 60.1467 447.008 60.2 447.675C60.2533 448.341 60.3067 448.955 60.36 449.515C60.3867 450.048 60.4267 450.448 60.48 450.715C60.5067 450.901 60.6933 451.115 61.04 451.355C61.3867 451.568 61.76 451.755 62.16 451.915C62.56 452.075 62.8533 452.168 63.04 452.195C63.2267 452.221 63.3733 452.195 63.48 452.115C63.5867 452.035 63.6667 451.901 63.72 451.715C64.0933 450.221 64.4933 448.875 64.92 447.675C65.3467 446.475 65.8 445.421 66.28 444.515C67.08 442.941 68.04 441.781 69.16 441.035C70.28 440.288 71.6133 439.915 73.16 439.915C74.6533 439.915 76.0533 440.368 77.36 441.275C78.6667 442.155 79.7467 443.341 80.6 444.835C80.9467 445.475 81.2667 446.208 81.56 447.035C81.8533 447.861 82.08 448.728 82.24 449.635C82.4267 450.541 82.52 451.488 82.52 452.475Z" fill="black"/>
<path d="M83.6 524.259C83.6 525.806 83.28 527.206 82.64 528.459C82 529.713 81.0667 530.713 79.84 531.459C78.5867 532.206 77.0667 532.579 75.28 532.579C73.7867 532.579 72.44 532.406 71.24 532.059C70.0133 531.713 68.9333 531.286 68 530.779C67.04 530.246 66.2267 529.713 65.56 529.179C64.8933 528.646 64.36 528.193 63.96 527.819C63.2667 527.179 62.5067 526.353 61.68 525.339C60.8533 524.299 60.0667 523.099 59.32 521.739C58.5467 520.379 57.9333 518.913 57.48 517.339C57.3733 517.046 57.3467 516.779 57.4 516.539C57.4533 516.299 57.5467 516.206 57.68 516.259C57.92 516.313 58.12 516.459 58.28 516.699C58.4133 516.939 58.5333 517.179 58.64 517.419C59.36 519.099 60.2 520.539 61.16 521.739C62.12 522.913 63.3067 523.979 64.72 524.939C65.36 525.339 66.2267 525.819 67.32 526.379C68.4133 526.939 69.64 527.419 71 527.819C72.36 528.219 73.7467 528.419 75.16 528.419C76.6267 528.393 77.8667 528.126 78.88 527.619C79.8933 527.113 80.6667 526.473 81.2 525.699C81.7333 524.926 82 524.153 82 523.379C82.0267 522.393 81.64 521.539 80.84 520.819C80.04 520.073 78.8267 519.699 77.2 519.699C76.3733 519.699 75.6267 519.846 74.96 520.139C74.2667 520.433 73.7067 520.833 73.28 521.339C72.8267 521.846 72.6 522.419 72.6 523.059C72.6 523.619 72.64 524.113 72.72 524.539C72.7733 524.939 72.8933 525.326 73.08 525.699C73.24 526.019 73.24 526.219 73.08 526.299C72.8933 526.353 72.68 526.286 72.44 526.099C72.2533 525.913 72.0933 525.753 71.96 525.619C71.8267 525.459 71.6933 525.273 71.56 525.059C71.2933 524.739 70.9867 524.179 70.64 523.379C70.2667 522.579 70.08 521.819 70.08 521.099C70.08 520.139 70.3067 519.259 70.76 518.459C71.2133 517.633 71.8267 516.966 72.6 516.459C73.3733 515.953 74.2667 515.699 75.28 515.699C76.4533 515.699 77.5467 515.939 78.56 516.419C79.5733 516.873 80.4667 517.499 81.24 518.299C81.9867 519.099 82.5733 520.019 83 521.059C83.4 522.073 83.6 523.139 83.6 524.259Z" fill="black"/>
<path d="M84.24 609.269C84.24 609.589 84.1333 609.829 83.92 609.989C83.7067 610.149 83.44 610.229 83.12 610.229C83.0133 610.229 82.7733 610.123 82.4 609.909C82.0267 609.696 81.68 609.496 81.36 609.309L62.16 598.589C62.0267 598.509 61.9333 598.496 61.88 598.549C61.8 598.576 61.7467 598.723 61.72 598.989V608.789C61.72 609.456 61.84 610.016 62.08 610.469C62.2933 610.896 62.7467 611.336 63.44 611.789C63.5467 611.843 63.7067 611.936 63.92 612.069C64.1333 612.203 64.3333 612.363 64.52 612.549C64.7067 612.736 64.8 612.909 64.8 613.069C64.8 613.203 64.7333 613.309 64.6 613.389C64.4667 613.469 64.3333 613.509 64.2 613.509C64.04 613.509 63.8267 613.469 63.56 613.389C63.2933 613.309 63.0933 613.256 62.96 613.229C62.2667 613.096 61.4933 612.949 60.64 612.789C59.7867 612.629 59.0667 612.523 58.48 612.469C58.24 612.469 58.0933 612.403 58.04 612.269C57.96 612.109 57.9333 611.989 57.96 611.909C57.96 611.776 58.0267 611.363 58.16 610.669C58.2667 609.976 58.32 609.216 58.32 608.389C58.32 607.883 58.3333 607.363 58.36 606.829C58.36 606.296 58.3733 605.749 58.4 605.189C58.4 604.603 58.4 604.016 58.4 603.429C58.4 602.229 58.4 601.069 58.4 599.949C58.3733 598.803 58.3467 597.803 58.32 596.949C58.2667 596.096 58.2267 595.523 58.2 595.229C58.2 595.149 58.28 595.083 58.44 595.029C58.5733 594.976 58.7067 594.949 58.84 594.949C59.0267 594.949 59.28 595.043 59.6 595.229C59.92 595.389 60.2533 595.589 60.6 595.829C60.9467 596.069 61.28 596.269 61.6 596.429L83.08 608.469C83.32 608.576 83.5733 608.723 83.84 608.909C84.1067 609.069 84.24 609.189 84.24 609.269Z" fill="black"/>
<rect x="138.5" y="1.5" width="639" height="137" transform="rotate(90 138.5 1.5)" stroke="black" stroke-width="3"/>
<line x1="139" y1="43.3792" x2="89" y2="43.3792" stroke="black" stroke-width="2"/>
<line x1="140" y1="123.629" x2="90" y2="123.629" stroke="black" stroke-width="2"/>
<line x1="138" y1="285.031" x2="88" y2="285.031" stroke="black" stroke-width="2"/>
<line x1="138" y1="526.683" x2="88" y2="526.683" stroke="black" stroke-width="2"/>
<line x1="139" y1="204.781" x2="89" y2="204.781" stroke="black" stroke-width="2"/>
<line x1="139" y1="446.433" x2="89" y2="446.433" stroke="black" stroke-width="2"/>
<line x1="137" y1="366.183" x2="87" y2="366.183" stroke="black" stroke-width="2"/>
<line x1="137" y1="607.834" x2="87" y2="607.834" stroke="black" stroke-width="2"/>
<line x1="139" y1="83.0532" x2="104" y2="83.0532" stroke="black" stroke-width="2"/>
<line x1="137" y1="244.455" x2="102" y2="244.455" stroke="black" stroke-width="2"/>
<line x1="137" y1="486.107" x2="102" y2="486.107" stroke="black" stroke-width="2"/>
<line x1="138" y1="164.205" x2="103" y2="164.205" stroke="black" stroke-width="2"/>
<line x1="138" y1="405.857" x2="103" y2="405.857" stroke="black" stroke-width="2"/>
<line x1="136" y1="325.607" x2="101" y2="325.607" stroke="black" stroke-width="2"/>
<line x1="136" y1="567.258" x2="101" y2="567.258" stroke="black" stroke-width="2"/>
<line x1="139" y1="100.186" x2="104" y2="100.186" stroke="black" stroke-width="2"/>
<line x1="137" y1="261.587" x2="102" y2="261.587" stroke="black" stroke-width="2"/>
<line x1="137" y1="503.239" x2="102" y2="503.239" stroke="black" stroke-width="2"/>
<line x1="138" y1="181.337" x2="103" y2="181.337" stroke="black" stroke-width="2"/>
<line x1="138" y1="422.989" x2="103" y2="422.989" stroke="black" stroke-width="2"/>
<line x1="136" y1="342.739" x2="101" y2="342.739" stroke="black" stroke-width="2"/>
<line x1="136" y1="584.391" x2="101" y2="584.391" stroke="black" stroke-width="2"/>
</svg>
