<svg width="1229" height="334" viewBox="0 0 1229 334" fill="none" xmlns="http://www.w3.org/2000/svg">
<rect x="1.5" y="105.5" width="1301" height="127" stroke="black" stroke-width="3" stroke-dasharray="80 80"/>
<rect x="1.5" y="42.5" width="1450" height="266" stroke="black" stroke-width="3"/>
<path d="M51.82 234.35C49.48 234.35 47.59 234.08 46.15 233.54C44.71 233.18 43.99 232.46 43.99 231.38C43.99 229.22 46.96 227.6 52.9 226.52C59.74 225.26 64.78 223.19 68.02 220.31C71.26 217.43 72.88 212.75 72.88 206.27V84.77C72.88 78.29 71.53 73.7 68.83 71C66.31 68.3 61.63 66.32 54.79 65.06C51.73 64.52 49.48 63.8 48.04 62.9C46.6 62 45.88 60.92 45.88 59.66C45.88 58.58 46.6 57.86 48.04 57.5C49.48 56.96 51.37 56.69 53.71 56.69C60.55 56.69 66.31 56.78 70.99 56.96C75.85 57.14 80.53 57.32 85.03 57.5C89.71 57.5 95.2 57.5 101.5 57.5C107.44 57.5 113.65 57.5 120.13 57.5C126.79 57.32 132.91 57.23 138.49 57.23C144.61 57.05 149.74 56.96 153.88 56.96C158.2 56.78 160.72 56.69 161.44 56.69C162.34 56.69 163.33 56.87 164.41 57.23C165.49 57.59 166.12 58.22 166.3 59.12C167.2 64.16 168.1 69.2 169 74.24C169.9 79.1 170.35 83.33 170.35 86.93C170.35 88.55 169.9 89.63 169 90.17C168.28 90.71 167.47 90.98 166.57 90.98C165.67 90.98 165.04 90.8 164.68 90.44C164.32 89.9 163.96 89.18 163.6 88.28C162.7 85.22 161.8 82.34 160.9 79.64C160 76.76 158.92 74.69 157.66 73.43C155.14 70.55 152.35 68.66 149.29 67.76C146.23 66.68 142.99 66.14 139.57 66.14H104.2C102.76 66.14 100.78 66.95 98.26 68.57C95.74 70.19 94.48 72.26 94.48 74.78V132.02C94.48 133.64 94.93 135.08 95.83 136.34C96.91 137.42 98.08 137.96 99.34 137.96H126.07C131.29 137.96 134.89 137.06 136.87 135.26C138.85 133.28 140.47 129.77 141.73 124.73C142.81 120.77 144.43 118.79 146.59 118.79C147.31 118.79 148.03 119.15 148.75 119.87C149.65 120.59 150.1 121.67 150.1 123.11C150.1 123.83 150.01 125.45 149.83 127.97C149.83 130.49 149.74 133.1 149.56 135.8C149.38 138.5 149.29 140.57 149.29 142.01C149.29 143.81 149.29 146.24 149.29 149.3C149.47 152.18 149.56 154.97 149.56 157.67C149.74 160.37 149.83 162.08 149.83 162.8C149.83 164.06 149.65 165.14 149.29 166.04C149.11 166.94 148.48 167.39 147.4 167.39C144.7 167.39 142.63 164.51 141.19 158.75C140.11 154.61 138.67 151.55 136.87 149.57C135.07 147.59 132.37 146.6 128.77 146.6H103.66C100.6 146.6 98.26 147.05 96.64 147.95C95.2 148.67 94.48 150.56 94.48 153.62V205.46C94.48 212.3 95.92 217.07 98.8 219.77C101.68 222.29 106.18 223.55 112.3 223.55H132.28C138.04 223.55 142.81 223.28 146.59 222.74C150.55 222.02 153.97 220.76 156.85 218.96C159.73 216.98 162.25 214.37 164.41 211.13C166.75 207.89 169.36 203.57 172.24 198.17C172.78 197.09 173.41 196.19 174.13 195.47C174.85 194.75 175.66 194.48 176.56 194.66C177.46 194.84 178.18 195.29 178.72 196.01C179.26 196.55 179.53 197.36 179.53 198.44C179.53 200.06 179.08 202.94 178.18 207.08C177.28 211.04 176.11 215.18 174.67 219.5C173.41 223.82 172.24 227.24 171.16 229.76C170.62 231.02 170.08 232.1 169.54 233C169.18 233.9 168.46 234.35 167.38 234.35C158.74 234.35 150.73 234.26 143.35 234.08C135.97 233.9 128.95 233.72 122.29 233.54C115.63 233.36 109.06 233.18 102.58 233C96.28 232.82 89.71 232.73 82.87 232.73C78.91 232.73 75.49 232.82 72.61 233C69.73 233.36 66.76 233.63 63.7 233.81C60.64 234.17 56.68 234.35 51.82 234.35ZM228.957 237.05C219.057 237.05 210.417 234.62 203.037 229.76C195.657 224.9 189.897 218.06 185.757 209.24C181.617 200.24 179.547 189.89 179.547 178.19C179.547 167.75 181.887 158.3 186.567 149.84C191.427 141.2 197.817 134.27 205.737 129.05C213.657 123.83 222.297 121.22 231.657 121.22C238.857 121.22 245.247 122.66 250.827 125.54C256.407 128.42 260.727 132.47 263.787 137.69C267.027 142.73 268.647 148.58 268.647 155.24C268.647 160.82 265.947 163.61 260.547 163.61H203.577C201.057 163.61 199.257 164.33 198.177 165.77C197.277 167.03 196.827 169.64 196.827 173.6C196.827 182.24 198.717 190.16 202.497 197.36C206.277 204.38 211.317 210.05 217.617 214.37C223.917 218.51 230.847 220.58 238.407 220.58C243.807 220.58 248.667 219.59 252.987 217.61C257.487 215.45 261.447 212.39 264.867 208.43C265.587 207.53 266.127 206.99 266.487 206.81C266.847 206.45 267.297 206.27 267.837 206.27C269.277 206.27 269.997 207.17 269.997 208.97C269.997 212.39 268.377 216.17 265.137 220.31C262.437 223.73 259.197 226.7 255.417 229.22C251.637 231.74 247.497 233.63 242.997 234.89C238.497 236.33 233.817 237.05 228.957 237.05ZM204.117 155.24H228.687C233.007 155.24 236.697 155.15 239.757 154.97C242.817 154.79 245.787 154.43 248.667 153.89C249.567 153.71 250.107 153.17 250.287 152.27C250.647 151.19 250.827 149.75 250.827 147.95C250.827 142.73 248.487 138.32 243.807 134.72C239.307 130.94 233.907 129.05 227.607 129.05C223.467 129.05 219.327 130.31 215.187 132.83C211.047 135.17 207.627 138.14 204.927 141.74C202.227 145.34 200.877 148.94 200.877 152.54C200.877 154.34 201.957 155.24 204.117 155.24ZM423.69 309.95C420.27 309.95 417.12 309.05 414.24 307.25C411.36 305.63 409.92 302.84 409.92 298.88C409.92 295.64 410.64 292.76 412.08 290.24C413.7 287.9 415.95 286.73 418.83 286.73C420.81 286.73 422.7 287 424.5 287.54C426.48 288.08 428.19 288.35 429.63 288.35C430.71 288.35 431.61 288.08 432.33 287.54C433.23 287.18 434.04 286.46 434.76 285.38C436.74 282.14 438.99 278.09 441.51 273.23C444.21 268.37 446.91 262.88 449.61 256.76C452.49 250.64 455.19 244.16 457.71 237.32C458.25 235.7 458.52 233.63 458.52 231.11C458.52 229.67 458.43 228.32 458.25 227.06C458.07 225.62 457.8 224.36 457.44 223.28L426.12 144.17C424.86 140.93 423.15 138.14 420.99 135.8C419.01 133.28 416.67 131.66 413.97 130.94C412.53 130.4 411.09 129.77 409.65 129.05C408.39 128.33 407.76 127.34 407.76 126.08C407.76 125 408.39 124.37 409.65 124.19C411.09 123.83 412.26 123.65 413.16 123.65C416.76 123.65 419.37 123.74 420.99 123.92C422.79 124.1 424.41 124.37 425.85 124.73C427.47 124.91 429.81 125 432.87 125C436.11 125 438.54 124.91 440.16 124.73C441.78 124.37 443.49 124.1 445.29 123.92C447.09 123.74 449.79 123.65 453.39 123.65C454.47 123.65 455.64 123.92 456.9 124.46C458.16 124.82 458.79 125.54 458.79 126.62C458.79 127.88 457.8 129.14 455.82 130.4C454.02 131.48 452.4 132.2 450.96 132.56C449.16 133.1 447.81 134.09 446.91 135.53C446.01 136.79 445.56 138.68 445.56 141.2C445.56 142.28 445.83 143.63 446.37 145.25C446.91 146.69 447.36 147.86 447.72 148.76L469.59 202.76C469.95 203.84 470.49 204.38 471.21 204.38C471.75 204.38 472.2 203.84 472.56 202.76L491.19 153.35C491.73 152.09 492.18 150.47 492.54 148.49C493.08 146.33 493.35 144.62 493.35 143.36C493.35 139.94 492.81 137.6 491.73 136.34C490.83 134.9 489.57 133.82 487.95 133.1C486.51 132.38 484.8 131.48 482.82 130.4C481.02 129.14 480.12 127.88 480.12 126.62C480.12 125.54 480.75 124.82 482.01 124.46C483.45 123.92 484.62 123.65 485.52 123.65C488.04 123.65 490.56 123.92 493.08 124.46C495.78 124.82 499.65 125 504.69 125C508.11 125 510.54 124.91 511.98 124.73C513.6 124.37 514.95 124.1 516.03 123.92C517.11 123.74 518.64 123.65 520.62 123.65C521.52 123.65 522.6 123.83 523.86 124.19C525.3 124.37 526.02 125 526.02 126.08C526.02 127.34 525.3 128.33 523.86 129.05C522.6 129.77 521.25 130.4 519.81 130.94C517.11 131.66 514.23 133.82 511.17 137.42C508.11 140.84 505.68 144.71 503.88 149.03L467.16 236.51C466.98 237.05 465.99 239.39 464.19 243.53C462.57 247.67 460.5 252.8 457.98 258.92C455.46 265.04 452.67 271.61 449.61 278.63C446.73 285.65 443.94 292.4 441.24 298.88C439.62 302.48 437.28 305.18 434.22 306.98C431.16 308.96 427.65 309.95 423.69 309.95ZM567.189 243.8C563.049 243.8 559.089 242.9 555.309 241.1C551.709 239.48 548.739 236.87 546.399 233.27C544.239 229.85 543.159 225.44 543.159 220.04C543.159 219.14 543.879 217.79 545.319 215.99C546.759 214.19 548.019 213.29 549.099 213.29C549.639 213.29 550.629 213.56 552.069 214.1C553.509 214.64 555.219 215.36 557.199 216.26C559.539 217.16 562.239 218.06 565.299 218.96C568.539 219.68 572.049 220.04 575.829 220.04C579.429 220.04 582.399 218.96 584.739 216.8C587.259 214.64 589.959 210.5 592.839 204.38C593.379 203.48 593.919 202.4 594.459 201.14C594.999 199.88 595.269 198.62 595.269 197.36C595.269 195.92 594.909 194.48 594.189 193.04C593.649 191.6 592.929 189.98 592.029 188.18L547.479 92.06C544.059 84.5 540.729 78.38 537.489 73.7C534.249 69.02 529.749 66.32 523.989 65.6C520.929 65.24 518.679 64.52 517.239 63.44C515.799 62.18 515.079 60.92 515.079 59.66C515.079 58.58 515.799 57.86 517.239 57.5C518.679 56.96 520.569 56.69 522.909 56.69C525.609 56.69 528.579 56.78 531.819 56.96C535.239 57.14 538.839 57.32 542.619 57.5C546.399 57.5 550.359 57.5 554.499 57.5C557.379 57.5 560.079 57.5 562.599 57.5C565.119 57.32 567.549 57.23 569.889 57.23C572.229 57.05 574.299 56.96 576.099 56.96C578.439 56.96 580.329 57.23 581.769 57.77C583.209 58.13 583.929 58.85 583.929 59.93C583.929 61.19 583.209 62.18 581.769 62.9C580.329 63.62 578.079 64.43 575.019 65.33C573.759 65.69 571.689 66.5 568.809 67.76C566.109 69.02 564.759 71.54 564.759 75.32C564.759 77.66 565.659 80.63 567.459 84.23C569.439 87.65 571.599 91.88 573.939 96.92L606.339 162.26C607.419 164.78 608.229 166.76 608.769 168.2C609.309 169.46 609.939 170.09 610.659 170.09C612.099 170.09 613.899 167.48 616.059 162.26L642.249 97.19C643.689 93.59 644.859 90.08 645.759 86.66C646.659 83.06 647.109 80.63 647.109 79.37C647.109 75.77 645.489 72.8 642.249 70.46C639.189 68.12 636.129 66.5 633.069 65.6C631.269 65.06 629.289 64.34 627.129 63.44C625.149 62.54 624.159 61.46 624.159 60.2C624.159 59.12 624.879 58.4 626.319 58.04C627.759 57.5 629.649 57.23 631.989 57.23C636.129 57.23 639.639 57.32 642.519 57.5C645.399 57.5 649.179 57.5 653.859 57.5C658.899 57.5 663.669 57.41 668.169 57.23C672.849 56.87 676.719 56.69 679.779 56.69C682.119 56.69 684.009 56.96 685.449 57.5C686.889 57.86 687.609 58.58 687.609 59.66C687.609 60.92 686.889 62 685.449 62.9C684.009 63.62 681.759 64.34 678.699 65.06C674.019 65.96 670.149 68.3 667.089 72.08C664.029 75.86 661.509 80.27 659.529 85.31L620.379 173.06C612.819 190.16 605.979 203.93 599.859 214.37C593.919 224.63 588.339 232.1 583.119 236.78C577.899 241.46 572.589 243.8 567.189 243.8ZM836.191 234.35C833.851 234.35 831.961 234.08 830.521 233.54C829.081 233.18 828.361 232.46 828.361 231.38C828.361 229.22 831.331 227.6 837.271 226.52C844.111 225.26 848.521 223.19 850.501 220.31C852.481 217.43 853.471 212.75 853.471 206.27V84.23C853.471 77.93 852.751 73.52 851.311 71C850.051 68.3 846.001 66.32 839.161 65.06C833.221 63.98 830.251 62.18 830.251 59.66C830.251 58.58 830.971 57.86 832.411 57.5C833.851 56.96 835.741 56.69 838.081 56.69C842.941 56.69 846.721 56.78 849.421 56.96C852.121 57.14 854.641 57.32 856.981 57.5C859.321 57.5 862.291 57.5 865.891 57.5C869.671 57.5 872.731 57.5 875.071 57.5C877.591 57.32 880.201 57.14 882.901 56.96C885.781 56.78 889.651 56.69 894.511 56.69C896.851 56.69 898.741 56.96 900.181 57.5C901.621 57.86 902.341 58.58 902.341 59.66C902.341 60.92 901.621 62 900.181 62.9C898.741 63.8 896.491 64.52 893.431 65.06C886.771 66.32 882.001 68.57 879.121 71.81C876.421 74.87 875.071 79.01 875.071 84.23V186.56C875.071 188.36 875.341 189.53 875.881 190.07C876.421 190.61 877.141 190.43 878.041 189.53L982.531 85.58C983.971 84.14 984.691 82.7 984.691 81.26V80.18C984.511 76.04 982.891 72.8 979.831 70.46C976.951 67.94 972.721 66.14 967.141 65.06C961.201 63.98 958.231 62.18 958.231 59.66C958.231 58.58 958.951 57.86 960.391 57.5C961.831 56.96 963.721 56.69 966.061 56.69C970.921 56.69 974.881 56.78 977.941 56.96C981.181 57.14 984.241 57.32 987.121 57.5C990.001 57.5 993.421 57.5 997.381 57.5C1000.62 57.5 1003.14 57.5 1004.94 57.5C1006.92 57.32 1009.08 57.14 1011.42 56.96C1013.94 56.78 1017.63 56.69 1022.49 56.69C1024.83 56.69 1026.72 56.96 1028.16 57.5C1029.6 57.86 1030.32 58.58 1030.32 59.66C1030.32 60.92 1029.6 62 1028.16 62.9C1026.72 63.8 1024.47 64.52 1021.41 65.06C1014.75 66.32 1010.61 68.48 1008.99 71.54C1007.37 74.6 1006.56 78.74 1006.56 83.96V206C1006.56 212.66 1007.46 217.43 1009.26 220.31C1011.06 223.19 1015.29 225.26 1021.95 226.52C1025.01 227.06 1027.26 227.69 1028.7 228.41C1030.14 229.13 1030.86 230.12 1030.86 231.38C1030.86 232.46 1030.14 233.18 1028.7 233.54C1027.26 234.08 1025.37 234.35 1023.03 234.35C1018.17 234.35 1014.3 234.17 1011.42 233.81C1008.72 233.63 1006.11 233.45 1003.59 233.27C1001.25 233.09 998.191 233 994.411 233C990.631 233 987.481 233.09 984.961 233.27C982.621 233.45 980.011 233.63 977.131 233.81C974.251 234.17 970.381 234.35 965.521 234.35C963.181 234.35 961.291 234.08 959.851 233.54C958.411 233.18 957.691 232.46 957.691 231.38C957.691 229.22 960.661 227.6 966.601 226.52C972.361 225.44 976.771 223.73 979.831 221.39C983.071 219.05 984.691 215.27 984.691 210.05V102.59C984.691 99.53 983.791 98.9 981.991 100.7L877.231 204.92C876.151 206 875.521 206.72 875.341 207.08C875.341 207.44 875.341 208.43 875.341 210.05C875.341 215.63 877.321 219.5 881.281 221.66C885.241 223.82 890.281 225.44 896.401 226.52C899.461 227.06 901.711 227.69 903.151 228.41C904.591 229.13 905.311 230.12 905.311 231.38C905.311 232.46 904.591 233.18 903.151 233.54C901.711 234.08 899.821 234.35 897.481 234.35C892.621 234.35 888.571 234.17 885.331 233.81C882.271 233.63 879.301 233.45 876.421 233.27C873.541 233.09 870.031 233 865.891 233C862.111 233 858.871 233.09 856.171 233.27C853.651 233.45 850.861 233.63 847.801 233.81C844.921 234.17 841.051 234.35 836.191 234.35ZM930.421 46.16C921.241 46.16 913.861 44.81 908.281 42.11C902.701 39.23 898.651 35.72 896.131 31.58C893.611 27.44 892.351 23.3 892.351 19.16C892.351 13.94 893.611 9.61999 896.131 6.19999C898.651 2.59999 901.891 0.799996 905.851 0.799996C909.271 0.799996 912.151 1.7 914.491 3.49999C916.831 5.11999 918.001 7.45999 918.001 10.52C918.001 11.78 917.821 13.22 917.461 14.84C917.281 16.28 916.921 17.63 916.381 18.89C915.841 19.97 915.391 21.05 915.031 22.13C914.671 23.21 914.491 24.2 914.491 25.1C914.491 27.44 915.841 29.69 918.541 31.85C921.421 33.83 925.651 34.82 931.231 34.82C941.311 34.82 948.781 32.3 953.641 27.26C958.681 22.04 962.101 15.56 963.901 7.81999C964.261 6.73999 964.801 5.92999 965.521 5.38999C966.421 4.84999 966.961 4.58 967.141 4.58C968.041 4.58 968.581 5.11999 968.761 6.19999C969.121 7.27999 969.301 8.26999 969.301 9.16998C969.301 16.19 967.501 22.49 963.901 28.07C960.481 33.65 955.801 38.06 949.861 41.3C944.101 44.54 937.621 46.16 930.421 46.16ZM1039.16 233.81C1038.26 233.81 1037.09 233.63 1035.65 233.27C1034.39 233.09 1033.76 232.46 1033.76 231.38C1033.76 229.94 1034.39 228.95 1035.65 228.41C1037.09 227.69 1038.53 227.06 1039.97 226.52C1042.67 225.62 1045.19 224.63 1047.53 223.55C1050.05 222.29 1051.31 219.77 1051.31 215.99V142.01C1051.31 138.41 1050.23 135.98 1048.07 134.72C1046.09 133.28 1043.75 132.2 1041.05 131.48C1039.61 130.94 1038.17 130.31 1036.73 129.59C1035.47 128.87 1034.84 127.88 1034.84 126.62C1034.84 125.54 1035.47 124.91 1036.73 124.73C1038.17 124.37 1039.34 124.19 1040.24 124.19C1043.84 124.19 1046.54 124.28 1048.34 124.46C1050.32 124.64 1052.12 124.91 1053.74 125.27C1055.54 125.45 1057.97 125.54 1061.03 125.54C1064.27 125.54 1066.61 125.45 1068.05 125.27C1069.67 124.91 1071.38 124.64 1073.18 124.46C1074.98 124.28 1077.68 124.19 1081.28 124.19C1082.18 124.19 1083.26 124.37 1084.52 124.73C1085.96 124.91 1086.68 125.54 1086.68 126.62C1086.68 127.88 1085.96 128.87 1084.52 129.59C1083.26 130.31 1081.91 130.94 1080.47 131.48C1077.77 132.2 1075.34 133.28 1073.18 134.72C1071.2 135.98 1070.21 138.41 1070.21 142.01V196.01C1070.21 196.73 1070.57 197.27 1071.29 197.63C1072.19 197.81 1072.73 197.81 1072.91 197.63L1124.48 144.44C1124.84 143.72 1125.11 143.27 1125.29 143.09C1125.65 142.91 1125.83 142.37 1125.83 141.47C1125.83 137.87 1124.93 135.53 1123.13 134.45C1121.33 133.19 1119.08 132.2 1116.38 131.48C1114.94 130.94 1113.5 130.31 1112.06 129.59C1110.8 128.87 1110.17 127.88 1110.17 126.62C1110.17 125.54 1110.8 124.91 1112.06 124.73C1113.32 124.37 1114.49 124.19 1115.57 124.19C1119.17 124.19 1121.87 124.28 1123.67 124.46C1125.47 124.64 1127.18 124.91 1128.8 125.27C1130.42 125.45 1132.76 125.54 1135.82 125.54C1139.06 125.54 1141.49 125.45 1143.11 125.27C1144.73 124.91 1146.44 124.64 1148.24 124.46C1150.22 124.28 1153.01 124.19 1156.61 124.19C1157.69 124.19 1158.86 124.37 1160.12 124.73C1161.38 124.91 1162.01 125.54 1162.01 126.62C1162.01 127.88 1161.29 128.87 1159.85 129.59C1158.59 130.31 1157.24 130.94 1155.8 131.48C1153.1 132.2 1150.58 133.28 1148.24 134.72C1145.9 135.98 1144.73 138.41 1144.73 142.01V215.99C1144.73 219.59 1145.99 222.02 1148.51 223.28C1151.21 224.54 1153.91 225.62 1156.61 226.52C1158.05 227.06 1159.4 227.69 1160.66 228.41C1162.1 228.95 1162.82 229.94 1162.82 231.38C1162.82 232.46 1162.1 233.09 1160.66 233.27C1159.4 233.63 1158.32 233.81 1157.42 233.81C1153.82 233.81 1150.94 233.63 1148.78 233.27C1146.8 233.09 1144.91 232.91 1143.11 232.73C1141.31 232.55 1138.79 232.46 1135.55 232.46C1132.49 232.46 1129.97 232.55 1127.99 232.73C1126.19 232.91 1124.21 233.09 1122.05 233.27C1120.07 233.63 1117.28 233.81 1113.68 233.81C1112.78 233.81 1111.61 233.63 1110.17 233.27C1108.91 233.09 1108.28 232.46 1108.28 231.38C1108.28 229.94 1108.91 228.95 1110.17 228.41C1111.61 227.69 1113.05 227.06 1114.49 226.52C1117.19 225.62 1119.71 224.54 1122.05 223.28C1124.57 222.02 1125.83 219.59 1125.83 215.99V158.48C1125.83 157.76 1125.74 157.31 1125.56 157.13C1125.38 156.77 1125.11 156.77 1124.75 157.13L1071.02 213.02C1070.48 213.56 1070.21 214.55 1070.21 215.99C1070.21 219.77 1071.47 222.29 1073.99 223.55C1076.69 224.63 1079.39 225.62 1082.09 226.52C1083.53 227.06 1084.88 227.69 1086.14 228.41C1087.58 228.95 1088.3 229.94 1088.3 231.38C1088.3 232.46 1087.58 233.09 1086.14 233.27C1084.88 233.63 1083.8 233.81 1082.9 233.81C1079.3 233.81 1076.42 233.63 1074.26 233.27C1072.28 233.09 1070.39 232.91 1068.59 232.73C1066.79 232.55 1064.27 232.46 1061.03 232.46C1057.97 232.46 1055.45 232.55 1053.47 232.73C1051.67 232.91 1049.69 233.09 1047.53 233.27C1045.55 233.63 1042.76 233.81 1039.16 233.81ZM1097.21 104.48C1091.99 104.48 1086.95 103.58 1082.09 101.78C1077.23 99.8 1073.27 96.92 1070.21 93.14C1067.33 89.36 1065.89 84.86 1065.89 79.64C1065.89 74.96 1066.88 71.45 1068.86 69.11C1071.02 66.59 1073.45 65.33 1076.15 65.33C1079.03 65.33 1081.28 66.14 1082.9 67.76C1084.52 69.2 1085.33 71 1085.33 73.16C1085.33 75.14 1085.24 76.76 1085.06 78.02C1085.06 79.1 1085.06 80.54 1085.06 82.34C1085.06 85.04 1086.68 87.56 1089.92 89.9C1093.34 92.06 1097.21 93.14 1101.53 93.14C1105.67 93.14 1109.81 91.79 1113.95 89.09C1118.09 86.39 1121.33 81.62 1123.67 74.78C1124.75 71.72 1125.56 69.83 1126.1 69.11C1126.82 68.21 1127.54 67.76 1128.26 67.76C1129.7 67.76 1130.42 69.02 1130.42 71.54C1130.42 78.92 1128.8 85.04 1125.56 89.9C1122.32 94.76 1118.18 98.45 1113.14 100.97C1108.1 103.31 1102.79 104.48 1097.21 104.48Z" fill="black"/>
<line y1="-1.5" x2="161" y2="-1.5" transform="matrix(-0.439177 -0.898401 -0.898401 0.439177 589 203)" stroke="black" stroke-width="3" stroke-dasharray="12 12"/>
<line x1="568.652" y1="303.341" x2="690.744" y2="53.5859" stroke="black" stroke-width="3" stroke-dasharray="12 12"/>
<line x1="61.5" y1="304" x2="61.5" y2="53" stroke="black" stroke-width="3" stroke-dasharray="12 12"/>
<line x1="843.5" y1="304" x2="843.5" y2="53" stroke="black" stroke-width="3" stroke-dasharray="12 12"/>
<line x1="24" y1="168.5" x2="351" y2="168.5" stroke="black" stroke-width="3" stroke-dasharray="8 8"/>
<path d="M592 263C610.5 271 618 277.5 626 306" stroke="black" stroke-width="2" stroke-dasharray="12 12"/>
<path d="M66 263H110V307" stroke="black" stroke-width="2" stroke-dasharray="12 12"/>
<path d="M847 263H891V307" stroke="black" stroke-width="2" stroke-dasharray="12 12"/>
<circle cx="229" cy="180" r="74.5" stroke="black" stroke-width="3" stroke-dasharray="12 12"/>
<line x1="226.5" y1="106" x2="226.5" y2="256" stroke="black" stroke-width="3" stroke-dasharray="12 12"/>
<line x1="154" y1="177.5" x2="304" y2="177.5" stroke="black" stroke-width="3" stroke-dasharray="12 12"/>
<path d="M438.922 262.449C418.24 242.524 417.626 209.605 437.551 188.922" stroke="black" stroke-width="2" stroke-dasharray="12 12"/>
<circle cx="424" cy="299" r="33.5" stroke="black" stroke-width="3" stroke-dasharray="12 12"/>
<circle cx="1058" cy="135" r="33.5" stroke="black" stroke-width="3" stroke-dasharray="12 12"/>
<circle cx="1137" cy="229" r="33.5" stroke="black" stroke-width="3" stroke-dasharray="12 12"/>
<circle cx="168" cy="71" r="33.5" stroke="black" stroke-width="3" stroke-dasharray="12 12"/>
</svg>
