<svg width="1229" height="386" viewBox="0 0 1229 386" fill="none" xmlns="http://www.w3.org/2000/svg">
<line x1="1209" y1="365.5" x2="59" y2="365.5" stroke="black" stroke-dasharray="50 50"/>
<rect x="1.5" y="99.5" width="1450" height="266" stroke="black" stroke-width="3"/>
<rect x="1.5" y="166.5" width="1301" height="127" stroke="black" stroke-width="3" stroke-dasharray="80 80"/>
<path d="M31.84 286.35C29.68 286.35 28.06 286.08 26.98 285.54C25.9 285.18 25.36 284.46 25.36 283.38C25.36 281.22 28.6 279.6 35.08 278.52C44.08 277.08 50.47 274.92 54.25 272.04C58.21 268.98 61.09 264.39 62.89 258.27L99.88 136.77C102.4 129.03 102.49 123.99 100.15 121.65C97.81 119.13 92.68 117.33 84.76 116.25C82.06 115.89 80.17 115.35 79.09 114.63C78.19 113.91 77.74 112.92 77.74 111.66C77.74 110.58 78.55 109.86 80.17 109.5C81.97 108.96 83.95 108.69 86.11 108.69C87.55 108.69 90.07 108.78 93.67 108.96C97.45 109.14 101.59 109.32 106.09 109.5C110.77 109.5 115 109.5 118.78 109.5H162.25C172.15 109.5 179.62 109.32 184.66 108.96C189.88 108.42 193.48 107.97 195.46 107.61C197.62 107.07 198.88 106.8 199.24 106.8C199.96 106.8 200.59 107.25 201.13 108.15C201.85 108.87 202.21 109.59 202.21 110.31C202.21 111.39 201.67 113.37 200.59 116.25C199.51 118.95 198.34 122.37 197.08 126.51C195.82 130.65 194.83 135.33 194.11 140.55C193.93 142.35 193.3 143.7 192.22 144.6C191.32 145.32 190.42 145.68 189.52 145.68C188.62 145.68 187.81 145.05 187.09 143.79C186.55 142.53 186.37 140.91 186.55 138.93C187.09 130.65 186.37 124.98 184.39 121.92C182.41 118.68 177.82 117.06 170.62 117.06H137.68C133.36 117.06 130.3 117.69 128.5 118.95C126.7 120.03 125.35 122.1 124.45 125.16L106.36 182.4C105.28 185.64 105.01 187.89 105.55 189.15C106.09 190.41 107.8 190.95 110.68 190.77L144.16 189.96C148.84 189.78 152.53 188.79 155.23 186.99C158.11 185.01 160.63 182.67 162.79 179.97C164.05 178.53 165.4 176.82 166.84 174.84C168.46 172.68 170.08 171.6 171.7 171.6C173.14 171.6 173.86 172.41 173.86 174.03C174.04 175.47 173.68 177.18 172.78 179.16C171.16 182.22 169.72 185.1 168.46 187.8C167.38 190.5 166.39 193.11 165.49 195.63C164.41 198.51 163.42 201.57 162.52 204.81C161.8 207.87 160.99 211.38 160.09 215.34C159.91 216.6 159.46 217.86 158.74 219.12C158.2 220.38 157.48 221.01 156.58 221.01C155.14 221.01 154.15 220.02 153.61 218.04C153.25 216.06 153.07 214.62 153.07 213.72C153.07 208.14 152.08 204.27 150.1 202.11C148.3 199.77 145.87 198.6 142.81 198.6L111.76 198.06C108.7 198.06 106 198.51 103.66 199.41C101.5 200.13 99.88 202.47 98.8 206.43L85.03 255.57C82.51 264.75 81.97 270.78 83.41 273.66C85.03 276.54 88.63 277.98 94.21 277.98H136.06C140.56 277.98 144.52 277.26 147.94 275.82C151.54 274.38 154.78 272.67 157.66 270.69C160.36 268.71 162.88 266.37 165.22 263.67C167.56 260.79 169.9 257.46 172.24 253.68C172.96 252.6 173.68 251.52 174.4 250.44C175.12 249.36 176.02 248.82 177.1 248.82C178 248.82 178.54 249.45 178.72 250.71C178.9 251.97 178.99 253.14 178.99 254.22C178.99 255.84 178.36 258.36 177.1 261.78C175.84 265.2 174.4 268.71 172.78 272.31C171.16 275.73 169.72 278.52 168.46 280.68C167.38 282.48 166.12 283.92 164.68 285C163.42 285.9 161.71 286.35 159.55 286.35C152.17 286.35 144.88 286.26 137.68 286.08C130.66 286.08 123.82 285.99 117.16 285.81C110.5 285.63 104.11 285.45 97.99 285.27C91.87 285.09 85.93 285 80.17 285C74.59 284.82 69.28 284.73 64.24 284.73C59.92 284.73 56.14 284.82 52.9 285C49.66 285.36 46.42 285.63 43.18 285.81C40.12 286.17 36.34 286.35 31.84 286.35ZM210.086 289.05C206.306 289.05 202.436 287.61 198.476 284.73C194.696 281.85 191.546 278.25 189.026 273.93C186.506 269.43 185.246 265.11 185.246 260.97C185.246 251.97 187.046 242.43 190.646 232.35C194.426 222.09 199.556 212.55 206.036 203.73C212.516 194.73 219.986 187.44 228.446 181.86C237.086 176.1 246.176 173.22 255.716 173.22C262.016 173.22 266.876 174.57 270.296 177.27C273.896 179.79 275.696 183.39 275.696 188.07C275.696 193.65 273.896 198.51 270.296 202.65C266.876 206.79 262.196 210.39 256.256 213.45C250.316 216.33 243.656 218.76 236.276 220.74C229.076 222.72 221.696 224.43 214.136 225.87C213.056 226.05 212.156 226.32 211.436 226.68C210.896 226.86 210.446 227.49 210.086 228.57C208.826 232.53 207.566 236.85 206.306 241.53C205.046 246.21 204.416 250.62 204.416 254.76C204.416 261.06 205.586 265.92 207.926 269.34C210.446 272.76 214.046 274.47 218.726 274.47C225.206 274.47 230.696 272.85 235.196 269.61C239.696 266.37 243.386 263.13 246.266 259.89C248.066 257.91 249.686 256.92 251.126 256.92C252.926 256.92 253.826 257.82 253.826 259.62C253.826 259.8 253.826 260.16 253.826 260.7C253.826 261.06 253.646 261.42 253.286 261.78C249.686 267.72 245.636 272.76 241.136 276.9C236.636 280.86 231.776 283.83 226.556 285.81C221.516 287.97 216.026 289.05 210.086 289.05ZM216.026 219.66C218.006 219.66 221.336 219.12 226.016 218.04C230.876 216.78 235.916 214.89 241.136 212.37C246.356 209.67 250.766 206.43 254.366 202.65C258.146 198.69 260.036 194.01 260.036 188.61C260.036 186.27 259.406 184.29 258.146 182.67C256.886 180.87 255.086 179.97 252.746 179.97C248.966 179.97 244.826 181.59 240.326 184.83C236.006 187.89 231.866 191.67 227.906 196.17C223.946 200.49 220.616 204.72 217.916 208.86C215.396 213 214.136 216.06 214.136 218.04C214.136 219.12 214.766 219.66 216.026 219.66ZM388.666 363.3C385.966 363.3 383.266 362.31 380.566 360.33C377.866 358.53 376.516 355.74 376.516 351.96C376.516 349.44 377.056 347.19 378.136 345.21C379.216 343.23 380.566 341.61 382.186 340.35C383.806 339.09 385.426 338.46 387.046 338.46C388.846 338.46 390.376 338.91 391.636 339.81C392.896 340.89 394.156 341.97 395.416 343.05C396.676 344.13 397.936 345.03 399.196 345.75C400.456 346.65 401.896 347.1 403.516 347.1C409.816 347.1 416.386 343.05 423.226 334.95C430.246 327.03 436.726 317.04 442.666 304.98C446.806 296.52 449.506 287.25 450.766 277.17C452.206 266.91 452.926 255.66 452.926 243.42C452.926 230.1 451.936 219.48 449.956 211.56C448.156 203.64 445.996 197.97 443.476 194.55C441.136 190.95 439.066 189.15 437.266 189.15C435.466 189.15 433.486 190.23 431.326 192.39C429.346 194.37 427.456 196.71 425.656 199.41C424.036 202.11 422.866 204.54 422.146 206.7C421.966 207.6 421.336 209.13 420.256 211.29C419.176 213.45 418.096 214.53 417.016 214.53C416.296 214.53 415.666 213.81 415.126 212.37C414.766 210.75 414.586 208.95 414.586 206.97C414.586 202.83 415.396 198.78 417.016 194.82C418.816 190.86 421.066 187.26 423.766 184.02C426.646 180.78 429.706 178.17 432.946 176.19C436.186 174.21 439.336 173.22 442.396 173.22C446.716 173.22 450.316 174.75 453.196 177.81C456.256 180.87 458.686 185.28 460.486 191.04C463.006 198.78 465.256 208.41 467.236 219.93C469.216 231.27 469.756 245.94 468.856 263.94C468.676 267.18 468.946 268.71 469.666 268.53C470.566 268.35 471.646 267.09 472.906 264.75C478.846 253.41 484.156 240.27 488.836 225.33C493.696 210.39 496.126 193.92 496.126 175.92C496.126 175.02 496.756 173.94 498.016 172.68C499.456 171.42 500.536 170.79 501.256 170.79C501.976 170.79 503.056 171.33 504.496 172.41C505.936 173.31 507.196 174.66 508.276 176.46C509.536 178.26 510.166 180.24 510.166 182.4C510.166 193.56 507.376 206.7 501.796 221.82C496.216 236.94 488.386 252.96 478.306 269.88C468.226 286.8 456.526 303.54 443.206 320.1C436.906 327.84 430.516 334.95 424.036 341.43C417.556 348.09 411.256 353.4 405.136 357.36C399.196 361.32 393.706 363.3 388.666 363.3ZM532.11 293.91C526.53 293.91 521.94 291.57 518.34 286.89C514.92 282.21 513.21 277.17 513.21 271.77C513.21 270.33 513.84 268.98 515.1 267.72C516.36 266.28 517.35 265.56 518.07 265.56C519.33 265.56 521.31 266.1 524.01 267.18C526.89 268.26 530.4 269.43 534.54 270.69C538.68 271.77 543.18 272.31 548.04 272.31C557.58 272.31 565.95 270.15 573.15 265.83C580.35 261.51 586.11 256.11 590.43 249.63C591.33 248.37 591.69 247.02 591.51 245.58C591.51 244.14 591.33 242.52 590.97 240.72L569.64 144.06C568.02 136.68 566.13 131.19 563.97 127.59C561.81 123.99 559.29 121.56 556.41 120.3C553.71 118.86 550.74 117.96 547.5 117.6C544.98 117.24 543.09 116.52 541.83 115.44C540.57 114.18 539.94 112.92 539.94 111.66C539.94 110.58 540.93 109.86 542.91 109.5C545.07 108.96 547.23 108.69 549.39 108.69C551.91 108.69 554.7 108.78 557.76 108.96C560.82 109.14 564.06 109.32 567.48 109.5C570.9 109.5 574.5 109.5 578.28 109.5C581.34 109.5 584.22 109.5 586.92 109.5C589.8 109.32 592.41 109.23 594.75 109.23C597.27 109.05 599.43 108.96 601.23 108.96C603.39 108.96 604.92 109.23 605.82 109.77C606.9 110.13 607.44 110.85 607.44 111.93C607.44 113.19 606.54 114.36 604.74 115.44C603.12 116.34 600.69 116.97 597.45 117.33C593.13 117.69 590.16 118.68 588.54 120.3C587.1 121.92 587.1 126.42 588.54 133.8L606.36 215.07C606.72 216.51 606.99 217.77 607.17 218.85C607.53 219.93 608.16 220.47 609.06 220.47C609.96 220.47 610.68 220.02 611.22 219.12C611.76 218.04 612.39 216.96 613.11 215.88L662.25 140.28C666.39 133.98 667.65 128.76 666.03 124.62C664.41 120.48 661.35 118.14 656.85 117.6C655.05 117.24 653.52 116.61 652.26 115.71C651 114.63 650.37 113.46 650.37 112.2C650.37 111.12 651.18 110.4 652.8 110.04C654.42 109.5 656.31 109.23 658.47 109.23C662.25 109.23 665.67 109.32 668.73 109.5C671.97 109.5 675.57 109.5 679.53 109.5C684.75 109.5 689.7 109.41 694.38 109.23C699.24 108.87 703.11 108.69 705.99 108.69C708.15 108.69 709.68 108.96 710.58 109.5C711.66 109.86 712.2 110.58 712.2 111.66C712.2 112.92 711.3 114 709.5 114.9C707.88 115.62 705.54 116.34 702.48 117.06C697.8 117.96 693.03 120.12 688.17 123.54C683.49 126.78 679.08 131.37 674.94 137.31L603.93 244.5C596.55 255.66 588.9 264.93 580.98 272.31C573.06 279.69 564.96 285.09 556.68 288.51C548.58 292.11 540.39 293.91 532.11 293.91ZM807.052 286.35C804.892 286.35 803.362 286.08 802.462 285.54C801.382 285.18 800.842 284.46 800.842 283.38C800.842 281.22 804.082 279.6 810.562 278.52C817.222 277.26 821.902 275.19 824.602 272.31C827.482 269.43 829.912 264.75 831.892 258.27L869.152 136.23C871.132 129.93 871.852 125.52 871.312 123C870.772 120.3 867.532 118.32 861.592 117.06C858.892 116.52 857.092 115.8 856.192 114.9C855.472 114 855.112 112.92 855.112 111.66C855.112 110.58 855.922 109.86 857.542 109.5C859.162 108.96 861.052 108.69 863.212 108.69C867.712 108.69 871.222 108.78 873.742 108.96C876.262 109.14 878.602 109.32 880.762 109.5C882.922 109.5 885.622 109.5 888.862 109.5C892.462 109.5 895.342 109.5 897.502 109.5C899.842 109.32 902.272 109.14 904.792 108.96C907.492 108.78 911.092 108.69 915.592 108.69C919.912 108.69 922.072 109.68 922.072 111.66C922.072 112.92 921.172 114 919.372 114.9C917.572 115.8 915.142 116.52 912.082 117.06C907.762 117.78 904.072 119.04 901.012 120.84C897.952 122.46 895.432 124.53 893.452 127.05C891.652 129.57 890.212 132.63 889.132 136.23L859.972 231.54C859.792 232.62 859.972 233.43 860.512 233.97C861.232 234.51 861.952 234.51 862.672 233.97L983.632 138.93C984.172 138.57 984.712 138.12 985.252 137.58C985.972 136.86 986.512 135.87 986.872 134.61L987.952 131.64C988.852 129.12 988.582 126.42 987.142 123.54C985.702 120.48 982.012 118.32 976.072 117.06C973.372 116.52 971.572 115.8 970.672 114.9C969.952 114 969.592 112.92 969.592 111.66C969.592 110.58 970.402 109.86 972.022 109.5C973.642 108.96 975.532 108.69 977.692 108.69C982.192 108.69 985.882 108.78 988.762 108.96C991.642 109.14 994.342 109.32 996.862 109.5C999.562 109.5 1002.8 109.5 1006.58 109.5C1009.64 109.5 1011.98 109.5 1013.6 109.5C1015.22 109.32 1017.11 109.14 1019.27 108.96C1021.61 108.78 1025.03 108.69 1029.53 108.69C1033.85 108.69 1036.01 109.68 1036.01 111.66C1036.01 112.92 1035.11 114 1033.31 114.9C1031.51 115.8 1029.08 116.52 1026.02 117.06C1021.7 117.78 1018.37 119.04 1016.03 120.84C1013.69 122.46 1011.89 124.53 1010.63 127.05C1009.37 129.57 1008.2 132.54 1007.12 135.96L969.592 258C967.612 264.66 966.892 269.43 967.432 272.31C967.972 275.19 971.212 277.26 977.152 278.52C979.852 279.06 981.652 279.69 982.552 280.41C983.452 281.13 983.902 282.12 983.902 283.38C983.902 284.46 983.092 285.18 981.472 285.54C979.852 286.08 977.962 286.35 975.802 286.35C971.302 286.35 967.792 286.17 965.272 285.81C962.752 285.63 960.412 285.45 958.252 285.27C956.272 285.09 953.572 285 950.152 285C946.732 285 943.762 285.09 941.242 285.27C938.902 285.45 936.382 285.63 933.682 285.81C930.982 286.17 927.382 286.35 922.882 286.35C920.722 286.35 919.102 286.08 918.022 285.54C916.942 285.18 916.402 284.46 916.402 283.38C916.402 281.22 919.642 279.6 926.122 278.52C931.882 277.62 936.742 275.55 940.702 272.31C944.662 269.07 947.542 264.57 949.342 258.81L979.312 159.99C979.672 159.09 979.762 158.1 979.582 157.02C979.582 155.76 979.222 155.4 978.502 155.94L855.382 252.33C855.022 252.51 854.662 252.78 854.302 253.14C853.942 253.5 853.582 254.22 853.222 255.3L851.872 258.81C849.712 264.39 850.072 268.8 852.952 272.04C856.012 275.28 860.242 277.44 865.642 278.52C868.342 279.06 870.142 279.69 871.042 280.41C871.942 281.13 872.392 282.12 872.392 283.38C872.392 284.46 871.582 285.18 869.962 285.54C868.342 286.08 866.452 286.35 864.292 286.35C859.792 286.35 856.102 286.17 853.222 285.81C850.342 285.63 847.552 285.45 844.852 285.27C842.152 285.09 838.912 285 835.132 285C831.532 285 828.472 285.09 825.952 285.27C823.432 285.45 820.732 285.63 817.852 285.81C815.152 286.17 811.552 286.35 807.052 286.35ZM952.312 98.16C939.892 98.16 930.892 95.64 925.312 90.6C919.732 85.38 916.942 79.44 916.942 72.78C916.942 68.28 918.562 63.87 921.802 59.55C925.042 55.05 929.182 52.8 934.222 52.8C937.282 52.8 939.712 53.52 941.512 54.96C943.312 56.4 944.212 58.29 944.212 60.63C944.212 63.15 943.672 65.31 942.592 67.11C941.692 68.73 940.702 70.26 939.622 71.7C938.722 73.14 938.272 74.85 938.272 76.83C938.272 79.35 939.172 81.69 940.972 83.85C942.952 85.83 946.732 86.82 952.312 86.82C963.472 86.82 972.292 84.21 978.772 78.99C985.252 73.59 990.472 67.02 994.432 59.28C994.972 58.2 995.422 57.48 995.782 57.12C996.142 56.76 996.682 56.58 997.402 56.58C998.302 56.58 998.752 57.48 998.752 59.28C998.752 63.06 997.492 67.2 994.972 71.7C992.632 76.2 989.302 80.52 984.982 84.66C980.842 88.62 975.982 91.86 970.402 94.38C964.822 96.9 958.792 98.16 952.312 98.16ZM1020.84 288.78C1018.86 288.78 1016.79 287.88 1014.63 286.08C1012.65 284.46 1011.12 282.48 1010.04 280.14C1008.96 277.8 1008.69 275.91 1009.23 274.47L1037.58 206.16C1038.84 203.1 1039.65 200.49 1040.01 198.33C1040.37 196.17 1039.83 195.09 1038.39 195.09C1037.49 195.09 1035.96 195.81 1033.8 197.25C1031.82 198.69 1029.48 200.49 1026.78 202.65C1024.26 204.81 1021.65 207.06 1018.95 209.4C1018.59 209.76 1017.87 209.85 1016.79 209.67C1015.89 209.49 1015.44 209.13 1015.44 208.59C1015.44 207.87 1015.62 206.88 1015.98 205.62C1016.34 204.18 1017.24 202.47 1018.68 200.49C1023.18 194.37 1028.13 189.24 1033.53 185.1C1039.11 180.96 1044.33 177.81 1049.19 175.65C1054.23 173.31 1058.01 172.14 1060.53 172.14C1061.43 172.14 1062.42 172.68 1063.5 173.76C1064.76 174.66 1065.75 175.83 1066.47 177.27C1067.19 178.53 1067.19 179.79 1066.47 181.05C1060.53 193.29 1054.86 205.71 1049.46 218.31C1044.06 230.91 1038.66 243.33 1033.26 255.57C1031.64 259.17 1030.65 262.5 1030.29 265.56C1029.93 268.62 1030.65 270.15 1032.45 270.15C1034.25 270.15 1036.95 268.62 1040.55 265.56C1044.15 262.5 1048.2 258.54 1052.7 253.68C1057.38 248.82 1062.24 243.6 1067.28 238.02C1074.12 230.28 1080.69 222.27 1086.99 213.99C1093.47 205.71 1099.05 198.24 1103.73 191.58C1108.41 184.92 1111.47 180.24 1112.91 177.54C1113.81 175.74 1114.89 174.57 1116.15 174.03C1117.41 173.49 1118.58 173.22 1119.66 173.22C1120.74 173.22 1121.82 173.76 1122.9 174.84C1123.98 175.92 1124.79 177.18 1125.33 178.62C1126.05 180.06 1126.14 181.32 1125.6 182.4L1091.04 261.78C1089.6 265.2 1088.97 267.81 1089.15 269.61C1089.33 271.41 1090.23 272.31 1091.85 272.31C1094.19 272.31 1097.25 271.05 1101.03 268.53C1104.81 266.01 1108.68 263.13 1112.64 259.89C1116.6 256.47 1119.93 253.41 1122.63 250.71C1122.81 250.53 1123.08 250.44 1123.44 250.44C1123.98 250.44 1124.52 250.71 1125.06 251.25C1125.6 251.61 1125.87 252.15 1125.87 252.87C1125.87 253.23 1125.78 253.59 1125.6 253.95C1125.42 254.31 1125.15 254.76 1124.79 255.3C1124.61 255.84 1124.25 256.47 1123.71 257.19C1123.35 257.91 1122.81 258.72 1122.09 259.62C1121.55 260.34 1120.83 261.24 1119.93 262.32C1116.51 266.64 1112.55 270.87 1108.05 275.01C1103.55 278.97 1098.69 282.3 1093.47 285C1088.43 287.52 1083.03 288.78 1077.27 288.78C1074.93 288.78 1072.77 287.25 1070.79 284.19C1068.99 281.13 1068.63 278.43 1069.71 276.09C1072.23 270.69 1074.93 264.93 1077.81 258.81C1080.69 252.69 1083.21 247.02 1085.37 241.8C1087.71 236.58 1089.33 232.71 1090.23 230.19C1091.13 228.03 1091.04 226.86 1089.96 226.68C1088.88 226.5 1087.89 226.95 1086.99 228.03C1077.63 238.29 1069.35 247.29 1062.15 255.03C1054.95 262.59 1048.65 268.89 1043.25 273.93C1038.03 278.79 1033.53 282.48 1029.75 285C1026.15 287.52 1023.18 288.78 1020.84 288.78ZM1091.85 156.48C1085.91 156.48 1080.78 155.49 1076.46 153.51C1072.32 151.35 1069.17 148.65 1067.01 145.41C1064.85 142.17 1063.77 138.84 1063.77 135.42C1063.77 129.66 1065.12 125.16 1067.82 121.92C1070.7 118.68 1073.85 117.06 1077.27 117.06C1080.33 117.06 1082.49 117.78 1083.75 119.22C1085.01 120.66 1085.64 122.28 1085.64 124.08C1085.64 125.52 1085.19 127.32 1084.29 129.48C1083.39 131.46 1082.94 133.62 1082.94 135.96C1082.94 138.84 1083.75 141 1085.37 142.44C1087.17 143.88 1090.23 144.6 1094.55 144.6C1100.85 144.6 1106.34 143.34 1111.02 140.82C1115.88 138.12 1120.02 133.44 1123.44 126.78C1125.06 123.72 1126.32 121.83 1127.22 121.11C1128.12 120.21 1129.11 119.76 1130.19 119.76C1131.09 119.76 1131.72 120.21 1132.08 121.11C1132.44 121.83 1132.62 122.46 1132.62 123C1132.62 127.32 1131.36 131.46 1128.84 135.42C1126.5 139.38 1123.35 142.98 1119.39 146.22C1115.43 149.28 1111.02 151.8 1106.16 153.78C1101.3 155.58 1096.53 156.48 1091.85 156.48Z" fill="black"/>
<line x1="533.765" y1="359.149" x2="706.177" y2="108.769" stroke="black" stroke-width="3" stroke-dasharray="12 12"/>
<line y1="-1.5" x2="161" y2="-1.5" transform="matrix(-0.217315 -0.976102 -0.976102 0.217315 587 267)" stroke="black" stroke-width="3" stroke-dasharray="12 12"/>
<line x1="22.5659" y1="359.56" x2="99.9784" y2="107.165" stroke="black" stroke-width="3" stroke-dasharray="12 12"/>
<line x1="790.566" y1="359.56" x2="867.978" y2="107.165" stroke="black" stroke-width="3" stroke-dasharray="12 12"/>
<path d="M560.286 320.581C580.952 326.651 592.784 348.325 586.714 368.991" stroke="black" stroke-width="2" stroke-dasharray="12 12"/>
<path d="M38.419 324.072C59.5693 325.755 74.7949 352.398 67.0483 369.792" stroke="black" stroke-width="2" stroke-dasharray="12 12"/>
<path d="M811 317C829.5 325 837 331.5 845 360" stroke="black" stroke-width="2" stroke-dasharray="12 12"/>
<path d="M289.963 236.453C288.785 240.631 287.29 244.81 285.468 248.946L284.096 248.341C283.225 250.319 282.278 252.286 281.255 254.239C280.232 256.192 279.153 258.09 278.023 259.931L279.302 260.716C276.938 264.568 274.354 268.176 271.589 271.523L270.433 270.567C267.6 273.997 264.575 277.145 261.405 279.993L262.407 281.109C259.038 284.135 255.504 286.83 251.858 289.169L251.048 287.906C247.304 290.308 243.445 292.324 239.529 293.93L240.098 295.318C235.906 297.037 231.644 298.3 227.38 299.075L227.112 297.599C222.79 298.384 218.477 298.653 214.245 298.377L214.147 299.874C209.717 299.585 205.364 298.715 201.169 297.227L201.671 295.814C199.667 295.103 197.7 294.247 195.78 293.241C193.86 292.235 192.036 291.105 190.312 289.862L189.435 291.079C185.824 288.477 182.631 285.394 179.871 281.916L181.046 280.983C178.41 277.661 176.176 273.962 174.361 269.962L172.995 270.581C171.205 266.635 169.817 262.412 168.844 257.986L170.309 257.664C169.401 253.53 168.862 249.21 168.705 244.765L167.206 244.817C167.053 240.488 167.257 236.049 167.827 231.556L169.315 231.745C169.852 227.517 170.719 223.239 171.926 218.957L170.482 218.55C171.66 214.372 173.155 210.193 174.977 206.057L176.35 206.662C177.22 204.685 178.167 202.717 179.19 200.764C180.213 198.811 181.292 196.913 182.422 195.072L181.143 194.287C183.507 190.436 186.091 186.827 188.856 183.481L190.012 184.436C192.846 181.006 195.87 177.858 199.04 175.01L198.038 173.894C201.407 170.868 204.941 168.173 208.587 165.834L209.397 167.097C213.141 164.695 217 162.679 220.916 161.073L220.347 159.685C224.539 157.966 228.801 156.703 233.065 155.928L233.333 157.404C237.655 156.619 241.968 156.35 246.2 156.626L246.298 155.129C250.728 155.418 255.081 156.288 259.276 157.776L258.774 159.189C260.778 159.9 262.745 160.756 264.665 161.762C266.585 162.768 268.409 163.898 270.134 165.141L271.011 163.924C274.621 166.526 277.814 169.609 280.574 173.087L279.399 174.02C282.035 177.342 284.269 181.041 286.084 185.042L287.45 184.422C289.24 188.368 290.628 192.591 291.601 197.017L290.136 197.339C291.044 201.473 291.583 205.794 291.74 210.239L293.239 210.186C293.392 214.515 293.188 218.954 292.618 223.447L291.13 223.259C290.593 227.486 289.726 231.765 288.519 236.046L289.963 236.453Z" stroke="black" stroke-width="3" stroke-dasharray="12 12"/>
<path d="M416.359 317.251C445.6 291.125 448.126 246.241 422 217" stroke="black" stroke-width="2" stroke-dasharray="12 12"/>
<path d="M997.054 262.933C994.263 282.823 1008.12 301.209 1028.01 304" stroke="black" stroke-width="2" stroke-dasharray="10 10"/>
<path d="M1144.83 196.239C1145.06 179.211 1131.44 165.225 1114.41 165" stroke="black" stroke-width="2" stroke-dasharray="10 10"/>
<circle cx="389" cy="351" r="33.5" stroke="black" stroke-width="3" stroke-dasharray="12 12"/>
<circle cx="1114" cy="266" r="33.5" stroke="black" stroke-width="3" stroke-dasharray="12 12"/>
<circle cx="1044" cy="194" r="33.5" stroke="black" stroke-width="3" stroke-dasharray="12 12"/>
<circle cx="190" cy="124" r="33.5" stroke="black" stroke-width="3" stroke-dasharray="12 12"/>
</svg>
