<svg width="838" height="441" viewBox="0 0 838 441" fill="none" xmlns="http://www.w3.org/2000/svg">
<path d="M63.1566 210.4C62.5699 210.4 62.0632 210.293 61.6366 210.08C61.2632 209.92 61.0766 209.573 61.0766 209.04C61.0766 208.507 61.2366 208.133 61.5566 207.92C61.9299 207.653 62.3566 207.44 62.8366 207.28C64.4366 206.853 65.7966 206.187 66.9166 205.28C68.0899 204.373 68.9432 203.333 69.4766 202.16C70.7566 199.227 71.9832 196.32 73.1566 193.44C74.3299 190.56 75.4766 187.707 76.5966 184.88C77.7166 182 78.8099 179.12 79.8766 176.24C80.9966 173.307 82.0899 170.373 83.1566 167.44C84.0632 164.987 84.6232 163.253 84.8366 162.24C85.0499 161.173 85.2366 160.613 85.3966 160.56C86.4632 160.293 87.4499 160.053 88.3566 159.84C89.2632 159.573 90.2766 159.253 91.3966 158.88C92.4099 158.507 93.2899 158.053 94.0366 157.52C94.8366 156.933 95.4232 156.453 95.7966 156.08C96.0632 155.92 96.3032 155.813 96.5166 155.76C96.7832 155.707 97.0232 155.893 97.2366 156.32C97.4499 156.693 97.6099 157.067 97.7166 157.44C97.8766 157.76 98.0099 158.133 98.1166 158.56C99.1832 162.08 100.277 165.627 101.397 169.2C102.57 172.773 103.743 176.4 104.917 180.08C106.09 183.707 107.263 187.36 108.437 191.04C109.663 194.72 110.863 198.427 112.037 202.16C112.303 203.013 112.73 203.787 113.317 204.48C113.957 205.12 114.703 205.68 115.557 206.16C116.41 206.587 117.37 206.96 118.437 207.28C118.917 207.44 119.317 207.627 119.637 207.84C120.01 208.053 120.197 208.427 120.197 208.96C120.197 209.333 120.037 209.627 119.717 209.84C119.45 210.053 119.103 210.16 118.677 210.16C117.557 210.16 116.17 210.133 114.517 210.08C112.917 210.027 111.29 209.973 109.637 209.92C108.037 209.867 106.623 209.84 105.397 209.84C104.33 209.84 103.023 209.867 101.477 209.92C99.9299 209.973 98.3566 210.027 96.7566 210.08C95.1566 210.187 93.7699 210.24 92.5966 210.24C92.1699 210.24 91.7699 210.133 91.3966 209.92C91.0766 209.707 90.9166 209.413 90.9166 209.04C90.9166 208.56 91.0766 208.187 91.3966 207.92C91.7699 207.6 92.1966 207.387 92.6766 207.28C94.7032 206.853 96.1966 206.293 97.1566 205.6C98.1166 204.907 98.3832 203.787 97.9566 202.24C97.6899 201.173 97.3966 200.133 97.0766 199.12C96.8099 198.107 96.5432 197.093 96.2766 196.08C96.0099 195.013 95.7432 193.973 95.4766 192.96C95.3699 192.533 95.2366 192.213 95.0766 192C94.9166 191.733 94.6232 191.6 94.1966 191.6H80.2766C79.8499 191.6 79.5299 191.733 79.3166 192C79.1566 192.213 79.0232 192.533 78.9166 192.96C78.7032 193.76 78.4632 194.507 78.1966 195.2C77.9832 195.84 77.7699 196.48 77.5566 197.12C77.3432 197.76 77.1299 198.427 76.9166 199.12C76.7032 199.76 76.4899 200.48 76.2766 201.28C75.7966 202.987 75.8766 204.267 76.5166 205.12C77.1566 205.973 78.7299 206.693 81.2366 207.28C82.4099 207.547 82.9966 208.133 82.9966 209.04C82.9966 209.413 82.8632 209.707 82.5966 209.92C82.3299 210.08 81.9032 210.16 81.3166 210.16C79.5566 210.16 78.0099 210.107 76.6766 210C75.3432 209.947 73.8766 209.92 72.2766 209.92C70.7299 209.92 69.2366 210 67.7966 210.16C66.4099 210.32 64.8632 210.4 63.1566 210.4ZM82.5166 186.96H92.5166C93.3166 186.96 93.7166 186.773 93.7166 186.4C93.7166 186.187 93.6899 186.053 93.6366 186C93.6366 185.893 93.6099 185.733 93.5566 185.52L88.4366 167.84C88.2766 167.307 88.1166 167.04 87.9566 167.04C87.8499 167.04 87.6899 167.307 87.4766 167.84L81.3166 185.52C81.2099 185.733 81.1566 185.947 81.1566 186.16C81.1566 186.427 81.2899 186.64 81.5566 186.8C81.8766 186.907 82.1966 186.96 82.5166 186.96Z" fill="black"/>
<path d="M20.4142 79.5858C19.6332 78.8047 18.3669 78.8047 17.5858 79.5858L4.85788 92.3137C4.07683 93.0948 4.07683 94.3611 4.85788 95.1422C5.63893 95.9232 6.90526 95.9232 7.68631 95.1422L19 83.8284L30.3137 95.1422C31.0948 95.9232 32.3611 95.9232 33.1422 95.1422C33.9232 94.3611 33.9232 93.0948 33.1422 92.3137L20.4142 79.5858ZM21 428L21 81L17 81L17 428L21 428Z" fill="black"/>
<path d="M790.414 427.414C791.195 426.633 791.195 425.367 790.414 424.586L777.686 411.858C776.905 411.077 775.639 411.077 774.858 411.858C774.077 412.639 774.077 413.905 774.858 414.686L786.172 426L774.858 437.314C774.077 438.095 774.077 439.361 774.858 440.142C775.639 440.923 776.905 440.923 777.686 440.142L790.414 427.414ZM19 428H789V424H19V428Z" fill="black"/>
<path d="M56.775 347.4C56.1883 347.4 55.735 347.293 55.415 347.08C55.0417 346.92 54.9083 346.573 55.015 346.04C55.1217 345.507 55.3883 345.107 55.815 344.84C56.1883 344.573 56.6417 344.387 57.175 344.28C58.135 344.067 59.2817 343.747 60.615 343.32C61.9483 342.893 63.255 342.333 64.535 341.64C65.8683 340.947 66.9617 340.12 67.815 339.16C71.2283 335.267 74.615 331.4 77.975 327.56C81.3883 323.72 84.8017 319.88 88.215 316.04C91.6283 312.147 95.0417 308.28 98.455 304.44C99.4683 303.32 100.295 302.2 100.935 301.08C101.628 299.907 102.188 298.947 102.615 298.2C103.095 297.4 103.495 297 103.815 297C105.202 297 106.588 296.893 107.975 296.68C109.362 296.413 110.562 296.013 111.575 295.48C112.482 295 113.335 294.52 114.135 294.04C114.935 293.507 115.602 293.24 116.135 293.24C116.722 293.24 117.042 293.8 117.095 294.92C117.202 295.987 117.122 297.187 116.855 298.52L109.015 338.04C108.695 339.693 108.935 341 109.735 341.96C110.588 342.92 112.028 343.693 114.055 344.28C114.642 344.44 115.122 344.627 115.495 344.84C115.922 345 116.135 345.373 116.135 345.96C116.135 346.333 115.815 346.627 115.175 346.84C114.588 347.053 114.082 347.16 113.655 347.16C112.535 347.16 111.202 347.133 109.655 347.08C108.162 347.027 106.642 346.973 105.095 346.92C103.548 346.867 102.162 346.84 100.935 346.84C99.8683 346.84 98.5617 346.867 97.015 346.92C95.4683 346.973 93.895 347.027 92.295 347.08C90.695 347.187 89.3083 347.24 88.135 347.24C87.0683 347.24 86.5883 346.84 86.695 346.04C86.7483 345.56 86.9883 345.187 87.415 344.92C87.8417 344.6 88.3217 344.387 88.855 344.28C90.0817 344.013 91.1217 343.693 91.975 343.32C92.8283 342.893 93.5217 342.36 94.055 341.72C94.6417 341.08 95.0417 340.253 95.255 339.24L97.655 329.48C97.7617 329.053 97.7083 328.733 97.495 328.52C97.335 328.253 97.0417 328.12 96.615 328.12H83.735C83.3083 328.12 82.9083 328.28 82.535 328.6C82.215 328.867 81.9217 329.16 81.655 329.48L76.695 335.8C75.3617 337.507 74.535 338.92 74.215 340.04C73.9483 341.16 74.1617 342.067 74.855 342.76C75.5483 343.4 76.6417 343.907 78.135 344.28C78.615 344.387 79.0683 344.6 79.495 344.92C79.975 345.187 80.1883 345.56 80.135 346.04C80.0817 346.413 79.7883 346.707 79.255 346.92C78.7217 347.08 78.1617 347.16 77.575 347.16C75.815 347.16 74.1083 347.107 72.455 347C70.855 346.947 69.255 346.92 67.655 346.92C66.1083 346.92 64.3217 347 62.295 347.16C60.3217 347.32 58.4817 347.4 56.775 347.4ZM87.735 324.28H97.575C98.0017 324.28 98.3217 324.227 98.535 324.12C98.7483 324.013 98.8817 323.773 98.935 323.4L102.695 305.88C102.802 305.56 102.855 305.267 102.855 305C102.908 304.733 102.828 304.6 102.615 304.6C102.562 304.6 102.428 304.653 102.215 304.76C102.002 304.867 101.815 305 101.655 305.16L86.935 322.84C86.455 323.373 86.2417 323.747 86.295 323.96C86.4017 324.173 86.8817 324.28 87.735 324.28Z" fill="black"/>
<path d="M145.31 346.12C144.563 346.12 143.79 345.907 142.99 345.48C142.19 345.053 141.523 344.52 140.99 343.88C140.456 343.187 140.19 342.547 140.19 341.96C140.19 340.413 140.643 338.733 141.55 336.92C142.403 335.053 143.923 332.733 146.11 329.96C148.296 327.133 151.336 323.48 155.23 319C157.416 316.493 159.55 314.44 161.63 312.84C163.71 311.24 165.256 310.44 166.27 310.44C167.816 310.44 169.576 311.213 171.55 312.76C171.816 313.027 171.976 313.187 172.03 313.24C172.136 313.293 172.216 313.32 172.27 313.32C172.376 313.32 172.43 313.32 172.43 313.32C172.483 313.267 172.59 313.08 172.75 312.76C173.07 312.12 173.31 311.64 173.47 311.32C173.63 310.947 173.79 310.573 173.95 310.2C174.216 309.56 174.936 309.24 176.11 309.24C177.016 309.24 177.976 309.453 178.99 309.88C180.003 310.307 180.856 310.813 181.55 311.4C182.296 311.987 182.67 312.547 182.67 313.08C182.67 313.4 182.643 313.587 182.59 313.64L174.83 334.92C174.403 336.2 174.67 336.84 175.63 336.84C176.163 336.84 177.043 336.387 178.27 335.48C179.55 334.573 180.856 333.453 182.19 332.12C182.35 331.96 182.43 331.88 182.43 331.88C182.43 331.88 182.456 331.88 182.51 331.88C182.776 331.88 183.016 332.013 183.23 332.28C183.443 332.547 183.55 332.867 183.55 333.24C183.55 334.093 183.016 335.213 181.95 336.6C180.883 337.933 179.47 339.32 177.71 340.76C175.683 342.413 173.683 343.72 171.71 344.68C169.79 345.64 168.216 346.12 166.99 346.12C166.136 346.12 165.256 345.88 164.35 345.4C163.443 344.92 162.696 344.333 162.11 343.64C161.523 342.893 161.23 342.173 161.23 341.48C161.23 341.16 161.363 340.547 161.63 339.64C161.79 339.16 161.976 338.653 162.19 338.12C162.403 337.587 162.616 337.053 162.83 336.52C163.043 335.987 163.256 335.453 163.47 334.92C163.736 334.387 163.976 333.853 164.19 333.32C164.296 333.107 164.243 332.947 164.03 332.84C163.816 332.733 163.656 332.733 163.55 332.84C160.936 335.88 158.51 338.387 156.27 340.36C154.083 342.333 152.083 343.8 150.27 344.76C148.51 345.667 146.856 346.12 145.31 346.12ZM154.59 336.92C155.443 336.92 156.803 336.12 158.67 334.52C160.59 332.867 162.483 330.867 164.35 328.52C166.003 326.493 167.31 324.707 168.27 323.16C169.23 321.56 169.71 320.44 169.71 319.8C169.71 319.32 169.123 318.6 167.95 317.64C167.416 317.213 166.856 316.867 166.27 316.6C165.683 316.28 165.203 316.12 164.83 316.12C164.03 316.12 162.936 316.6 161.55 317.56C160.163 318.52 158.856 319.613 157.63 320.84C156.67 321.8 155.763 323.053 154.91 324.6C154.11 326.093 153.443 327.693 152.91 329.4C152.43 331.053 152.19 332.6 152.19 334.04C152.19 334.947 152.403 335.667 152.83 336.2C153.256 336.68 153.843 336.92 154.59 336.92Z" fill="black"/>
<path d="M152.669 209.12C151.123 209.12 149.709 208.773 148.429 208.08C147.149 207.44 146.136 206.56 145.389 205.44C144.643 204.267 144.269 202.987 144.269 201.6C144.269 199.733 144.856 198.16 146.029 196.88C147.256 195.6 149.016 194.453 151.309 193.44L158.189 190.4C159.256 189.92 159.923 189.493 160.189 189.12C160.456 188.693 160.589 187.973 160.589 186.96L160.669 182.56C160.723 181.013 160.483 179.84 159.949 179.04C159.416 178.187 158.589 177.76 157.469 177.76C156.829 177.76 156.163 177.92 155.469 178.24C154.776 178.507 154.269 178.827 153.949 179.2C153.789 179.413 153.683 179.653 153.629 179.92C153.576 180.187 153.549 180.453 153.549 180.72C153.549 181.04 153.576 181.467 153.629 182C153.683 182.48 153.709 182.88 153.709 183.2C153.709 183.573 153.256 184.027 152.349 184.56C151.443 185.04 150.403 185.493 149.229 185.92C148.056 186.293 147.043 186.48 146.189 186.48C145.763 186.48 145.389 186.32 145.069 186C144.803 185.627 144.669 185.173 144.669 184.64C144.669 183.787 144.963 182.96 145.549 182.16C146.136 181.36 147.123 180.4 148.509 179.28C149.949 178.107 151.523 177.067 153.229 176.16C154.936 175.253 156.616 174.533 158.269 174C159.923 173.413 161.336 173.12 162.509 173.12C165.549 173.12 167.976 174.107 169.789 176.08C171.603 178 172.456 180.587 172.349 183.84L171.949 199.36C171.896 200.587 172.083 201.653 172.509 202.56C172.989 203.413 173.576 203.84 174.269 203.84C175.229 203.84 176.083 203.493 176.829 202.8C176.989 202.64 177.149 202.56 177.309 202.56C177.576 202.56 177.789 202.667 177.949 202.88C178.163 203.04 178.269 203.253 178.269 203.52C178.269 204.16 177.736 205.013 176.669 206.08C175.656 207.093 174.563 207.84 173.389 208.32C172.216 208.853 170.989 209.12 169.709 209.12C166.616 209.12 164.029 207.573 161.949 204.48H161.789C160.029 206.133 158.456 207.307 157.069 208C155.683 208.747 154.216 209.12 152.669 209.12ZM157.629 203.6C158.109 203.6 158.509 203.52 158.829 203.36C159.149 203.2 159.443 202.933 159.709 202.56C159.869 202.347 159.976 202.08 160.029 201.76C160.136 201.44 160.189 201.093 160.189 200.72L160.429 194.56C160.429 194.08 160.349 193.787 160.189 193.68C160.029 193.52 159.843 193.44 159.629 193.44C159.523 193.44 159.389 193.467 159.229 193.52C159.123 193.52 158.989 193.573 158.829 193.68C157.549 194.373 156.563 195.093 155.869 195.84C155.229 196.533 154.909 197.813 154.909 199.68C154.909 201.227 155.203 202.267 155.789 202.8C156.429 203.333 157.043 203.6 157.629 203.6Z" fill="black"/>
<path d="M290.781 209.12C289.341 209.12 288.008 208.773 286.781 208.08C285.554 207.387 284.568 206.48 283.821 205.36C283.128 204.24 282.781 203.013 282.781 201.68C282.781 199.867 283.341 198.347 284.461 197.12C285.634 195.893 287.341 194.8 289.581 193.84L296.701 190.72C297.768 190.24 298.408 189.813 298.621 189.44C298.888 189.067 299.021 188.373 299.021 187.36L299.101 182.8C299.154 181.307 298.888 180.133 298.301 179.28C297.714 178.373 296.834 177.92 295.661 177.92C294.968 177.92 294.274 178.08 293.581 178.4C292.888 178.667 292.354 178.987 291.981 179.36C291.821 179.573 291.688 179.84 291.581 180.16C291.528 180.427 291.501 180.72 291.501 181.04C291.501 181.36 291.528 181.76 291.581 182.24C291.634 182.667 291.661 183.04 291.661 183.36C291.661 183.68 291.234 184.107 290.381 184.64C289.528 185.12 288.541 185.573 287.421 186C286.301 186.373 285.341 186.56 284.541 186.56C284.168 186.56 283.821 186.4 283.501 186.08C283.234 185.76 283.101 185.36 283.101 184.88C283.101 184.027 283.394 183.2 283.981 182.4C284.568 181.547 285.528 180.587 286.861 179.52C288.248 178.347 289.768 177.307 291.421 176.4C293.074 175.493 294.701 174.773 296.301 174.24C297.954 173.707 299.341 173.44 300.461 173.44C303.341 173.44 305.634 174.373 307.341 176.24C309.048 178.053 309.848 180.48 309.741 183.52L309.341 199.68C309.288 200.907 309.501 201.947 309.981 202.8C310.461 203.653 311.048 204.08 311.741 204.08C312.754 204.08 313.634 203.733 314.381 203.04C314.541 202.88 314.701 202.8 314.861 202.8C315.128 202.8 315.341 202.88 315.501 203.04C315.714 203.2 315.821 203.413 315.821 203.68C315.821 204.32 315.341 205.147 314.381 206.16C313.368 207.12 312.301 207.84 311.181 208.32C310.061 208.853 308.888 209.12 307.661 209.12C304.674 209.12 302.194 207.6 300.221 204.56H300.061C298.301 206.16 296.701 207.307 295.261 208C293.874 208.747 292.381 209.12 290.781 209.12ZM295.581 203.92C296.168 203.92 296.648 203.84 297.021 203.68C297.394 203.467 297.768 203.147 298.141 202.72C298.301 202.507 298.434 202.24 298.541 201.92C298.648 201.547 298.701 201.12 298.701 200.64L298.941 194.88C298.941 194.347 298.861 194 298.701 193.84C298.541 193.68 298.354 193.6 298.141 193.6C298.034 193.6 297.901 193.627 297.741 193.68C297.581 193.733 297.394 193.813 297.181 193.92C295.634 194.667 294.488 195.44 293.741 196.24C292.994 196.987 292.621 198.213 292.621 199.92C292.621 201.467 292.941 202.533 293.581 203.12C294.221 203.653 294.888 203.92 295.581 203.92Z" fill="black"/>
<path d="M427.008 209.12C425.728 209.12 424.501 208.773 423.328 208.08C422.208 207.387 421.301 206.48 420.608 205.36C419.914 204.24 419.568 203.093 419.568 201.92C419.568 200.107 420.101 198.64 421.168 197.52C422.234 196.347 423.834 195.307 425.968 194.4L433.408 191.2C434.474 190.773 435.114 190.373 435.328 190C435.594 189.627 435.728 188.933 435.728 187.92L435.888 183.2C435.941 181.707 435.621 180.507 434.928 179.6C434.288 178.693 433.301 178.24 431.968 178.24C431.274 178.24 430.554 178.373 429.808 178.64C429.061 178.907 428.474 179.253 428.048 179.68C427.834 179.893 427.674 180.187 427.568 180.56C427.514 180.88 427.488 181.2 427.488 181.52C427.488 181.787 427.488 182.133 427.488 182.56C427.541 182.933 427.568 183.28 427.568 183.6C427.568 183.92 427.168 184.32 426.368 184.8C425.568 185.28 424.661 185.707 423.648 186.08C422.634 186.453 421.781 186.64 421.088 186.64C420.714 186.64 420.421 186.507 420.208 186.24C419.994 185.973 419.888 185.653 419.888 185.28C419.888 184.427 420.154 183.573 420.688 182.72C421.274 181.813 422.181 180.853 423.408 179.84C424.741 178.72 426.208 177.733 427.808 176.88C429.408 175.973 430.954 175.253 432.448 174.72C433.994 174.187 435.328 173.92 436.448 173.92C439.008 173.92 441.061 174.773 442.608 176.48C444.154 178.133 444.901 180.32 444.848 183.04L444.448 200.16C444.394 201.333 444.608 202.32 445.088 203.12C445.621 203.92 446.261 204.32 447.008 204.32C448.128 204.32 449.034 204 449.728 203.36C449.941 203.147 450.128 203.04 450.288 203.04C450.554 203.04 450.768 203.147 450.928 203.36C451.141 203.52 451.248 203.733 451.248 204C451.248 204.587 450.821 205.307 449.968 206.16C449.008 207.12 447.968 207.84 446.848 208.32C445.781 208.853 444.714 209.12 443.648 209.12C440.821 209.12 438.528 207.653 436.768 204.72H436.528C434.768 206.267 433.141 207.387 431.648 208.08C430.208 208.773 428.661 209.12 427.008 209.12ZM431.408 204.32C432.154 204.32 432.794 204.213 433.328 204C433.861 203.733 434.314 203.387 434.688 202.96C434.901 202.693 435.061 202.373 435.168 202C435.328 201.627 435.434 201.093 435.488 200.4L435.648 195.28C435.701 194.747 435.648 194.4 435.488 194.24C435.328 194.027 435.141 193.92 434.928 193.92C434.821 193.92 434.661 193.947 434.448 194C434.234 194 433.994 194.08 433.728 194.24C431.754 195.04 430.341 195.893 429.488 196.8C428.634 197.707 428.208 198.88 428.208 200.32C428.208 201.76 428.554 202.8 429.248 203.44C429.941 204.027 430.661 204.32 431.408 204.32Z" fill="black"/>
<path d="M562.157 212.12C561.037 212.12 559.943 211.747 558.877 211C557.81 210.307 556.93 209.427 556.237 208.36C555.543 207.24 555.197 206.147 555.197 205.08C555.197 203.32 555.677 201.907 556.637 200.84C557.65 199.773 559.197 198.813 561.277 197.96L569.037 194.68C570.103 194.253 570.743 193.88 570.957 193.56C571.17 193.187 571.303 192.467 571.357 191.4L571.517 186.52C571.57 185.08 571.223 183.88 570.477 182.92C569.73 181.96 568.637 181.48 567.197 181.48C566.45 181.48 565.677 181.64 564.877 181.96C564.13 182.227 563.517 182.547 563.037 182.92C562.77 183.133 562.583 183.427 562.477 183.8C562.423 184.173 562.397 184.573 562.397 185C562.397 185.267 562.397 185.587 562.397 185.96C562.45 186.28 562.477 186.547 562.477 186.76C562.477 187.08 562.103 187.48 561.357 187.96C560.663 188.387 559.837 188.787 558.877 189.16C557.97 189.533 557.197 189.72 556.557 189.72C556.237 189.72 555.97 189.64 555.757 189.48C555.597 189.267 555.517 189 555.517 188.68C555.517 187.827 555.783 186.947 556.317 186.04C556.903 185.08 557.757 184.12 558.877 183.16C560.157 182.04 561.543 181.053 563.037 180.2C564.583 179.293 566.077 178.6 567.517 178.12C569.01 177.64 570.317 177.4 571.437 177.4C573.677 177.4 575.49 178.173 576.877 179.72C578.317 181.213 578.983 183.16 578.877 185.56L578.477 203.64C578.423 204.813 578.663 205.773 579.197 206.52C579.73 207.267 580.397 207.64 581.197 207.64C582.423 207.64 583.383 207.32 584.077 206.68C584.29 206.467 584.477 206.36 584.637 206.36C584.903 206.36 585.117 206.44 585.277 206.6C585.49 206.76 585.597 206.973 585.597 207.24C585.597 207.88 585.223 208.547 584.477 209.24C583.57 210.147 582.583 210.84 581.517 211.32C580.503 211.853 579.517 212.12 578.557 212.12C575.89 212.12 573.757 210.68 572.157 207.8H571.917C570.157 209.293 568.503 210.387 566.957 211.08C565.41 211.773 563.81 212.12 562.157 212.12ZM566.317 207.8C567.223 207.8 567.97 207.667 568.557 207.4C569.197 207.08 569.757 206.653 570.237 206.12C570.503 205.853 570.69 205.533 570.797 205.16C570.957 204.733 571.063 204.093 571.117 203.24L571.277 198.68C571.33 198.147 571.303 197.773 571.197 197.56C571.09 197.293 570.877 197.16 570.557 197.16C570.45 197.16 570.29 197.187 570.077 197.24C569.863 197.293 569.57 197.4 569.197 197.56C566.797 198.467 565.117 199.427 564.157 200.44C563.197 201.4 562.717 202.467 562.717 203.64C562.717 205.08 563.09 206.147 563.837 206.84C564.637 207.48 565.463 207.8 566.317 207.8Z" fill="black"/>
<path d="M695.383 212.12C694.423 212.12 693.437 211.747 692.423 211C691.463 210.253 690.637 209.347 689.943 208.28C689.303 207.213 688.983 206.2 688.983 205.24C688.983 203.533 689.437 202.2 690.343 201.24C691.25 200.28 692.69 199.4 694.663 198.6L702.823 195.24C703.89 194.813 704.503 194.44 704.663 194.12C704.877 193.8 705.01 193.107 705.063 192.04L705.223 186.92C705.277 185.533 704.877 184.333 704.023 183.32C703.223 182.307 702.05 181.8 700.503 181.8C699.703 181.8 698.903 181.933 698.103 182.2C697.303 182.467 696.637 182.813 696.103 183.24C695.783 183.453 695.57 183.773 695.463 184.2C695.357 184.627 695.303 185.08 695.303 185.56C695.303 185.773 695.303 186.013 695.303 186.28C695.357 186.547 695.383 186.787 695.383 187C695.383 187.267 695.037 187.64 694.343 188.12C693.703 188.547 692.957 188.947 692.103 189.32C691.303 189.64 690.637 189.8 690.103 189.8C689.837 189.8 689.623 189.747 689.463 189.64C689.303 189.48 689.223 189.293 689.223 189.08C689.223 188.227 689.49 187.32 690.023 186.36C690.61 185.347 691.41 184.413 692.423 183.56C693.65 182.44 694.983 181.453 696.423 180.6C697.863 179.747 699.277 179.08 700.663 178.6C702.05 178.12 703.277 177.88 704.343 177.88C706.263 177.88 707.837 178.573 709.063 179.96C710.343 181.293 710.957 182.973 710.903 185L710.503 204.2C710.45 205.32 710.69 206.227 711.223 206.92C711.81 207.613 712.53 207.96 713.383 207.96C714.717 207.96 715.703 207.667 716.343 207.08C716.61 206.813 716.823 206.68 716.983 206.68C717.25 206.68 717.463 206.76 717.623 206.92C717.783 207.08 717.863 207.293 717.863 207.56C717.863 208.147 717.57 208.733 716.983 209.32C716.13 210.173 715.197 210.84 714.183 211.32C713.223 211.853 712.317 212.12 711.463 212.12C709.01 212.12 707.063 210.733 705.623 207.96H705.383C703.623 209.4 701.943 210.44 700.343 211.08C698.743 211.773 697.09 212.12 695.383 212.12ZM699.143 208.28C700.21 208.28 701.117 208.12 701.863 207.8C702.61 207.427 703.277 206.947 703.863 206.36C704.13 206.093 704.343 205.747 704.503 205.32C704.717 204.84 704.85 204.093 704.903 203.08L705.063 199.16C705.117 198.573 705.09 198.147 704.983 197.88C704.877 197.613 704.663 197.48 704.343 197.48C704.237 197.48 704.05 197.507 703.783 197.56C703.517 197.613 703.17 197.72 702.743 197.88C699.917 198.893 697.943 199.96 696.823 201.08C695.757 202.147 695.223 203.133 695.223 204.04C695.223 205.427 695.623 206.493 696.423 207.24C697.277 207.933 698.183 208.28 699.143 208.28Z" fill="black"/>
<path d="M290.399 346.12C289.653 346.12 288.879 345.907 288.079 345.48C287.333 345.107 286.719 344.6 286.239 343.96C285.706 343.267 285.439 342.627 285.439 342.04C285.439 340.44 285.919 338.68 286.879 336.76C287.839 334.787 289.413 332.413 291.599 329.64C293.786 326.813 296.746 323.32 300.479 319.16C302.826 316.653 305.013 314.627 307.039 313.08C309.066 311.533 310.559 310.76 311.519 310.76C312.959 310.76 314.533 311.453 316.239 312.84C316.613 313.267 316.826 313.507 316.879 313.56C316.933 313.56 316.986 313.56 317.039 313.56C317.146 313.56 317.199 313.56 317.199 313.56C317.253 313.507 317.359 313.32 317.519 313C317.893 312.253 318.159 311.72 318.319 311.4C318.479 311.027 318.613 310.707 318.719 310.44C319.039 309.853 319.706 309.56 320.719 309.56C321.519 309.56 322.373 309.747 323.279 310.12C324.239 310.493 325.039 310.947 325.679 311.48C326.319 312.013 326.639 312.52 326.639 313C326.639 313.32 326.586 313.587 326.479 313.8L318.479 335.56C317.999 336.947 318.293 337.64 319.359 337.64C319.946 337.64 320.879 337.187 322.159 336.28C323.439 335.32 324.719 334.173 325.999 332.84C326.106 332.733 326.159 332.68 326.159 332.68C326.213 332.627 326.293 332.6 326.399 332.6C326.613 332.6 326.799 332.733 326.959 333C327.173 333.213 327.279 333.507 327.279 333.88C327.279 334.627 326.773 335.667 325.759 337C324.799 338.28 323.519 339.587 321.919 340.92C319.999 342.52 318.106 343.8 316.239 344.76C314.373 345.667 312.799 346.12 311.519 346.12C310.719 346.12 309.893 345.88 309.039 345.4C308.239 344.973 307.573 344.44 307.039 343.8C306.506 343.107 306.239 342.413 306.239 341.72C306.239 341.4 306.373 340.787 306.639 339.88C306.693 339.613 306.826 339.213 307.039 338.68C307.253 338.147 307.493 337.587 307.759 337C308.026 336.36 308.293 335.72 308.559 335.08C308.879 334.44 309.146 333.827 309.359 333.24C309.519 332.92 309.493 332.707 309.279 332.6C309.119 332.44 308.959 332.44 308.799 332.6C306.079 335.747 303.599 338.333 301.359 340.36C299.173 342.333 297.173 343.8 295.359 344.76C293.599 345.667 291.946 346.12 290.399 346.12ZM298.799 337.64C299.706 337.64 301.146 336.813 303.119 335.16C305.093 333.453 307.093 331.32 309.119 328.76C310.879 326.68 312.239 324.84 313.199 323.24C314.213 321.587 314.719 320.413 314.719 319.72C314.719 319.24 314.186 318.547 313.119 317.64C312.586 317.267 312.053 316.947 311.519 316.68C310.986 316.36 310.533 316.2 310.159 316.2C309.359 316.2 308.239 316.68 306.799 317.64C305.359 318.6 303.999 319.72 302.719 321C301.599 322.067 300.559 323.427 299.599 325.08C298.639 326.68 297.866 328.36 297.279 330.12C296.693 331.827 296.399 333.4 296.399 334.84C296.399 335.693 296.613 336.387 297.039 336.92C297.466 337.4 298.053 337.64 298.799 337.64Z" fill="black"/>
<path d="M432.684 346.12C431.991 346.12 431.271 345.907 430.524 345.48C429.831 345.107 429.244 344.627 428.764 344.04C428.284 343.453 428.044 342.867 428.044 342.28C428.044 340.52 428.578 338.573 429.644 336.44C430.711 334.307 432.338 331.853 434.524 329.08C436.764 326.253 439.644 323.027 443.164 319.4C445.671 316.893 447.884 314.92 449.804 313.48C451.778 311.987 453.244 311.24 454.204 311.24C455.431 311.24 456.738 311.853 458.124 313.08C458.604 313.613 458.844 313.88 458.844 313.88C458.844 313.88 458.871 313.88 458.924 313.88C459.031 313.88 459.111 313.853 459.164 313.8C459.218 313.747 459.298 313.613 459.404 313.4C459.938 312.44 460.284 311.827 460.444 311.56C460.604 311.24 460.684 311.027 460.684 310.92C460.951 310.28 461.484 309.96 462.284 309.96C463.031 309.96 463.778 310.12 464.524 310.44C465.324 310.76 465.964 311.16 466.444 311.64C466.978 312.067 467.244 312.467 467.244 312.84C467.244 313.16 467.164 313.56 467.004 314.04L458.684 336.44C458.151 337.987 458.444 338.76 459.564 338.76C460.311 338.76 461.324 338.307 462.604 337.4C463.938 336.44 465.191 335.293 466.364 333.96C466.524 333.853 466.631 333.8 466.684 333.8C466.738 333.747 466.791 333.72 466.844 333.72C467.111 333.72 467.324 333.827 467.484 334.04C467.644 334.2 467.724 334.467 467.724 334.84C467.724 335.48 467.244 336.413 466.284 337.64C465.378 338.867 464.258 340.067 462.924 341.24C461.164 342.787 459.404 343.987 457.644 344.84C455.884 345.693 454.364 346.12 453.084 346.12C452.391 346.12 451.671 345.907 450.924 345.48C450.178 345.107 449.564 344.627 449.084 344.04C448.604 343.4 448.364 342.787 448.364 342.2C448.364 341.72 448.524 341.107 448.844 340.36C448.844 340.307 448.924 340.04 449.084 339.56C449.298 339.027 449.564 338.387 449.884 337.64C450.204 336.84 450.551 336.067 450.924 335.32C451.298 334.52 451.644 333.773 451.964 333.08C452.124 332.707 452.124 332.44 451.964 332.28C451.858 332.067 451.698 332.067 451.484 332.28C448.604 335.587 446.018 338.253 443.724 340.28C441.484 342.307 439.484 343.8 437.724 344.76C435.964 345.667 434.284 346.12 432.684 346.12ZM439.804 338.76C440.818 338.76 442.364 337.88 444.444 336.12C446.524 334.36 448.738 332.067 451.084 329.24C452.898 327.053 454.338 325.08 455.404 323.32C456.471 321.56 457.004 320.28 457.004 319.48C457.004 319.053 456.524 318.44 455.564 317.64C455.138 317.267 454.658 316.973 454.124 316.76C453.644 316.547 453.244 316.44 452.924 316.44C452.071 316.44 450.871 316.92 449.324 317.88C447.831 318.84 446.418 319.96 445.084 321.24C443.804 322.52 442.578 324.067 441.404 325.88C440.231 327.64 439.271 329.427 438.524 331.24C437.778 333.053 437.404 334.627 437.404 335.96C437.404 336.813 437.618 337.507 438.044 338.04C438.471 338.52 439.058 338.76 439.804 338.76Z" fill="black"/>
<path d="M571.508 346.12C570.868 346.12 570.202 345.933 569.508 345.56C568.815 345.187 568.255 344.733 567.828 344.2C567.402 343.613 567.188 343.027 567.188 342.44C567.188 340.627 567.748 338.547 568.868 336.2C570.042 333.853 571.748 331.293 573.988 328.52C576.282 325.693 579.055 322.707 582.308 319.56C584.975 317.053 587.242 315.133 589.108 313.8C591.028 312.413 592.442 311.72 593.348 311.72C594.415 311.72 595.455 312.227 596.468 313.24C597.055 313.987 597.322 314.333 597.268 314.28C597.268 314.227 597.295 314.2 597.348 314.2C597.455 314.2 597.535 314.173 597.588 314.12C597.695 314.067 597.775 313.933 597.828 313.72C598.468 312.653 598.868 311.987 599.028 311.72C599.188 311.4 599.242 311.24 599.188 311.24C599.455 310.707 599.882 310.44 600.468 310.44C601.055 310.44 601.668 310.573 602.308 310.84C602.948 311.053 603.482 311.347 603.908 311.72C604.335 312.04 604.548 312.387 604.548 312.76C604.548 313.027 604.388 313.56 604.068 314.36L595.508 337.4C594.868 339.053 595.188 339.88 596.468 339.88C597.322 339.88 598.388 339.427 599.668 338.52C601.002 337.56 602.228 336.413 603.348 335.08C603.455 334.973 603.562 334.893 603.668 334.84C603.775 334.787 603.882 334.76 603.988 334.76C604.202 334.76 604.362 334.84 604.468 335C604.575 335.16 604.628 335.4 604.628 335.72C604.628 336.253 604.202 337.107 603.348 338.28C602.548 339.453 601.615 340.52 600.548 341.48C598.895 342.973 597.242 344.12 595.588 344.92C593.935 345.72 592.495 346.12 591.268 346.12C590.628 346.12 589.988 345.933 589.348 345.56C588.708 345.187 588.175 344.733 587.748 344.2C587.322 343.667 587.108 343.107 587.108 342.52C587.108 342.04 587.268 341.427 587.588 340.68C587.482 340.893 587.508 340.76 587.668 340.28C587.882 339.8 588.175 339.133 588.548 338.28C588.975 337.373 589.402 336.44 589.828 335.48C590.255 334.52 590.628 333.667 590.948 332.92C591.215 332.44 591.295 332.093 591.188 331.88C591.135 331.613 590.975 331.64 590.708 331.96C587.615 335.373 584.922 338.147 582.628 340.28C580.335 342.36 578.308 343.853 576.548 344.76C574.788 345.667 573.108 346.12 571.508 346.12ZM577.428 339.88C578.495 339.88 580.122 338.947 582.308 337.08C584.495 335.213 586.922 332.707 589.588 329.56C591.508 327.32 593.002 325.293 594.068 323.48C595.188 321.613 595.748 320.227 595.748 319.32C595.748 318.893 595.348 318.333 594.548 317.64C594.122 317.32 593.695 317.08 593.268 316.92C592.842 316.707 592.495 316.6 592.228 316.6C591.268 316.6 589.988 317.08 588.388 318.04C586.842 319 585.402 320.12 584.068 321.4C582.522 322.893 581.055 324.627 579.668 326.6C578.282 328.52 577.162 330.44 576.308 332.36C575.455 334.227 575.028 335.8 575.028 337.08C575.028 337.933 575.242 338.627 575.668 339.16C576.095 339.64 576.682 339.88 577.428 339.88Z" fill="black"/>
<path d="M705.952 346.12C705.312 346.12 704.672 345.933 704.032 345.56C703.392 345.24 702.858 344.813 702.432 344.28C702.058 343.747 701.872 343.187 701.872 342.6C701.872 340.68 702.512 338.467 703.792 335.96C705.072 333.4 706.858 330.733 709.152 327.96C711.445 325.133 714.085 322.413 717.072 319.8C719.952 317.293 722.298 315.427 724.112 314.2C725.925 312.92 727.258 312.28 728.112 312.28C728.965 312.28 729.712 312.653 730.352 313.4C731.098 314.36 731.418 314.813 731.312 314.76C731.258 314.653 731.258 314.6 731.312 314.6C731.418 314.6 731.498 314.573 731.552 314.52C731.658 314.413 731.738 314.28 731.792 314.12C732.538 312.84 732.992 312.067 733.152 311.8C733.312 311.533 733.312 311.507 733.152 311.72C733.472 311.187 733.792 310.92 734.112 310.92C734.592 310.92 735.072 311 735.552 311.16C736.032 311.32 736.405 311.533 736.672 311.8C736.992 312.067 737.152 312.333 737.152 312.6C737.152 312.867 736.965 313.533 736.592 314.6L727.632 338.36C726.938 340.173 727.285 341.08 728.672 341.08C729.632 341.08 730.778 340.627 732.112 339.72C733.498 338.76 734.698 337.613 735.712 336.28C735.818 336.173 735.925 336.093 736.032 336.04C736.192 335.933 736.325 335.88 736.432 335.88C736.645 335.88 736.778 335.96 736.832 336.12C736.938 336.227 736.992 336.44 736.992 336.76C736.992 337.133 736.618 337.88 735.872 339C735.125 340.067 734.352 341 733.552 341.8C732.058 343.187 730.538 344.253 728.992 345C727.498 345.747 726.112 346.12 724.832 346.12C724.298 346.12 723.765 345.96 723.232 345.64C722.698 345.32 722.245 344.92 721.872 344.44C721.552 343.96 721.392 343.48 721.392 343C721.392 342.413 721.552 341.8 721.872 341.16C721.658 341.64 721.632 341.64 721.792 341.16C722.005 340.68 722.325 339.933 722.752 338.92C723.232 337.907 723.738 336.84 724.272 335.72C724.805 334.6 725.258 333.613 725.632 332.76C725.898 332.173 726.005 331.747 725.952 331.48C725.952 331.16 725.792 331.187 725.472 331.56C722.218 335.187 719.418 338.067 717.072 340.2C714.778 342.333 712.752 343.853 710.992 344.76C709.232 345.667 707.552 346.12 705.952 346.12ZM710.432 341.08C711.605 341.08 713.338 340.12 715.632 338.2C717.978 336.227 720.618 333.507 723.552 330.04C725.578 327.693 727.178 325.533 728.352 323.56C729.525 321.587 730.112 320.12 730.112 319.16C730.112 318.733 729.765 318.227 729.072 317.64C728.752 317.373 728.405 317.16 728.032 317C727.658 316.84 727.338 316.76 727.072 316.76C726.112 316.76 724.778 317.24 723.072 318.2C721.418 319.16 719.898 320.307 718.512 321.64C716.752 323.347 715.072 325.267 713.472 327.4C711.872 329.533 710.565 331.587 709.552 333.56C708.592 335.533 708.112 337.133 708.112 338.36C708.112 339.16 708.325 339.827 708.752 340.36C709.178 340.84 709.738 341.08 710.432 341.08Z" fill="black"/>
<path d="M805.492 438.896C804.34 438.896 803.508 438.576 802.995 437.936C802.483 437.253 802.227 436.507 802.227 435.696C802.227 435.013 802.398 434.331 802.739 433.648C803.038 432.965 803.422 432.411 803.892 431.984C804.404 431.515 804.916 431.28 805.428 431.28C805.641 431.28 805.876 431.387 806.132 431.6C806.43 431.813 806.665 432.048 806.836 432.304C807.049 432.475 807.305 432.645 807.604 432.816C807.902 432.987 808.286 433.072 808.756 433.072C809.182 433.072 809.63 432.944 810.1 432.688C810.569 432.432 811.06 432.027 811.572 431.472C811.87 431.131 812.254 430.704 812.724 430.192C813.236 429.637 813.726 429.083 814.196 428.528C814.708 427.973 815.092 427.504 815.348 427.12C815.561 426.779 815.689 426.501 815.732 426.288C815.817 426.032 815.796 425.691 815.668 425.264L813.236 417.2C813.15 416.859 813.022 416.603 812.852 416.432C812.724 416.219 812.553 416.112 812.34 416.112C811.828 416.112 811.209 416.411 810.484 417.008C809.758 417.563 808.99 418.309 808.18 419.248C808.094 419.333 807.988 419.419 807.86 419.504C807.732 419.547 807.604 419.568 807.476 419.568C807.305 419.568 807.134 419.525 806.964 419.44C806.836 419.312 806.772 419.12 806.772 418.864C806.772 418.011 807.006 417.093 807.476 416.112C807.988 415.088 808.649 414.128 809.46 413.232C810.313 412.293 811.294 411.525 812.404 410.928C813.556 410.331 814.772 410.032 816.052 410.032C817.204 410.032 818.078 410.459 818.676 411.312C819.316 412.165 819.849 413.232 820.276 414.512L822.132 420.208C822.302 420.72 822.58 420.699 822.964 420.144L826.612 415.088C827.977 413.168 829.193 411.845 830.26 411.12C831.369 410.395 832.393 410.032 833.332 410.032C834.484 410.032 835.444 410.459 836.212 411.312C836.98 412.165 837.364 412.933 837.364 413.616C837.364 414.427 837.172 415.173 836.788 415.856C836.404 416.496 835.934 417.029 835.38 417.456C834.868 417.84 834.42 418.032 834.036 418.032C833.481 418.032 833.097 417.947 832.884 417.776C832.713 417.563 832.521 417.307 832.308 417.008C832.137 416.709 831.945 416.453 831.732 416.24C831.518 416.027 831.177 415.92 830.708 415.92C830.409 415.92 830.004 416.005 829.492 416.176C828.98 416.347 828.297 416.859 827.444 417.712C826.846 418.309 826.249 419.035 825.652 419.888C825.054 420.741 824.457 421.659 823.86 422.64C823.646 423.024 823.476 423.387 823.348 423.728C823.22 424.069 823.241 424.517 823.412 425.072L825.076 431.344C825.289 432.069 825.502 432.539 825.716 432.752C825.929 432.965 826.185 433.072 826.484 433.072C826.782 433.072 827.252 432.837 827.892 432.368C828.532 431.856 829.257 431.003 830.068 429.808C830.281 429.509 830.537 429.36 830.836 429.36C831.006 429.36 831.134 429.445 831.22 429.616C831.348 429.744 831.412 429.936 831.412 430.192C831.412 430.832 831.177 431.643 830.708 432.624C830.238 433.605 829.577 434.587 828.724 435.568C827.913 436.507 826.974 437.296 825.908 437.936C824.841 438.576 823.732 438.896 822.58 438.896C821.385 438.896 820.361 438.448 819.508 437.552C818.697 436.613 818.185 435.717 817.972 434.864C817.801 434.053 817.609 433.115 817.396 432.048C817.182 430.939 816.969 429.979 816.756 429.168C816.713 428.955 816.628 428.805 816.5 428.72C816.414 428.635 816.265 428.72 816.052 428.976C815.497 429.744 814.964 430.555 814.452 431.408C813.94 432.261 813.406 433.072 812.852 433.84C811.742 435.419 810.505 436.656 809.14 437.552C807.817 438.448 806.601 438.896 805.492 438.896Z" fill="black"/>
<path d="M6.08725 66.496C4.80725 66.496 3.63392 66.1333 2.56725 65.408C1.50058 64.6827 0.96725 63.5947 0.96725 62.144C0.96725 61.3333 1.15925 60.544 1.54325 59.776C1.92725 59.008 2.43925 58.368 3.07925 57.856C3.71925 57.344 4.40192 57.088 5.12725 57.088C5.59658 57.088 6.10858 57.2373 6.66325 57.536C7.21792 57.8773 7.75125 58.24 8.26325 58.624C8.81792 59.008 9.39392 59.3707 9.99125 59.712C10.6313 60.0533 11.3566 60.224 12.1673 60.224C13.4046 60.224 14.5993 59.648 15.7513 58.496C16.9033 57.344 17.8846 55.8293 18.6953 53.952C19.4633 52.2027 20.0393 50.176 20.4233 47.872C20.8073 45.568 20.9993 43.1573 20.9993 40.64C20.9993 37.0133 20.7859 34.1333 20.3593 32C19.9753 29.8667 19.5273 28.3307 19.0153 27.392C18.5033 26.4533 18.0339 25.984 17.6073 25.984C17.2659 25.984 16.8606 26.2613 16.3913 26.816C15.9646 27.3707 15.5379 27.9893 15.1113 28.672C14.7273 29.3547 14.4286 29.9093 14.2153 30.336C14.1299 30.5067 13.9593 30.784 13.7033 31.168C13.4899 31.5093 13.2553 31.68 12.9993 31.68C12.8713 31.68 12.7433 31.5307 12.6153 31.232C12.4873 30.8907 12.4233 30.4427 12.4233 29.888C12.4233 28.6507 12.7219 27.4347 13.3193 26.24C13.9593 25.0453 14.7486 23.936 15.6873 22.912C16.6686 21.888 17.7139 21.0773 18.8233 20.48C19.9326 19.8827 20.9779 19.584 21.9593 19.584C23.2819 19.584 24.3059 20.032 25.0312 20.928C25.7993 21.7813 26.4606 23.0187 27.0153 24.64C27.6126 26.4747 28.1246 28.864 28.5513 31.808C28.9779 34.752 29.0846 38.3573 28.8713 42.624C28.8286 43.392 28.8926 43.7547 29.0633 43.712C29.2766 43.6693 29.5326 43.3707 29.8313 42.816C31.3246 39.9573 32.2846 36.8213 32.7113 33.408C33.1806 29.952 33.3726 25.92 33.2873 21.312C33.2873 20.928 33.5859 20.544 34.1833 20.16C34.7806 19.776 35.2713 19.584 35.6553 19.584C36.0819 19.584 36.6366 19.7973 37.3193 20.224C38.0446 20.608 38.7059 21.1413 39.3033 21.824C39.9006 22.464 40.1993 23.2107 40.1993 24.064C40.1993 26.7093 39.4313 29.8027 37.8953 33.344C36.3593 36.8427 34.2046 40.576 31.4313 44.544C28.6579 48.4693 25.4366 52.3947 21.7673 56.32C20.0606 58.1547 18.2473 59.84 16.3273 61.376C14.4073 62.9547 12.5513 64.192 10.7593 65.088C9.00992 66.0267 7.45258 66.496 6.08725 66.496Z" fill="black"/>
<path d="M203.677 345.4C203.037 345.4 202.557 345.293 202.237 345.08C201.917 344.92 201.784 344.6 201.837 344.12C201.944 343.587 202.211 343.187 202.637 342.92C203.011 342.653 203.517 342.467 204.157 342.36C205.171 342.093 206.344 341.747 207.677 341.32C209.011 340.84 210.291 340.253 211.517 339.56C212.797 338.813 213.864 337.96 214.717 337C218.237 333.053 221.677 329.133 225.037 325.24C228.397 321.347 231.757 317.453 235.117 313.56C238.477 309.667 241.837 305.773 245.197 301.88C246.157 300.813 246.931 299.773 247.517 298.76C248.157 297.693 248.691 296.813 249.117 296.12C249.597 295.427 249.971 295.08 250.237 295.08C251.571 295.08 252.851 294.947 254.077 294.68C255.304 294.413 256.371 293.987 257.277 293.4C258.184 292.867 258.984 292.36 259.677 291.88C260.371 291.4 260.984 291.16 261.517 291.16C261.997 291.16 262.291 291.64 262.397 292.6C262.504 293.56 262.424 294.68 262.157 295.96L254.237 335.88C253.864 337.693 254.051 339.107 254.797 340.12C255.597 341.08 256.957 341.853 258.877 342.44C259.517 342.6 260.024 342.787 260.397 343C260.824 343.16 261.037 343.507 261.037 344.04C261.037 344.413 260.744 344.707 260.157 344.92C259.571 345.133 259.037 345.24 258.557 345.24C257.491 345.24 256.237 345.187 254.797 345.08C253.357 345.027 251.891 344.973 250.397 344.92C248.904 344.867 247.571 344.84 246.397 344.84C245.331 344.84 244.077 344.867 242.637 344.92C241.197 344.973 239.731 345.027 238.237 345.08C236.797 345.133 235.544 345.16 234.477 345.16C233.357 345.16 232.851 344.787 232.957 344.04C232.957 343.56 233.171 343.187 233.597 342.92C234.024 342.6 234.531 342.387 235.117 342.28C236.451 342.013 237.544 341.693 238.397 341.32C239.251 340.893 239.944 340.36 240.477 339.72C241.064 339.027 241.491 338.12 241.757 337L244.157 327.32C244.264 326.84 244.184 326.467 243.917 326.2C243.704 325.933 243.357 325.8 242.877 325.8H230.717C230.237 325.8 229.811 325.96 229.437 326.28C229.064 326.547 228.717 326.867 228.397 327.24L222.877 334.36C221.597 335.96 220.824 337.293 220.557 338.36C220.291 339.427 220.477 340.28 221.117 340.92C221.811 341.507 222.824 341.96 224.157 342.28C224.637 342.387 225.091 342.6 225.517 342.92C225.944 343.187 226.157 343.56 226.157 344.04C226.104 344.413 225.811 344.707 225.277 344.92C224.797 345.08 224.237 345.16 223.597 345.16C222.051 345.16 220.504 345.107 218.957 345C217.464 344.947 215.944 344.92 214.397 344.92C212.797 344.92 211.011 345 209.037 345.16C207.064 345.32 205.277 345.4 203.677 345.4ZM234.397 322.2H243.997C244.424 322.2 244.744 322.12 244.957 321.96C245.224 321.8 245.384 321.507 245.437 321.08L249.277 303.56C249.384 303.187 249.437 302.867 249.437 302.6C249.437 302.28 249.331 302.12 249.117 302.12C249.064 302.12 248.904 302.173 248.637 302.28C248.424 302.387 248.237 302.547 248.077 302.76L233.437 320.68C232.957 321.213 232.744 321.613 232.797 321.88C232.904 322.093 233.437 322.2 234.397 322.2Z" fill="black"/>
<path d="M348.048 345.4C347.461 345.4 347.008 345.293 346.688 345.08C346.368 344.92 346.208 344.627 346.208 344.2C346.261 343.72 346.528 343.347 347.008 343.08C347.435 342.813 347.968 342.6 348.608 342.44C349.835 342.12 351.088 341.72 352.368 341.24C353.648 340.76 354.875 340.147 356.048 339.4C357.275 338.6 358.315 337.72 359.168 336.76C362.848 332.653 366.341 328.653 369.648 324.76C373.008 320.813 376.315 316.893 379.568 313C382.821 309.053 386.101 305.08 389.408 301.08C390.261 300.12 390.981 299.187 391.568 298.28C392.155 297.373 392.635 296.627 393.008 296.04C393.381 295.4 393.728 295.08 394.048 295.08C395.275 295.08 396.368 294.947 397.328 294.68C398.288 294.36 399.168 293.907 399.968 293.32C400.821 292.68 401.541 292.147 402.128 291.72C402.715 291.293 403.195 291.08 403.568 291.08C404.048 291.08 404.315 291.453 404.368 292.2C404.475 292.947 404.421 293.933 404.208 295.16L396.128 335.64C395.701 337.72 395.808 339.267 396.448 340.28C397.141 341.293 398.368 342.067 400.128 342.6C400.821 342.813 401.381 343.027 401.808 343.24C402.235 343.4 402.448 343.72 402.448 344.2C402.448 344.52 402.181 344.787 401.648 345C401.168 345.16 400.608 345.24 399.968 345.24C399.061 345.24 397.941 345.213 396.608 345.16C395.275 345.107 393.888 345.053 392.448 345C391.061 344.893 389.781 344.84 388.608 344.84C387.595 344.84 386.421 344.867 385.088 344.92C383.808 344.973 382.528 345.027 381.248 345.08C380.021 345.133 378.928 345.16 377.968 345.16C376.901 345.16 376.368 344.787 376.368 344.04C376.368 343.613 376.581 343.267 377.008 343C377.435 342.68 377.941 342.467 378.528 342.36C380.021 342.04 381.221 341.693 382.128 341.32C383.035 340.893 383.755 340.333 384.288 339.64C384.875 338.893 385.301 337.907 385.568 336.68L388.048 327.08C388.208 326.44 388.101 325.987 387.728 325.72C387.408 325.453 386.981 325.32 386.448 325.32L375.328 325.4C374.688 325.4 374.155 325.533 373.728 325.8C373.301 326.013 372.928 326.333 372.608 326.76L366.208 335.16C365.035 336.707 364.341 337.96 364.128 338.92C363.915 339.827 364.101 340.547 364.688 341.08C365.275 341.56 366.128 341.96 367.248 342.28C367.728 342.44 368.181 342.653 368.608 342.92C369.035 343.187 369.248 343.56 369.248 344.04C369.195 344.413 368.928 344.707 368.448 344.92C367.968 345.08 367.408 345.16 366.768 345.16C365.488 345.16 364.155 345.107 362.768 345C361.435 344.947 360.021 344.92 358.528 344.92C356.928 344.92 355.141 345 353.168 345.16C351.248 345.32 349.541 345.4 348.048 345.4ZM378.368 322.04H387.648C388.181 322.04 388.555 321.933 388.768 321.72C389.035 321.507 389.248 321.107 389.408 320.52L393.168 303C393.328 302.52 393.408 302.147 393.408 301.88C393.408 301.613 393.275 301.48 393.008 301.48C392.901 301.48 392.715 301.533 392.448 301.64C392.235 301.747 392.021 301.933 391.808 302.2L377.328 320.44C376.901 320.973 376.688 321.373 376.688 321.64C376.688 321.907 377.248 322.04 378.368 322.04Z" fill="black"/>
<path d="M489.302 345.4C488.715 345.4 488.289 345.32 488.022 345.16C487.702 345 487.515 344.707 487.462 344.28C487.462 343.8 487.702 343.453 488.182 343.24C488.662 342.973 489.275 342.76 490.022 342.6C491.355 342.227 492.662 341.773 493.942 341.24C495.222 340.653 496.422 339.987 497.542 339.24C498.715 338.44 499.729 337.56 500.582 336.6C504.369 332.387 507.915 328.28 511.222 324.28C514.529 320.28 517.755 316.307 520.902 312.36C524.049 308.36 527.249 304.36 530.502 300.36C531.249 299.453 531.889 298.6 532.422 297.8C532.955 297 533.409 296.36 533.782 295.88C534.155 295.4 534.449 295.16 534.662 295.16C535.889 295.16 536.822 295 537.462 294.68C538.155 294.36 538.875 293.853 539.622 293.16C540.422 292.413 541.035 291.88 541.462 291.56C541.942 291.187 542.342 291 542.662 291C543.035 291 543.275 291.293 543.382 291.88C543.489 292.413 543.409 293.24 543.142 294.36L534.982 335.48C534.502 337.773 534.529 339.453 535.062 340.52C535.649 341.587 536.769 342.333 538.422 342.76C539.222 342.973 539.809 343.187 540.182 343.4C540.609 343.56 540.822 343.853 540.822 344.28C540.822 344.653 540.609 344.92 540.182 345.08C539.755 345.24 539.142 345.32 538.342 345.32C537.542 345.32 536.529 345.267 535.302 345.16C534.075 345.107 532.795 345.053 531.462 345C530.182 344.947 528.955 344.92 527.782 344.92C526.822 344.92 525.755 344.92 524.582 344.92C523.462 344.92 522.342 344.947 521.222 345C520.155 345.053 519.249 345.08 518.502 345.08C517.382 345.08 516.769 344.733 516.662 344.04C516.662 343.613 516.875 343.267 517.302 343C517.729 342.68 518.262 342.467 518.902 342.36C520.502 342.093 521.782 341.773 522.742 341.4C523.702 340.973 524.449 340.387 524.982 339.64C525.569 338.84 526.022 337.747 526.342 336.36L528.822 326.76C528.982 326.12 528.849 325.64 528.422 325.32C528.049 325 527.515 324.84 526.822 324.84L516.742 325C515.995 325 515.382 325.107 514.902 325.32C514.475 325.533 514.075 325.907 513.702 326.44L506.422 335.96C505.355 337.347 504.742 338.467 504.582 339.32C504.475 340.173 504.662 340.813 505.142 341.24C505.675 341.667 506.369 342.013 507.222 342.28C507.755 342.44 508.209 342.68 508.582 343C509.009 343.267 509.222 343.613 509.222 344.04C509.222 344.413 508.982 344.68 508.502 344.84C508.075 345 507.542 345.08 506.902 345.08C505.889 345.08 504.769 345.053 503.542 345C502.369 344.947 501.062 344.92 499.622 344.92C497.969 344.92 496.182 345 494.262 345.16C492.342 345.32 490.689 345.4 489.302 345.4ZM519.302 321.96L528.262 321.88C528.795 321.88 529.195 321.747 529.462 321.48C529.782 321.213 530.022 320.733 530.182 320.04L534.022 302.52C534.129 301.987 534.182 301.587 534.182 301.32C534.182 301 534.049 300.84 533.782 300.84C533.622 300.84 533.409 300.893 533.142 301C532.929 301.107 532.689 301.347 532.422 301.72L518.102 320.28C517.675 320.813 517.462 321.24 517.462 321.56C517.462 321.827 518.075 321.96 519.302 321.96Z" fill="black"/>
<path d="M626.292 345.4C625.652 345.4 625.199 345.32 624.932 345.16C624.665 345 624.479 344.733 624.372 344.36C624.319 343.933 624.559 343.613 625.092 343.4C625.572 343.133 626.239 342.893 627.092 342.68C628.585 342.253 629.945 341.747 631.172 341.16C632.452 340.573 633.625 339.88 634.692 339.08C635.759 338.227 636.719 337.32 637.572 336.36C641.519 331.987 645.119 327.773 648.372 323.72C651.679 319.667 654.852 315.64 657.892 311.64C660.932 307.64 664.052 303.587 667.252 299.48C667.892 298.68 668.452 297.96 668.932 297.32C669.412 296.68 669.812 296.173 670.132 295.8C670.452 295.427 670.719 295.24 670.932 295.24C672.052 295.24 672.799 295.053 673.172 294.68C673.599 294.307 674.132 293.773 674.772 293.08C675.519 292.227 676.025 291.667 676.292 291.4C676.612 291.08 676.905 290.92 677.172 290.92C677.439 290.92 677.625 291.08 677.732 291.4C677.839 291.72 677.785 292.413 677.572 293.48L669.252 335.24C668.719 337.8 668.665 339.64 669.092 340.76C669.572 341.827 670.559 342.573 672.052 343C672.905 343.213 673.545 343.427 673.972 343.64C674.399 343.8 674.612 344.067 674.612 344.44C674.612 344.76 674.425 345 674.052 345.16C673.679 345.32 673.039 345.4 672.132 345.4C671.439 345.4 670.532 345.347 669.412 345.24C668.345 345.187 667.199 345.107 665.972 345C664.745 344.947 663.572 344.92 662.452 344.92C661.492 344.92 660.505 344.92 659.492 344.92C658.532 344.92 657.599 344.947 656.692 345C655.839 345 655.119 345 654.532 345C653.412 345 652.772 344.68 652.612 344.04C652.559 343.667 652.745 343.347 653.172 343.08C653.599 342.76 654.159 342.547 654.852 342.44C656.612 342.12 657.972 341.773 658.932 341.4C659.945 340.973 660.719 340.36 661.252 339.56C661.839 338.707 662.319 337.533 662.692 336.04L665.172 326.52C665.385 325.72 665.225 325.16 664.692 324.84C664.212 324.52 663.599 324.36 662.852 324.36L653.892 324.52C653.039 324.52 652.345 324.627 651.812 324.84C651.332 325 650.879 325.373 650.452 325.96L642.212 336.84C641.252 338.12 640.719 339.133 640.612 339.88C640.559 340.573 640.745 341.107 641.172 341.48C641.652 341.8 642.185 342.067 642.772 342.28C643.359 342.493 643.839 342.733 644.212 343C644.585 343.267 644.772 343.613 644.772 344.04C644.772 344.413 644.559 344.68 644.132 344.84C643.705 345 643.172 345.08 642.532 345.08C641.839 345.08 640.959 345.053 639.892 345C638.879 344.947 637.679 344.92 636.292 344.92C634.639 344.92 632.852 345 630.932 345.16C629.065 345.32 627.519 345.4 626.292 345.4ZM655.892 321.8L664.452 321.72C665.039 321.72 665.492 321.56 665.812 321.24C666.132 320.92 666.399 320.333 666.612 319.48L670.452 301.96C670.612 301.32 670.665 300.867 670.612 300.6C670.612 300.28 670.479 300.12 670.212 300.12C669.999 300.12 669.759 300.173 669.492 300.28C669.225 300.387 668.959 300.653 668.692 301.08L654.452 320.04C654.079 320.573 653.865 321 653.812 321.32C653.759 321.64 654.452 321.8 655.892 321.8Z" fill="black"/>
<path d="M201.971 208.4C201.384 208.4 200.878 208.293 200.451 208.08C200.078 207.92 199.891 207.6 199.891 207.12C199.891 206.587 200.051 206.213 200.371 206C200.744 205.733 201.224 205.52 201.811 205.36C203.358 204.933 204.691 204.267 205.811 203.36C206.984 202.453 207.864 201.333 208.451 200C209.784 197.013 211.038 194.08 212.211 191.2C213.384 188.267 214.531 185.387 215.651 182.56C216.771 179.68 217.891 176.773 219.011 173.84C220.131 170.853 221.251 167.84 222.371 164.8C223.171 162.613 223.678 161.04 223.891 160.08C224.104 159.067 224.264 158.48 224.371 158.32C225.331 158.053 226.238 157.813 227.091 157.6C227.944 157.387 228.851 157.093 229.811 156.72C230.771 156.347 231.571 155.867 232.211 155.28C232.904 154.693 233.411 154.24 233.731 153.92C233.944 153.76 234.158 153.68 234.371 153.68C234.584 153.627 234.798 153.787 235.011 154.16C235.171 154.48 235.304 154.827 235.411 155.2C235.571 155.52 235.704 155.893 235.811 156.32C236.931 159.893 238.078 163.547 239.251 167.28C240.424 170.96 241.598 174.64 242.771 178.32C243.998 182 245.198 185.653 246.371 189.28C247.544 192.853 248.691 196.347 249.811 199.76C250.131 200.827 250.611 201.733 251.251 202.48C251.944 203.227 252.718 203.813 253.571 204.24C254.424 204.667 255.384 205.04 256.451 205.36C257.038 205.52 257.491 205.733 257.811 206C258.184 206.213 258.371 206.56 258.371 207.04C258.371 207.413 258.211 207.707 257.891 207.92C257.571 208.133 257.198 208.24 256.771 208.24C255.704 208.24 254.371 208.187 252.771 208.08C251.224 208.027 249.651 207.973 248.051 207.92C246.451 207.867 245.038 207.84 243.811 207.84C242.798 207.84 241.544 207.867 240.051 207.92C238.611 207.973 237.144 208.027 235.651 208.08C234.158 208.133 232.878 208.16 231.811 208.16C231.331 208.16 230.904 208.08 230.531 207.92C230.211 207.707 230.051 207.413 230.051 207.04C230.051 206.56 230.238 206.187 230.611 205.92C230.984 205.653 231.438 205.467 231.971 205.36C233.944 204.933 235.384 204.373 236.291 203.68C237.198 202.987 237.491 201.947 237.171 200.56C236.958 199.547 236.691 198.48 236.371 197.36C236.051 196.24 235.731 195.12 235.411 194C235.144 192.827 234.851 191.707 234.531 190.64C234.424 190.213 234.291 189.893 234.131 189.68C233.971 189.467 233.651 189.36 233.171 189.36H219.011C218.638 189.36 218.344 189.467 218.131 189.68C217.918 189.893 217.758 190.24 217.651 190.72C217.438 191.467 217.198 192.213 216.931 192.96C216.664 193.707 216.398 194.453 216.131 195.2C215.918 195.947 215.704 196.693 215.491 197.44C215.278 198.187 215.064 198.907 214.851 199.6C214.478 201.2 214.638 202.427 215.331 203.28C216.024 204.133 217.518 204.827 219.811 205.36C221.091 205.627 221.731 206.187 221.731 207.04C221.731 207.413 221.571 207.707 221.251 207.92C220.984 208.08 220.531 208.16 219.891 208.16C218.344 208.16 216.904 208.107 215.571 208C214.238 207.947 212.771 207.92 211.171 207.92C209.571 207.92 208.051 208 206.611 208.16C205.171 208.32 203.624 208.4 201.971 208.4ZM221.251 185.04H231.651C232.451 185.04 232.851 184.853 232.851 184.48C232.851 184.32 232.824 184.187 232.771 184.08C232.771 183.973 232.744 183.84 232.691 183.68L227.331 165.6C227.171 165.013 227.011 164.72 226.851 164.72C226.744 164.72 226.558 165.013 226.291 165.6L219.971 183.68C219.864 183.893 219.811 184.107 219.811 184.32C219.811 184.587 219.944 184.773 220.211 184.88C220.531 184.987 220.878 185.04 221.251 185.04Z" fill="black"/>
<path d="M339.983 209.4C339.343 209.4 338.809 209.293 338.383 209.08C337.956 208.92 337.742 208.627 337.742 208.2C337.742 207.72 337.929 207.347 338.303 207.08C338.729 206.813 339.263 206.573 339.903 206.36C341.449 205.933 342.783 205.293 343.903 204.44C345.076 203.533 346.009 202.307 346.703 200.76C348.036 197.613 349.316 194.6 350.543 191.72C351.769 188.787 352.943 185.88 354.063 183C355.183 180.12 356.303 177.187 357.423 174.2C358.596 171.213 359.769 168.067 360.943 164.76C361.529 163.107 361.929 161.827 362.143 160.92C362.356 160.013 362.543 159.347 362.703 158.92C363.503 158.707 364.249 158.493 364.943 158.28C365.636 158.067 366.409 157.8 367.263 157.48C368.009 157.107 368.649 156.627 369.183 156.04C369.716 155.453 370.116 155 370.383 154.68C370.543 154.573 370.703 154.52 370.863 154.52C371.023 154.467 371.183 154.573 371.343 154.84C371.503 155.16 371.636 155.48 371.743 155.8C371.849 156.12 371.956 156.467 372.063 156.84C373.236 160.627 374.436 164.467 375.663 168.36C376.943 172.2 378.196 176.013 379.423 179.8C380.649 183.533 381.823 187.133 382.943 190.6C384.116 194.013 385.183 197.16 386.143 200.04C386.623 201.48 387.209 202.627 387.903 203.48C388.649 204.333 389.449 205 390.303 205.48C391.209 205.907 392.196 206.253 393.263 206.52C393.956 206.68 394.489 206.893 394.863 207.16C395.236 207.427 395.423 207.8 395.423 208.28C395.423 208.6 395.236 208.84 394.863 209C394.543 209.16 394.116 209.24 393.583 209.24C392.623 209.24 391.396 209.213 389.903 209.16C388.463 209.107 386.969 209.053 385.423 209C383.876 208.893 382.489 208.84 381.263 208.84C380.196 208.84 378.996 208.867 377.663 208.92C376.383 208.973 375.076 209.027 373.743 209.08C372.463 209.133 371.369 209.16 370.463 209.16C369.929 209.16 369.449 209.08 369.023 208.92C368.649 208.707 368.463 208.413 368.463 208.04C368.463 207.613 368.676 207.267 369.103 207C369.529 206.68 370.036 206.467 370.623 206.36C372.543 206.04 373.929 205.56 374.783 204.92C375.636 204.227 375.956 203.24 375.743 201.96C375.583 201.053 375.343 199.987 375.023 198.76C374.703 197.48 374.356 196.173 373.983 194.84C373.663 193.453 373.316 192.2 372.943 191.08C372.836 190.653 372.676 190.36 372.463 190.2C372.249 189.987 371.849 189.88 371.263 189.88H356.863C356.489 189.88 356.196 190.013 355.983 190.28C355.769 190.493 355.609 190.84 355.503 191.32C355.289 192.013 355.023 192.813 354.703 193.72C354.436 194.573 354.143 195.48 353.823 196.44C353.556 197.347 353.289 198.2 353.023 199C352.809 199.8 352.649 200.493 352.543 201.08C352.276 202.52 352.516 203.667 353.263 204.52C354.063 205.32 355.423 205.96 357.343 206.44C358.783 206.813 359.503 207.373 359.503 208.12C359.503 208.44 359.316 208.707 358.943 208.92C358.623 209.08 358.143 209.16 357.503 209.16C356.276 209.16 354.996 209.107 353.663 209C352.329 208.947 350.863 208.92 349.263 208.92C347.663 208.92 346.089 209 344.543 209.16C343.049 209.32 341.529 209.4 339.983 209.4ZM359.023 186.2H370.143C370.889 186.2 371.263 186.04 371.263 185.72C371.263 185.56 371.236 185.427 371.183 185.32C371.183 185.213 371.156 185.053 371.103 184.84L365.503 166.36C365.289 165.613 365.103 165.24 364.943 165.24C364.836 165.24 364.649 165.587 364.383 166.28L357.663 184.84C357.556 185.107 357.503 185.32 357.503 185.48C357.503 185.747 357.636 185.933 357.903 186.04C358.223 186.147 358.596 186.2 359.023 186.2Z" fill="black"/>
<path d="M475.414 211.4C474.774 211.4 474.241 211.293 473.814 211.08C473.387 210.92 473.174 210.653 473.174 210.28C473.174 209.853 473.387 209.507 473.814 209.24C474.241 208.973 474.827 208.707 475.574 208.44C477.014 208.013 478.321 207.373 479.494 206.52C480.667 205.667 481.627 204.36 482.374 202.6C483.814 199.347 485.147 196.253 486.374 193.32C487.601 190.333 488.774 187.4 489.894 184.52C491.014 181.64 492.161 178.68 493.334 175.64C494.507 172.547 495.707 169.267 496.934 165.8C497.414 164.573 497.761 163.56 497.974 162.76C498.187 161.907 498.321 161.16 498.374 160.52C499.067 160.36 499.707 160.2 500.294 160.04C500.881 159.827 501.521 159.533 502.214 159.16C502.854 158.84 503.334 158.387 503.654 157.8C504.027 157.16 504.321 156.707 504.534 156.44C504.641 156.387 504.747 156.36 504.854 156.36C505.014 156.307 505.147 156.387 505.254 156.6C505.414 156.867 505.521 157.16 505.574 157.48C505.681 157.8 505.787 158.147 505.894 158.52C507.121 162.413 508.374 166.387 509.654 170.44C510.987 174.44 512.294 178.36 513.574 182.2C514.854 186.04 516.054 189.613 517.174 192.92C518.294 196.173 519.254 199.027 520.054 201.48C520.641 203.24 521.334 204.6 522.134 205.56C522.934 206.467 523.787 207.16 524.694 207.64C525.601 208.067 526.587 208.387 527.654 208.6C528.454 208.76 529.041 209 529.414 209.32C529.841 209.64 530.054 210.013 530.054 210.44C530.054 210.76 529.841 210.973 529.414 211.08C529.041 211.24 528.561 211.32 527.974 211.32C527.121 211.32 526.001 211.267 524.614 211.16C523.227 211.107 521.787 211.053 520.294 211C518.801 210.947 517.441 210.92 516.214 210.92C515.201 210.92 514.081 210.92 512.854 210.92C511.627 210.92 510.454 210.947 509.334 211C508.267 211.053 507.334 211.08 506.534 211.08C505.894 211.08 505.361 211 504.934 210.84C504.561 210.627 504.374 210.36 504.374 210.04C504.374 209.613 504.614 209.267 505.094 209C505.574 208.733 506.134 208.547 506.774 208.44C508.587 208.12 509.894 207.64 510.694 207C511.547 206.36 511.894 205.507 511.734 204.44C511.681 203.533 511.494 202.413 511.174 201.08C510.854 199.693 510.481 198.253 510.054 196.76C509.627 195.213 509.227 193.8 508.854 192.52C508.747 192.093 508.561 191.827 508.294 191.72C508.027 191.613 507.574 191.56 506.934 191.56H492.134C491.867 191.56 491.627 191.667 491.414 191.88C491.201 192.04 490.987 192.387 490.774 192.92C490.614 193.56 490.347 194.387 489.974 195.4C489.654 196.36 489.334 197.4 489.014 198.52C488.694 199.587 488.401 200.6 488.134 201.56C487.921 202.467 487.787 203.133 487.734 203.56C487.574 204.893 487.894 205.96 488.694 206.76C489.547 207.507 490.801 208.093 492.454 208.52C494.054 208.947 494.854 209.48 494.854 210.12C494.854 210.493 494.641 210.76 494.214 210.92C493.841 211.027 493.334 211.08 492.694 211.08C491.681 211.08 490.507 211.053 489.174 211C487.841 210.947 486.427 210.92 484.934 210.92C483.227 210.92 481.574 211 479.974 211.16C478.374 211.32 476.854 211.4 475.414 211.4ZM494.374 188.28H506.054C506.801 188.28 507.174 188.147 507.174 187.88C507.174 187.72 507.147 187.587 507.094 187.48C507.094 187.373 507.067 187.213 507.014 187L501.094 168.04C500.827 167.187 500.614 166.76 500.454 166.76C500.347 166.76 500.161 167.16 499.894 167.96L492.934 187C492.827 187.32 492.774 187.533 492.774 187.64C492.774 187.907 492.907 188.093 493.174 188.2C493.494 188.253 493.894 188.28 494.374 188.28Z" fill="black"/>
<path d="M610.465 210.4C609.771 210.4 609.211 210.293 608.785 210.08C608.358 209.92 608.145 209.68 608.145 209.36C608.145 208.987 608.358 208.667 608.785 208.4C609.265 208.08 609.931 207.787 610.785 207.52C612.171 207.093 613.451 206.453 614.625 205.6C615.798 204.747 616.811 203.333 617.665 201.36C619.158 197.947 620.518 194.747 621.745 191.76C623.025 188.773 624.225 185.84 625.345 182.96C626.465 180.08 627.611 177.093 628.785 174C630.011 170.853 631.291 167.44 632.625 163.76C632.891 163.013 633.131 162.267 633.345 161.52C633.558 160.773 633.691 159.973 633.745 159.12C634.225 158.96 634.705 158.8 635.185 158.64C635.665 158.48 636.145 158.24 636.625 157.92C637.105 157.6 637.425 157.12 637.585 156.48C637.798 155.84 637.985 155.413 638.145 155.2C638.198 155.147 638.251 155.12 638.305 155.12C638.411 155.12 638.491 155.173 638.545 155.28C638.651 155.493 638.731 155.76 638.785 156.08C638.891 156.4 638.998 156.72 639.105 157.04C640.385 161.093 641.718 165.227 643.105 169.44C644.491 173.653 645.825 177.733 647.105 181.68C648.438 185.573 649.638 189.093 650.705 192.24C651.825 195.333 652.705 197.84 653.345 199.76C654.091 201.893 654.891 203.493 655.745 204.56C656.598 205.627 657.478 206.373 658.385 206.8C659.345 207.227 660.358 207.547 661.425 207.76C662.331 207.92 662.998 208.187 663.425 208.56C663.851 208.88 664.065 209.227 664.065 209.6C664.065 209.92 663.851 210.133 663.425 210.24C662.998 210.347 662.438 210.4 661.745 210.4C660.998 210.4 659.985 210.347 658.705 210.24C657.425 210.187 656.065 210.107 654.625 210C653.185 209.947 651.851 209.92 650.625 209.92C649.611 209.92 648.571 209.92 647.505 209.92C646.438 209.92 645.451 209.947 644.545 210C643.638 210 642.865 210 642.225 210C641.531 210 640.971 209.92 640.545 209.76C640.118 209.6 639.905 209.36 639.905 209.04C639.905 208.667 640.171 208.347 640.705 208.08C641.238 207.813 641.851 207.627 642.545 207.52C644.305 207.253 645.558 206.8 646.305 206.16C647.051 205.52 647.425 204.773 647.425 203.92C647.425 203.12 647.238 201.973 646.865 200.48C646.545 198.933 646.145 197.307 645.665 195.6C645.185 193.84 644.731 192.293 644.305 190.96C644.198 190.533 643.985 190.293 643.665 190.24C643.398 190.133 642.891 190.08 642.145 190.08H627.025C626.811 190.08 626.571 190.187 626.305 190.4C626.091 190.56 625.878 190.933 625.665 191.52C625.505 192.053 625.238 192.907 624.865 194.08C624.491 195.2 624.118 196.4 623.745 197.68C623.371 198.96 623.051 200.107 622.785 201.12C622.518 202.133 622.385 202.773 622.385 203.04C622.385 204.213 622.838 205.2 623.745 206C624.651 206.747 625.745 207.28 627.025 207.6C628.785 208.08 629.665 208.613 629.665 209.2C629.665 209.52 629.451 209.76 629.025 209.92C628.598 210.027 628.038 210.08 627.345 210.08C626.651 210.08 625.638 210.053 624.305 210C622.971 209.947 621.558 209.92 620.065 209.92C618.305 209.92 616.598 210 614.945 210.16C613.291 210.32 611.798 210.4 610.465 210.4ZM629.185 187.44H641.585C642.331 187.44 642.705 187.307 642.705 187.04C642.705 186.933 642.678 186.827 642.625 186.72C642.625 186.56 642.598 186.4 642.545 186.24L636.305 166.72C635.985 165.76 635.745 165.28 635.585 165.28C635.478 165.28 635.265 165.733 634.945 166.64L627.665 186.24C627.558 186.56 627.505 186.773 627.505 186.88C627.505 187.147 627.638 187.307 627.905 187.36C628.225 187.413 628.651 187.44 629.185 187.44Z" fill="black"/>
</svg>
